<?xml version="1.0" encoding="utf-8"?>
<!-- Generator: Adobe Illustrator 20.1.0, SVG Export Plug-In . SVG Version: 6.00 Build 0)  -->
<svg version="1.1" id="Layer_1" xmlns="http://www.w3.org/2000/svg" xmlns:xlink="http://www.w3.org/1999/xlink" x="0px" y="0px"
	 viewBox="0 0 225.3 90.5" style="enable-background:new 0 0 225.3 90.5;" xml:space="preserve">
<style type="text/css">
	.st0{fill:#157940;}
	.st1{fill:#EC672F;}
	.st2{fill:#98C448;}
	.st3{fill:#FAE624;}
	.st4{fill:#2C3684;}
	.st5{fill:#239DD7;}
	.st6{fill:#63348B;}
	.st7{fill:none;}
	.st8{fill:#0B9A4B;}
	.st9{fill:#FFFFFF;}
</style>
<title>OMS-logo</title>
<rect y="70.6" class="st0" width="110.5" height="7.9"/>
<rect y="60.4" class="st0" width="110.5" height="7.9"/>
<rect x="8.1" y="41.6" class="st1" width="30.3" height="16.9"/>
<rect x="8.1" y="22.6" class="st2" width="30.3" height="16.9"/>
<rect x="40.1" y="41.6" class="st3" width="30.3" height="16.9"/>
<rect x="40.1" y="22.6" class="st4" width="30.3" height="16.9"/>
<rect x="72.1" y="41.6" class="st5" width="30.3" height="16.9"/>
<rect x="72.1" y="22.6" class="st6" width="30.3" height="16.9"/>
<polygon class="st7" points="35.2,8.8 30.4,10.9 80.3,10.9 75.5,8.8 "/>
<polygon class="st8" points="8.4,20.5 102.3,20.5 80.3,10.9 30.4,10.9 "/>
<polygon class="st8" points="55.3,0 35.2,8.8 75.5,8.8 "/>
<rect x="114.8" y="70.6" class="st9" width="110.5" height="7.9"/>
<rect x="114.8" y="60.4" class="st9" width="110.5" height="7.9"/>
<rect x="123" y="41.6" class="st9" width="30.3" height="16.9"/>
<rect x="123" y="22.6" class="st9" width="30.3" height="16.9"/>
<rect x="154.9" y="41.6" class="st9" width="30.3" height="16.9"/>
<rect x="154.9" y="22.6" class="st9" width="30.3" height="16.9"/>
<rect x="186.9" y="41.6" class="st9" width="30.3" height="16.9"/>
<rect x="186.9" y="22.6" class="st9" width="30.3" height="16.9"/>
<polygon class="st9" points="150,8.8 145.2,10.9 195.1,10.9 190.3,8.8 "/>
<polygon class="st9" points="123.2,20.5 217.2,20.5 195.1,10.9 145.2,10.9 "/>
<polygon class="st9" points="170.2,0 150,8.8 190.3,8.8 "/>
</svg>
