<?xml version="1.0" standalone="no"?>
<!DOCTYPE svg PUBLIC "-//W3C//DTD SVG 1.1//EN" "http://www.w3.org/Graphics/SVG/1.1/DTD/svg11.dtd" >
<svg xmlns="http://www.w3.org/2000/svg">
<metadata>
Created by FontPrep 20130207 at Thu Jun 30 14:27:47 2016
 By Stuart Nicholls
Copyright (c) 2010 Linotype GmbH, www.linotype.com. All rights reserved. This font software may not be reproduced, modified, disclosed or transferred without the express written approval of Linotype GmbH. Univers is a trademark of Linotype Corp. registered in the U.S. Patent and Trademark Office and may be registered in certain other jurisdictions in the name of Linotype Corp. or its licensee Linotype GmbH. This typeface is original artwork of Adrian Frutiger and Linotype Design Studio. The design may be protected in certain jurisdictions.
</metadata>
<defs>
<font id="8893256818855717436165e91373b041" horiz-adv-x='1024' >
  <font-face 
    font-family="UniversNextPro-Thin"
    font-weight="275"
    font-stretch="normal"
    units-per-em="2048"
    panose-1="2 11 3 3 3 2 2 2 2 3"
    ascent="1536"
    descent="-512"
    x-height="1036"
    cap-height="1481"
    bbox="-307 -438 2003 1886"
    underline-thickness="102"
    underline-position="-102"
    unicode-range="U+000D-FB04"
  />
<missing-glyph horiz-adv-x="1048" 
d="M1049 1470v-1470h-1049v1470h1049zM946 102v1264h-844v-1264h844zM457 479v35q0 109 25.5 165t92.5 121t86 102.5t19 95.5q0 59 -46 103t-109.5 44t-109.5 -45t-59 -150l-102 17q14 147 90 213.5t186 66.5t182 -70t72 -186q0 -77 -25 -130t-81 -105q-85 -79 -104 -116.5
t-19 -111.5v-49h-98zM455 240v137h114v-137h-114z" />
    <glyph glyph-name="IJ" unicode="IJ" horiz-adv-x="1490" 
d="M221 0v1481h86v-1481h-86zM1305 418q1 -175 -59 -264q-111 -166 -348 -166t-323 203q-27 65 -26 149h88q0 -131 74 -205t216 -74t215 98q74 98 77 271v1051h86v-1063z" />
    <glyph glyph-name="ij" unicode="ij" horiz-adv-x="884" 
d="M180 0v1036h82v-1036h-82zM174 1346v135h94v-135h-94zM493 -301q45 0 71 11q48 20 56 85q3 31 3 70v1171h82v-1194q1 -127 -49 -170t-133 -43t-115 9v69q41 -8 85 -8zM616 1346v135h95v-135h-95z" />
    <glyph glyph-name="napostrophe" unicode="&#x22;n" horiz-adv-x="1132" 
d="M961 0h-82v596q0 183 -38 250t-92 97q-53 30 -135 30q-212 0 -301 -174q-51 -100 -51 -260v-539h-82v888q0 75 -4 148h80l2 -116q0 -37 1 -70t1 -47q47 117 138 180t210 64q180 1 266 -97t87 -305v-645zM113 1481l-111 -307h-70l68 307h113z" />
    <glyph glyph-name="f_f" unicode="ff" horiz-adv-x="1196" 
d="M490 1427q-56 0 -89 -12q-61 -22 -73 -99q-6 -38 -6 -89v-191h227v-67h-227v-969h-82v969h-211v67h211v226q0 172 111 218q43 17 103 17t115 -6v-70q-23 6 -79 6zM1088 1427q-56 0 -89 -12q-61 -22 -73 -99q-6 -38 -6 -89v-191h227v-67h-227v-969h-82v969h-211v67h211
v226q0 172 111 218q43 17 103 17t115 -6v-70q-23 6 -79 6z" />
    <glyph glyph-name="fi" unicode="fi" horiz-adv-x="1050" 
d="M490 1427q-56 0 -89 -12q-61 -22 -73 -99q-6 -38 -6 -89v-191h227v-67h-227v-969h-82v969h-211v67h211v226q0 172 111 218q43 17 103 17t115 -6v-70q-23 6 -79 6zM791 0v1036h81v-1036h-81zM784 1346v135h95v-135h-95z" />
    <glyph glyph-name="fl" unicode="fl" horiz-adv-x="1048" 
d="M490 1427q-56 0 -89 -12q-61 -22 -73 -99q-6 -38 -6 -89v-191h227v-67h-227v-969h-82v969h-211v67h211v226q0 172 111 218q43 17 103 17t115 -6v-70q-23 6 -79 6zM791 0v1481h81v-1481h-81z" />
    <glyph glyph-name="f_f_i" unicode="ffi" horiz-adv-x="1648" 
d="M490 1427q-56 0 -89 -12q-61 -22 -73 -99q-6 -38 -6 -89v-191h227v-67h-227v-969h-82v969h-211v67h211v226q0 172 111 218q43 17 103 17t115 -6v-70q-23 6 -79 6zM1088 1427q-56 0 -89 -12q-61 -22 -73 -99q-6 -38 -6 -89v-191h227v-67h-227v-969h-82v969h-211v67h211
v226q0 172 111 218q43 17 103 17t115 -6v-70q-23 6 -79 6zM1389 0v1036h81v-1036h-81zM1382 1346v135h95v-135h-95z" />
    <glyph glyph-name="f_f_l" unicode="ffl" horiz-adv-x="1646" 
d="M490 1427q-56 0 -89 -12q-61 -22 -73 -99q-6 -38 -6 -89v-191h227v-67h-227v-969h-82v969h-211v67h211v226q0 172 111 218q43 17 103 17t115 -6v-70q-23 6 -79 6zM1088 1427q-56 0 -89 -12q-61 -22 -73 -99q-6 -38 -6 -89v-191h227v-67h-227v-969h-82v969h-211v67h211
v226q0 172 111 218q43 17 103 17t115 -6v-70q-23 6 -79 6zM1389 0v1481h81v-1481h-81z" />
    <glyph glyph-name=".notdef" horiz-adv-x="1048" 
d="M1049 1470v-1470h-1049v1470h1049zM946 102v1264h-844v-1264h844zM457 479v35q0 109 25.5 165t92.5 121t86 102.5t19 95.5q0 59 -46 103t-109.5 44t-109.5 -45t-59 -150l-102 17q14 147 90 213.5t186 66.5t182 -70t72 -186q0 -77 -25 -130t-81 -105q-85 -79 -104 -116.5
t-19 -111.5v-49h-98zM455 240v137h114v-137h-114z" />
    <glyph glyph-name=".null" horiz-adv-x="1161" 
 />
    <glyph glyph-name="nonmarkingreturn" unicode="&#xd;" horiz-adv-x="0" 
 />
    <glyph glyph-name="space" unicode=" " horiz-adv-x="561" 
 />
    <glyph glyph-name="exclam" unicode="!" horiz-adv-x="679" 
d="M287 0v133h106v-133h-106zM377 330h-74l-14 1151h102z" />
    <glyph glyph-name="quotedbl" unicode="&#x22;" horiz-adv-x="757" 
d="M270 1010h-71l-15 471h99zM561 1010h-74l-10 471h96z" />
    <glyph glyph-name="numbersign" unicode="#" 
d="M461 932l-72 -387h332l72 387h-332zM1042 545v-68h-258l-86 -477h-75l86 477h-332l-86 -477h-76l86 477h-248v68h260l72 387h-248v67h260l86 482h76l-86 -482h332l86 482h76l-88 -482h249v-67h-260l-71 -387h245z" />
    <glyph glyph-name="dollar" unicode="$" 
d="M852.5 572q-83.5 63 -256.5 122v-635q142 8 241 87.5t99 221.5q0 141 -83.5 204zM207 1115q0 -129 85.5 -196t237.5 -114v608q-220 -14 -271.5 -120.5t-51.5 -177.5zM904.5 98q-121.5 -97 -308.5 -110v-162h-66v160q-298 6 -365 147t-69 240h90q4 -156 97.5 -234
t246.5 -82v660q-203 65 -275.5 121.5t-105 119t-32.5 153.5q0 171 120 270t293 108v160h66v-162q273 -14 336 -126t69 -196h-90q-15 229 -315 248v-631q88 -29 167 -59.5t171 -102t92 -248.5t-121.5 -274z" />
    <glyph glyph-name="percent" unicode="%" horiz-adv-x="1871" 
d="M641 1161q0 169 -84 223t-151.5 54t-113.5 -30t-76 -76t-43 -103.5t-13 -147t61 -186t183 -96.5t179.5 96.5t57.5 265.5zM1712 413q0 171 -84 224t-151.5 53t-113.5 -29.5t-76 -75.5t-43 -104.5t-13 -145.5t61 -185.5t182 -98.5t179.5 95.5t58.5 266.5zM719 1118
q0 -160 -82 -271.5t-235 -111.5t-236.5 111t-83.5 266q0 156 84.5 273.5t240.5 117.5q155 0 233.5 -112.5t78.5 -272.5zM508 -49h-84l922 1583h77zM1708 98q-82 -110 -235 -110q-154 0 -237 111t-83 267t85 273t239 117q153 0 233 -112t80 -274t-82 -272z" />
    <glyph glyph-name="ampersand" unicode="&#x26;" horiz-adv-x="1345" 
d="M997 758h-252q-245 0 -350.5 -42t-162 -109t-56.5 -171t30 -164.5t99 -113t190.5 -66.5t299.5 -14h202v680zM664 1430q-182 0 -301 -76.5t-119 -244.5q0 -278 489 -278h264v349h84v-349h256v-73h-256v-758h-381q-125 0 -304 25t-244.5 151t-65.5 232q0 192 113 279.5
t311 107.5q-2 0 -2 1t-2 1q-166 23 -258 98.5t-92 246.5t146 266t335 95q137 0 272 -39v-75q-148 41 -245 41z" />
    <glyph glyph-name="quotesingle" unicode="'" horiz-adv-x="464" 
d="M268 1010h-71l-13 471h97z" />
    <glyph glyph-name="parenleft" unicode="(" horiz-adv-x="571" 
d="M218.5 971q52.5 186 174.5 510h60q-35 -113 -118 -368t-83 -554t205 -858h-64q-39 106 -80 214t-94 288t-53 381t52.5 387z" />
    <glyph glyph-name="parenright" unicode=")" horiz-adv-x="571" 
d="M406 585q0 -116 -20.5 -228.5t-52.5 -223t-73 -219.5t-80 -213h-65q148 440 176 607t28 278t-17 224.5t-46 225t-64.5 222t-70.5 223.5h57q114 -296 150.5 -423.5t57 -242t20.5 -230.5z" />
    <glyph glyph-name="asterisk" unicode="*" horiz-adv-x="989" 
d="M541 1120l174 -278l-70 -37l-149 287l-152 -289l-70 39l177 276l-328 -14v82l328 -15l-181 277l72 41l154 -293l153 293l68 -39l-178 -279l327 15v-80z" />
    <glyph glyph-name="plus" unicode="+" horiz-adv-x="1296" 
d="M690 457v-457h-84v457h-461v78h461v456h84v-456h463v-78h-463z" />
    <glyph glyph-name="comma" unicode="," horiz-adv-x="561" 
d="M211 -246h-70l92 381h119z" />
    <glyph glyph-name="hyphen" unicode="-" horiz-adv-x="622" 
d="M57 512v74h508v-74h-508z" />
    <glyph glyph-name="period" unicode="." horiz-adv-x="561" 
d="M227 0v133h105v-133h-105z" />
    <glyph glyph-name="slash" unicode="/" horiz-adv-x="606" 
d="M102 -20h-88l492 1523h84z" />
    <glyph glyph-name="zero" unicode="0" 
d="M920 728q0 74 -6.5 148t-28.5 193.5t-103 238.5t-223 119t-249 -150.5t-107 -528.5q0 -519 136.5 -606t232.5 -87t167.5 74t111.5 181.5t54.5 225.5t14.5 192zM1008 755q0 -116 -18.5 -251t-69 -252t-138.5 -193.5t-204 -76.5t-186 35.5t-138.5 119.5t-103.5 257.5
t-35 326.5q0 154 18.5 284t67.5 240.5t136 184t224 73.5t223 -73.5t136.5 -185t69 -242.5t18.5 -247z" />
    <glyph glyph-name="one" unicode="1" 
d="M662 1499v-1499h-84v1407q-74 -78 -150 -128t-168 -99v86q158 74 315 233h87z" />
    <glyph glyph-name="two" unicode="2" 
d="M121 0v96q168 174 330.5 370t208.5 251q196 238 196 386t-87 235t-226 87t-230.5 -97.5t-91.5 -246.5h-88q4 190 116.5 306t291.5 116t291 -102.5t112 -286.5t-117 -326.5t-165 -199.5t-169.5 -200.5t-275.5 -309.5h744v-78h-840z" />
    <glyph glyph-name="three" unicode="3" 
d="M1004 389q0 -94 -41 -173t-140 -157.5t-293 -78.5q-195 0 -310.5 108.5t-127.5 296.5h88q12 -165 114 -248.5t247 -83.5q146 0 258 94t112 253t-97.5 246t-250.5 87h-31q-30 0 -51 -2v74q20 -2 25 -2h57q130 0 223 86.5t93 226.5t-99.5 227t-247.5 87t-233.5 -81
t-103.5 -235h-89q8 180 128 284.5t302 104.5t305.5 -104t123.5 -292t-106.5 -255.5t-164.5 -81.5q212 -35 261 -161t49 -220z" />
    <glyph glyph-name="four" unicode="4" horiz-adv-x="1136" 
d="M748 430v963l-588 -963h588zM831 358v-358h-86v358h-669v93l655 1046h100v-1067h228v-72h-228z" />
    <glyph glyph-name="five" unicode="5" 
d="M885.5 119.5q-122.5 -139.5 -330.5 -139.5q-278 0 -344 139t-70 235h92q4 -139 94.5 -221t229.5 -82q173 0 268 120t95 353t-127 298t-229 65t-191.5 -71t-118.5 -193h-88l35 858h739v-74h-655l-31 -633q55 98 145.5 142.5t188.5 44.5t178 -37t161 -133.5t81 -314.5
q0 -217 -122.5 -356.5z" />
    <glyph glyph-name="six" unicode="6" 
d="M835.5 749.5q-84.5 114.5 -250.5 114.5t-264 -117.5t-98 -284.5t94 -287t257 -120t254.5 120.5t91.5 290.5q0 169 -84.5 283.5zM582 -18q-465 0 -465 646q0 255 38.5 437.5t147 310t290.5 127.5q183 0 294 -95.5t117 -277.5h-93q-10 139 -90 216t-211 77t-265 -113
t-142 -575q-2 -27 -1 -45t1 -41q43 147 151 219t226 72t196 -37t129 -100.5t77 -149.5t26 -184q0 -201 -117.5 -344t-308.5 -143z" />
    <glyph glyph-name="seven" unicode="7" 
d="M109 1403v78h866v-88l-561 -1393h-99l576 1403h-782z" />
    <glyph glyph-name="eight" unicode="8" 
d="M297 639q-107 -88 -107 -247t107.5 -250t260.5 -91t262.5 92.5t109.5 252.5q0 159 -109 245t-263 86t-261 -88zM311 1343.5q-102 -86.5 -102 -241.5t103.5 -229t248.5 -74t248.5 79.5t103.5 229.5t-100.5 236t-250 86t-251.5 -86.5zM1020 420q0 -217 -133 -328.5
t-328 -111.5q-194 0 -325.5 103.5t-131.5 303.5q0 150 81 245t229 130q-125 27 -207 114t-82 224q0 189 126 296t311 107t312 -105t127 -292q0 -141 -79.5 -227t-206.5 -115q143 -31 225 -125.5t82 -218.5z" />
    <glyph glyph-name="nine" unicode="9" 
d="M804.5 1308.5q-94.5 116.5 -256.5 116.5t-255.5 -117.5t-93.5 -284.5q0 -166 86.5 -276t249.5 -110t263.5 112.5t100.5 277.5t-94.5 281.5zM999 821q0 -846 -483 -846q-170 0 -281.5 97.5t-121.5 287.5h90q10 -141 90 -224t214 -83t212 66.5t133 198.5t68 446q2 27 2 32
v52q-45 -145 -153.5 -217t-224.5 -72t-194 36t-131 98.5t-79.5 147.5t-26.5 236.5t117.5 288.5t299.5 137t319 -104.5t143.5 -286.5t6.5 -291z" />
    <glyph glyph-name="colon" unicode=":" horiz-adv-x="561" 
d="M227 0v133h105v-133h-105zM227 901v135h105v-135h-105z" />
    <glyph glyph-name="semicolon" unicode=";" horiz-adv-x="561" 
d="M211 -246h-70l92 381h119zM225 901v135h105v-135h-105z" />
    <glyph glyph-name="less" unicode="&#x3c;" horiz-adv-x="1296" 
d="M145 453v84l1006 415v-86l-907 -372l907 -369v-86z" />
    <glyph glyph-name="equal" unicode="=" horiz-adv-x="1296" 
d="M145 266v78h1008v-78h-1008zM145 645v78h1008v-78h-1008z" />
    <glyph glyph-name="greater" unicode="&#x3e;" horiz-adv-x="1296" 
d="M145 39v86l908 369l-908 372v86l1006 -415v-84z" />
    <glyph glyph-name="question" unicode="?" horiz-adv-x="1040" 
d="M346 0v133h105v-133h-105zM409 1501q187 0 303.5 -87t116.5 -269q0 -137 -85 -238.5t-143.5 -157t-100.5 -96.5t-53 -75.5t-11 -79.5v-168h-76v151q0 41 1 80t29 85t86.5 96.5t116.5 110.5t103 131t45 152q0 146 -88.5 220t-230.5 74q-95 0 -205 -29v82q105 18 192 18z
" />
    <glyph glyph-name="at" unicode="@" horiz-adv-x="2000" 
d="M1274 710q0 123 -57.5 201t-176.5 78q-152 0 -245 -144t-93 -319t89 -216.5t161 -41.5t133.5 43t103.5 108.5t63.5 146t21.5 144.5zM1505 -133q-211 -139 -555 -139q-166 0 -322.5 58t-331.5 228.5t-175 548.5q0 197 70.5 368t196.5 298t297 199.5t373 72.5
q394 0 608 -201.5t214 -539.5q0 -249 -131 -402t-297 -153q-102 0 -156.5 53t-52.5 150q-41 -82 -119 -144.5t-176 -62.5q-169 0 -247 93t-78 236q0 203 111 364t302 161q113 0 180.5 -57.5t86.5 -155.5l32 192h78l-96 -547q-6 -24 -6 -67q0 -137 143 -137q91 0 159 50
t130.5 143.5t62.5 263.5q0 332 -193.5 515t-555.5 183q-186 0 -344 -69t-273.5 -186.5t-180 -277.5t-64.5 -338q0 -351 215 -562.5t563 -211.5q135 0 268 34t232 95z" />
    <glyph glyph-name="A" unicode="A" horiz-adv-x="1349" 
d="M657 1384l-348 -868h709zM1237 0l-184 440h-772l-175 -440h-94l604 1481h86l635 -1481h-100z" />
    <glyph glyph-name="B" unicode="B" horiz-adv-x="1300" 
d="M1083 402q0 188 -109 260.5t-298 72.5h-369v-655h295q225 0 310 41t128 108t43 173zM1020 1112q0 143 -96.5 217t-245.5 74h-371v-596h342q260 0 315.5 110.5t55.5 194.5zM1174 412q0 -235 -154 -323.5t-408 -88.5h-391v1481h381q176 0 254 -25q117 -35 186.5 -126
t69.5 -221t-77 -217t-201 -116q340 -45 340 -364z" />
    <glyph glyph-name="C" unicode="C" horiz-adv-x="1310" 
d="M725 -20q-312 0 -461 213.5t-149 533.5t111.5 479.5t229 227t285.5 67.5t306 -94t149 -260h-92q-22 137 -129.5 206.5t-243.5 69.5q-135 0 -235.5 -63.5t-194.5 -209t-94 -421.5t125.5 -475t396.5 -199q132 0 237.5 71t137.5 204h94q-35 -162 -165 -256t-308 -94z" />
    <glyph glyph-name="D" unicode="D" horiz-adv-x="1456" 
d="M1253 762q0 172 -56 315.5t-189 235.5t-416 92h-285v-1329h281q515 0 590 257t75 429zM1341 724q0 -306 -165 -508t-373.5 -209t-267.5 -7h-314v1481h369q176 0 305 -33q215 -55 330.5 -236.5t115.5 -487.5z" />
    <glyph glyph-name="E" unicode="E" horiz-adv-x="1200" 
d="M221 0v1481h850v-76h-764v-592h737v-76h-737v-661h797v-76h-883z" />
    <glyph glyph-name="F" unicode="F" horiz-adv-x="1097" 
d="M307 1405v-590h697v-76h-697v-739h-86v1481h809v-76h-723z" />
    <glyph glyph-name="G" unicode="G" horiz-adv-x="1392" 
d="M337.5 137.5q-222.5 283.5 -222.5 608.5q0 324 113.5 478t232.5 217.5t261 63.5q361 0 422.5 -155.5t69.5 -221.5h-92q-23 150 -125.5 227t-250.5 77q-269 0 -403 -198.5t-134 -485.5t141.5 -484.5t421.5 -197.5q200 0 377 61v528h-391v76h477v-659
q-675 -218 -897.5 65.5z" />
    <glyph glyph-name="H" unicode="H" horiz-adv-x="1484" 
d="M1178 0v729h-871v-729h-86v1481h86v-678h871v678h86v-1481h-86z" />
    <glyph glyph-name="I" unicode="I" horiz-adv-x="528" 
d="M221 0v1481h86v-1481h-86z" />
    <glyph glyph-name="J" unicode="J" horiz-adv-x="962" 
d="M776 418q0 -175 -65 -275q-105 -155 -342 -155t-293 134t-56 218h89q0 -131 73.5 -205t215.5 -74t217 100t75 269v1051h86v-1063z" />
    <glyph glyph-name="K" unicode="K" horiz-adv-x="1208" 
d="M221 0v1481h86v-1481h-86zM1085 0l-770 801l701 680h114l-710 -676l782 -805h-117z" />
    <glyph glyph-name="L" unicode="L" horiz-adv-x="1093" 
d="M221 0v1481h86v-1405h758v-76h-844z" />
    <glyph glyph-name="M" unicode="M" horiz-adv-x="1886" 
d="M1579 0v1405l-588 -1405h-94l-594 1405v-1405h-82v1481h146l581 -1381l572 1381h145v-1481h-86z" />
    <glyph glyph-name="N" unicode="N" horiz-adv-x="1503" 
d="M303 0h-82v1481h113l866 -1370v1370h82v-1481h-113l-866 1368v-1368z" />
    <glyph glyph-name="O" unicode="O" horiz-adv-x="1501" 
d="M1166.5 1236.5q-127.5 190.5 -406.5 190.5t-415 -195t-136 -484t137 -492t409 -203t405.5 204t133.5 496q0 293 -127.5 483.5zM1227.5 199.5q-158.5 -222.5 -472.5 -222.5t-477 219t-163 547t161.5 544t482.5 216t474 -205.5t153 -540.5t-158.5 -557.5z" />
    <glyph glyph-name="P" unicode="P" horiz-adv-x="1185" 
d="M1024 1116q0 72 -33 133.5t-108 108.5t-262 47h-314v-649h238q193 0 260 22t104 54t62.5 74t39 90t13.5 120zM1114 1066q0 -114 -87.5 -241t-257 -136t-255.5 -9h-207v-680h-86v1481h383q92 0 180 -9.5t166 -58.5q164 -102 164 -347z" />
    <glyph glyph-name="Q" unicode="Q" horiz-adv-x="1501" 
d="M1167 1235q-127 192 -408 192t-415.5 -196.5t-134.5 -480.5t136 -488.5t409 -204.5q272 0 406 202.5t134 493.5q0 290 -127 482zM1419 0q-80 0 -162.5 2t-154.5 -1t-121 -5t-109 -8t-131 -6q-162 0 -280.5 65.5t-232 222.5t-113.5 482t163.5 538t482 213t472 -207
t153.5 -554t-129 -490t-223 -191q88 12 193.5 12.5t191.5 2.5v-76z" />
    <glyph glyph-name="R" unicode="R" horiz-adv-x="1304" 
d="M1049 1122q0 283 -375 283h-367v-590h305q302 0 369.5 104.5t67.5 202.5zM680 741h-373v-741h-86v1481h475q305 0 374 -130t69 -221q0 -141 -77 -228t-206 -120q119 -18 169 -111t60 -247q27 -357 89 -424h-101q-41 78 -49 166t-18 192t-23.5 179t-45.5 120t-92.5 64.5
t-164.5 19.5z" />
    <glyph glyph-name="S" unicode="S" horiz-adv-x="1183" 
d="M1071 374q0 -94 -42 -170.5t-142 -148t-305 -71.5q-206 0 -329.5 96t-139.5 295h90q4 -139 101 -227.5t266 -88.5t292 79t123 245t-128 225.5t-200 83.5l-129 43q-191 65 -257 118.5t-99 114t-33 153.5q0 182 136.5 278t328.5 96q295 0 367.5 -116.5t77.5 -207.5h-91
q-11 133 -108 191.5t-242 58.5q-252 0 -317.5 -110.5t-65.5 -206.5t80 -166t254 -125l139 -45q198 -65 260 -124.5t87.5 -117.5t25.5 -152z" />
    <glyph glyph-name="T" unicode="T" horiz-adv-x="1056" 
d="M569 1405v-1405h-86v1405h-475v76h1041v-76h-480z" />
    <glyph glyph-name="U" unicode="U" horiz-adv-x="1478" 
d="M1286 547q0 -268 -136 -416.5t-408 -148.5t-410.5 142t-138.5 423v934h90v-906q0 -98 14 -187t66 -168t149.5 -121t235.5 -42t245 55.5t155 161.5t48 301v906h90v-934z" />
    <glyph glyph-name="V" unicode="V" horiz-adv-x="1271" 
d="M692 0h-100l-578 1481h92l535 -1391l528 1391h88z" />
    <glyph glyph-name="W" unicode="W" horiz-adv-x="2023" 
d="M1591 0h-116l-469 1370h-9l-450 -1370h-123l-387 1481h92l358 -1399h9l454 1399h105l477 -1399h8l358 1399h89z" />
    <glyph glyph-name="X" unicode="X" horiz-adv-x="1243" 
d="M1108 0l-496 698l-481 -698h-100l534 770l-520 711h107l464 -652l453 652h98l-501 -715l546 -766h-104z" />
    <glyph glyph-name="Y" unicode="Y" horiz-adv-x="1218" 
d="M641 0h-86v655l-575 826h104l518 -750l514 750h98l-573 -828v-653z" />
    <glyph glyph-name="Z" unicode="Z" horiz-adv-x="1101" 
d="M37 0v86l905 1315h-844v80h944v-80l-911 -1321h934v-80h-1028z" />
    <glyph glyph-name="bracketleft" unicode="[" horiz-adv-x="585" 
d="M180 -297v1778h254v-64h-176v-1653h176v-61h-254z" />
    <glyph glyph-name="backslash" unicode="\" horiz-adv-x="606" 
d="M506 -20l-492 1523h88l488 -1523h-84z" />
    <glyph glyph-name="bracketright" unicode="]" horiz-adv-x="585" 
d="M152 -297v61h178v1653h-178v64h254v-1778h-254z" />
    <glyph glyph-name="asciicircum" unicode="^" horiz-adv-x="1296" 
d="M1001 637l-356 754l-354 -754h-84l403 844h72l403 -844h-84z" />
    <glyph glyph-name="underscore" unicode="_" horiz-adv-x="1038" 
d="M6 -256v102h1024v-102h-1024z" />
    <glyph glyph-name="grave" unicode="`" horiz-adv-x="512" 
d="M299 1214l-231 293h108l184 -293h-61z" />
    <glyph glyph-name="a" unicode="a" horiz-adv-x="1060" 
d="M267 102q81 -59 201 -59t188.5 48t109.5 132t41 252v76l-115 2q-212 0 -359 -52t-147 -196t81 -203zM887 255q0 -19 14 -255h-74l-10 213q-45 -125 -143.5 -180.5t-214.5 -55.5q-235 0 -295 108t-60 204t51.5 162.5t156 115.5t337.5 49h63q62 0 95 -2v78q0 139 -63.5 215
t-215.5 76q-104 0 -175.5 -44t-86.5 -163h-80q4 134 101.5 204.5t242.5 70.5q146 -1 226 -51t106.5 -131t26.5 -185v-12l-1 -64z" />
    <glyph glyph-name="b" unicode="b" horiz-adv-x="1146" 
d="M882 845.5q-83 137.5 -261 137.5q-179 0 -270 -142.5t-91 -328.5q0 -299 123 -378t220 -79t166 41t132.5 135.5t63.5 285.5t-83 328.5zM180 301v1180h82v-701q47 141 144.5 206t217.5 65q216 0 321.5 -152t105.5 -373t-114 -380.5t-329 -159.5q-245 0 -348 260v-34
l-4 -212h-82q6 120 6 301z" />
    <glyph glyph-name="c" unicode="c" horiz-adv-x="1028" 
d="M184 166.5q-88 107.5 -88 342.5t122 392.5t357 157.5q164 0 266.5 -89t114.5 -249h-79q-12 129 -92 198.5t-198 69.5q-213 0 -309 -136t-96 -337t99.5 -336t285.5 -135q144 0 224.5 87t89.5 190h77q-12 -150 -118 -247.5t-290 -97.5q-102 0 -190 41t-176 148.5z" />
    <glyph glyph-name="d" unicode="d" horiz-adv-x="1146" 
d="M795.5 842.5q-91.5 140.5 -267.5 140.5t-261 -135.5t-85 -325.5q0 -309 132 -388t230 -79t163 42t122.5 136t57.5 282q0 187 -91.5 327.5zM967 301q0 -181 6 -301h-82l-1 74q-1 73 -2 111t-1 61q-113 -260 -344 -260q-223 0 -335 156t-112 378t110 376.5t316 154.5
q275 0 363 -265v695h82v-1180z" />
    <glyph glyph-name="e" unicode="e" horiz-adv-x="1042" 
d="M542 983q-164 0 -255.5 -119t-104.5 -286h682v24q-7 260 -121 320.5t-201 60.5zM96 500q0 370 167 460.5t333.5 90.5t259 -151t92.5 -359v-29h-768v-31q0 -182 95 -310t272 -128q135 0 209.5 71.5t105.5 209.5h80q-72 -347 -403 -347q-221 0 -332 146.5t-111 376.5z" />
    <glyph glyph-name="f" unicode="f" horiz-adv-x="598" 
d="M240 1262q0 235 214 235q60 0 115 -6v-70q-23 6 -79 6q-103 0 -135.5 -45t-32.5 -155v-191h227v-67h-227v-969h-82v969h-211v67h211v226z" />
    <glyph glyph-name="g" unicode="g" horiz-adv-x="1153" 
d="M801 845.5q-94 137.5 -266 137.5t-261.5 -136t-89.5 -326t92.5 -321.5t270.5 -131.5t263 136t85 320t-94 321.5zM973 851v-734q0 -212 -89.5 -371.5t-343.5 -159.5q-253 0 -315.5 102.5t-62.5 190.5h82q0 -118 83.5 -171.5t204.5 -53.5q120 0 187 40t119.5 127t52.5 296
v135q-94 -250 -354 -250q-213 0 -327 146.5t-114 371.5t111 378t319 153q129 0 229.5 -72t139.5 -203v260h86q-8 -172 -8 -185z" />
    <glyph glyph-name="h" unicode="h" horiz-adv-x="1130" 
d="M877 0v596q0 184 -56 280.5t-221 96.5q-202 0 -268 -133.5t-68 -199t-2 -101.5v-539h-82v1481h82v-674q45 117 135 178.5t209 61.5q182 0 267 -97.5t85 -304.5v-645h-81z" />
    <glyph glyph-name="i" unicode="i" horiz-adv-x="442" 
d="M180 0v1036h82v-1036h-82zM174 1346v135h94v-135h-94z" />
    <glyph glyph-name="j" unicode="j" horiz-adv-x="442" 
d="M156.5 -263.5q23.5 37.5 23.5 128.5v1171h82v-1194q0 -127 -49 -170t-158 -43q-56 0 -90 9v69q40 -8 104 -8t87.5 37.5zM174 1346v135h94v-135h-94z" />
    <glyph glyph-name="k" unicode="k" horiz-adv-x="978" 
d="M180 0v1481h82v-1481h-82zM846 0l-574 588l529 448h112l-536 -446l575 -590h-106z" />
    <glyph glyph-name="l" unicode="l" horiz-adv-x="442" 
d="M180 0v1481h82v-1481h-82z" />
    <glyph glyph-name="m" unicode="m" horiz-adv-x="1775" 
d="M1522 637q0 336 -268 336q-129 0 -202.5 -68.5t-103.5 -177.5q-14 -52 -14 -149v-578h-82v621q0 352 -272 352q-111 0 -214.5 -98.5t-103.5 -311.5v-563h-82v762l-4 274h80l1 -76q1 -75 2 -108t1 -47q66 165 164 202t168 37q261 0 317 -256q79 256 373 256
q100 0 169 -41.5t111 -123t42 -283.5v-596h-82v637z" />
    <glyph glyph-name="n" unicode="n" horiz-adv-x="1132" 
d="M608 1047q180 0 266.5 -97.5t86.5 -304.5v-645h-82v596q0 183 -55 280t-222 97q-202 0 -271 -139t-69 -295v-539h-82v482q0 481 -4 554h80l1 -76q1 -77 2 -110t1 -47q47 117 138 180.5t210 63.5z" />
    <glyph glyph-name="o" unicode="o" 
d="M182 524q0 -196 96.5 -337.5t281.5 -141.5t282.5 142.5t97.5 336.5t-96 326.5t-280.5 132.5t-283 -131.5t-98.5 -327.5zM902.5 138.5q-123.5 -161.5 -344.5 -161.5q-220 0 -341 157.5t-121 387t122 380.5t347 151t343 -146t118 -376q0 -231 -123.5 -392.5z" />
    <glyph glyph-name="p" unicode="p" horiz-adv-x="1146" 
d="M877.5 842q-87.5 141 -263.5 141t-263 -135.5t-87 -328t84 -328.5t262 -136q179 0 267 135.5t88 323.5q0 187 -87.5 328zM260 791q104 260 344 260q229 0 338 -154.5t109 -374t-111.5 -378t-321.5 -158.5q-253 0 -356 254v-629h-82v1106q0 160 -6 319h82l1 -74
q1 -73 2 -111t1 -60z" />
    <glyph glyph-name="q" unicode="q" horiz-adv-x="1146" 
d="M797 845.5q-86 137.5 -265 137.5t-264.5 -138.5t-85.5 -328.5t88 -325.5t267 -135.5t262.5 136t83.5 326.5t-86 328zM889 1036h84q-6 -160 -6 -319v-1106h-82v629q-103 -254 -359 -254q-213 0 -321.5 154.5t-108.5 377.5t112.5 378t323.5 155q143 0 225.5 -68t129.5 -184
v15l1 64z" />
    <glyph glyph-name="r" unicode="r" horiz-adv-x="659" 
d="M580 1042h22q21 0 37 -4v-84q-173 36 -271 -52t-103 -182.5t-5 -131.5v-588h-82v731q0 149 -4 305h80l4 -202q107 208 322 208z" />
    <glyph glyph-name="s" unicode="s" horiz-adv-x="917" 
d="M207 790q0 -90 61.5 -134t173.5 -76l43 -13q156 -41 215.5 -79.5t88 -84.5t28.5 -121t-30.5 -132.5t-81 -94.5t-117 -55t-180 -18t-210 80.5t-100.5 234.5h82q12 -250 273 -250q183 0 233.5 84.5t50.5 138.5q0 90 -63.5 134.5t-190.5 80.5l-55 17q-144 40 -198 80.5
t-80.5 85t-26.5 114.5q0 130 98.5 203.5t243.5 73.5t236.5 -70.5t95.5 -224.5h-82q-8 225 -248 225q-169 0 -214.5 -73.5t-45.5 -125.5z" />
    <glyph glyph-name="t" unicode="t" horiz-adv-x="610" 
d="M428 -6q-104 0 -147 54t-43 153v768h-209v67h209v221l81 39v-260h228v-67h-228v-725q0 -92 20.5 -124t48.5 -43t65 -11t104 10v-72q-65 -10 -129 -10z" />
    <glyph glyph-name="u" unicode="u" horiz-adv-x="1130" 
d="M950 297q0 -180 6 -297h-82l-1 77q-1 77 -2 109.5t-1 46.5q-47 -117 -138 -181t-210 -64q-350 0 -350 401v647h82v-596q0 -172 56.5 -275.5t206.5 -103.5t245 96t100.5 199t5.5 140v540h82v-739z" />
    <glyph glyph-name="v" unicode="v" horiz-adv-x="1001" 
d="M539 0h-74l-428 1036h88l381 -940l375 940h84z" />
    <glyph glyph-name="w" unicode="w" horiz-adv-x="1605" 
d="M1188 0h-60l-323 932l-334 -932h-61l-371 1036h92l311 -917l324 917h84l313 -911l320 911h84z" />
    <glyph glyph-name="x" unicode="x" horiz-adv-x="962" 
d="M836 0l-357 475l-362 -475h-92l405 526l-383 510h98l340 -456l349 456h92l-391 -510l403 -526h-102z" />
    <glyph glyph-name="y" unicode="y" horiz-adv-x="985" 
d="M387 -389h-86l164 399l-428 1026h96l371 -911l360 911h84z" />
    <glyph glyph-name="z" unicode="z" horiz-adv-x="868" 
d="M78 0v80l622 883h-606v73h684v-90l-608 -872h621v-74h-713z" />
    <glyph glyph-name="braceleft" unicode="{" horiz-adv-x="761" 
d="M340 70v174q0 164 -68 219q-73 68 -221 80v59q135 6 217 72q72 59 72 193v17l-1 96q-1 79 1 161q5 185 127 272q92 68 233 68v-60q-147 -8 -215 -86q-63 -84 -63 -160.5t-2 -109.5t-1 -65.5t1 -108t-14 -136.5t-54 -100q-70 -69 -188 -84q220 -30 248 -219q8 -58 8 -157
v-119q0 -118 15 -165q15 -48 28 -74q35 -67 131 -97q52 -14 106 -19v-57q-173 5 -268 94q-92 92 -92 312z" />
    <glyph glyph-name="bar" unicode="|" horiz-adv-x="471" 
d="M193 -438v2048h86v-2048h-86z" />
    <glyph glyph-name="braceright" unicode="}" horiz-adv-x="761" 
d="M426 278.5q0 -32.5 -2 -69.5t0 -88t-2 -82q0 -196 -82 -268t-154 -90q-42 -13 -125 -17v57q214 13 265 179q16 56 16 178v117q0 103 10 172t60 120q59 66 186 84q-103 15 -162 60q-19 12 -47 51q-39 71 -43 137q-4 23 -4 30v83q0 33 1 65.5t-1 65.5t-4.5 116t-66.5 158
q-63 75 -210 84v60q173 -8 258 -86q77 -65 91 -176t14 -122v-179q0 -118 17 -168q44 -131 270 -148v-59q-101 -9 -163 -43q-62 -35 -86 -74t-30 -77t-6 -70.5z" />
    <glyph glyph-name="asciitilde" unicode="~" horiz-adv-x="1296" 
d="M312 612q139 0 278 -54t213.5 -79.5t140.5 -25.5q121 0 160 172h61q-22 -169 -101 -207.5t-149 -38.5t-268 78q-78 29 -150.5 55.5t-138.5 26.5t-107.5 -51.5t-53.5 -122.5h-64q40 247 179 247z" />
    <glyph glyph-name="uni00A0" unicode="&#xa0;" horiz-adv-x="561" 
 />
    <glyph glyph-name="exclamdown" unicode="&#xa1;" horiz-adv-x="679" 
d="M287 928v133h106v-133h-106zM289 -420l14 1151h74l14 -1151h-102z" />
    <glyph glyph-name="cent" unicode="&#xa2;" 
d="M568 989q-78 0 -221.5 -74.5t-143.5 -404.5q0 -226 82 -315t139 -115l258 901q-36 8 -114 8zM117 522q0 225 122.5 381t356.5 156q42 0 102 -10l56 192l61 -10l-57 -199q196 -76 217 -311h-80q-18 182 -160 242l-250 -904q212 -51 309.5 54.5t106.5 208.5h78
q-12 -149 -118.5 -247t-274.5 -98q-48 0 -121 15l-53 -191l-62 13l56 194q-213 78 -251 247t-38 267z" />
    <glyph glyph-name="sterling" unicode="&#xa3;" 
d="M389 958v-65h346v-74h-346v-739h662v-80h-863v80h113v739h-139v74h139v135q0 227 102.5 351t337.5 124t290.5 -111.5t60.5 -189.5h-91q-16 228 -303 228q-84 0 -150.5 -39t-112.5 -124t-46 -309z" />
    <glyph glyph-name="currency" unicode="&#xa4;" 
d="M320 986.5q-99 -100.5 -99 -248.5q0 -149 99 -250t244 -101t243 101.5t98 249.5t-98.5 248.5t-243 100.5t-243.5 -100.5zM991 736q0 -156 -96 -273l135 -133l-57 -58l-135 134q-114 -97 -274 -97q-161 0 -275 97l-133 -134l-60 58l135 135q-94 115 -94 272.5t94 270.5
l-135 137l60 57l133 -137q115 98 272 98t277 -96l135 135l57 -57l-135 -135q96 -118 96 -274z" />
    <glyph glyph-name="yen" unicode="&#xa5;" 
d="M989 688v-65h-387v-185h387v-65h-387v-373h-82v373h-385v65h385v185h-385v65h357l-476 793h101l448 -762l449 762h90l-471 -793h356z" />
    <glyph glyph-name="brokenbar" unicode="&#xa6;" horiz-adv-x="471" 
d="M193 -182v512h86v-512h-86zM193 842v512h86v-512h-86z" />
    <glyph glyph-name="section" unicode="&#xa7;" horiz-adv-x="1134" 
d="M338 770q0 -107 93 -141.5t124 -46.5q135 43 178 101t43 96t-26.5 66.5t-63.5 49t-77 35t-68 26.5q-203 -79 -203 -186zM270 113q174 -77 279.5 -51t175.5 69t70 154q0 68 -40 108.5t-100.5 68t-131 49t-131 49.5t-100.5 68t-40 99q0 98 60.5 155.5t158.5 100.5
q-197 89 -197 254q0 131 93.5 199.5t208.5 68.5t237 -32v-76q-116 35 -184 35q-119 0 -193 -48.5t-74 -142.5q0 -61 37 -101t93.5 -70t121 -55.5t157.5 -72.5t93 -138t-69 -153t-156 -92q115 -42 180.5 -104t65.5 -152q0 -158 -110.5 -235.5t-247.5 -77.5t-257 49v74z" />
    <glyph glyph-name="dieresis" unicode="&#xa8;" horiz-adv-x="512" 
d="M51 1346v133h94v-133h-94zM367 1346v133h94v-133h-94z" />
    <glyph glyph-name="copyright" unicode="&#xa9;" horiz-adv-x="1728" 
d="M610 733q0 -253 101.5 -304.5t174.5 -51.5t132 36t84 117h84q-25 -104 -109 -161.5t-186 -57.5q-190 0 -277.5 116t-87.5 307t94.5 314t269.5 123t228 -79.5t62 -133.5h-82q-43 146 -192.5 146t-222.5 -104.5t-73 -266.5zM1561 740q0 151 -53.5 280t-146.5 222
t-220 146.5t-276.5 53.5t-276.5 -53.5t-220.5 -146.5t-145.5 -222t-52 -280t52 -278.5t145.5 -222t220.5 -147.5t276.5 -53t276.5 53t220 147.5t146.5 222t53.5 278.5zM1628 740q0 -163 -58.5 -302t-160.5 -241.5t-241.5 -161t-303.5 -58.5t-303 58.5t-240.5 161t-160 242
t-58.5 301.5t58.5 302t160 242t240.5 159.5t303 57.5t303.5 -57.5t241.5 -159.5t160.5 -241.5t58.5 -302.5z" />
    <glyph glyph-name="ordfeminine" unicode="&#xaa;" horiz-adv-x="620" 
d="M451 1198q-218 0 -276 -47t-58 -103t46 -87t122 -31t121 61t45 158v49zM295 1503q111 0 169 -48.5t55 -160.5t-3 -187t4 -124l8 -98h-63q0 48 -4 94q-79 -107 -208 -107q-130 0 -166 68t-36 124t35 96t113 68t252 23v33q0 88 -34.5 126t-108.5 38t-114 -24.5t-51 -90.5
h-67q30 170 219 170z" />
    <glyph glyph-name="guillemotleft" unicode="&#xab;" horiz-adv-x="917" 
d="M354 135l-198 402l198 395h72l-184 -402l186 -395h-74zM690 135l-201 402l201 395h72l-187 -402l187 -395h-72z" />
    <glyph glyph-name="logicalnot" unicode="&#xac;" horiz-adv-x="1296" 
d="M1071 266v379h-926v78h1008v-457h-82z" />
    <glyph glyph-name="uni00AD" unicode="&#xad;" horiz-adv-x="622" 
d="M57 512v74h508v-74h-508z" />
    <glyph glyph-name="registered" unicode="&#xae;" horiz-adv-x="796" 
d="M403 1118q111 0 111 74q0 68 -96 68h-109v-142h94zM506 982q0 50 -23.5 71.5t-83.5 21.5h-90v-166h-51v398h145q164 0 164 -115q0 -70 -71 -96q41 -16 52 -45t11 -75t14 -67h-55q-12 23 -12 73zM630.5 1339.5q-96.5 96.5 -230.5 96.5t-231 -97.5t-97 -232.5t95 -233.5
t232 -98.5t232.5 98.5t95.5 234.5t-96.5 232.5zM665.5 841.5q-108.5 -112.5 -265.5 -112.5t-266 111t-109 268t110 265t264 108t264.5 -109t110.5 -264q0 -154 -108.5 -266.5z" />
    <glyph glyph-name="macron" unicode="&#xaf;" horiz-adv-x="512" 
d="M29 1333v74h454v-74h-454z" />
    <glyph glyph-name="degree" unicode="&#xb0;" horiz-adv-x="737" 
d="M598 1210.5q0 49.5 -17.5 90t-47 71.5t-69.5 48.5t-87 17.5t-87 -17.5t-70 -48.5t-47 -71.5t-17 -90t17 -90.5t47 -71.5t70 -48t87 -17.5t87 17.5t69.5 48t47 71.5t17.5 90.5zM670 1210.5q0 -61.5 -22.5 -114t-62.5 -92t-93.5 -62t-115 -22.5t-114.5 22.5t-93 62
t-62.5 92t-22.5 114t22.5 114.5t62.5 93t93 62.5t114.5 22.5t115 -22.5t93.5 -62.5t62.5 -93t22.5 -114.5z" />
    <glyph glyph-name="plusminus" unicode="&#xb1;" horiz-adv-x="1296" 
d="M145 0v78h1008v-78h-1008zM690 553v-381h-84v381h-461v78h461v381h84v-381h463v-78h-463z" />
    <glyph glyph-name="twosuperior" unicode="&#xb2;" horiz-adv-x="720" 
d="M92 961v65l230 225q127 121 167 180q40 60 51 96t11 75q0 76 -50 122t-137 45q-88 0 -142 -51t-54 -137h-72q2 115 76 181t189 67q115 0 189 -57q74 -56 73 -160t-61 -190t-179 -199l-203 -201h451v-61h-539z" />
    <glyph glyph-name="threesuperior" unicode="&#xb3;" horiz-adv-x="720" 
d="M465 1407q174 -35 174 -223q0 -104 -80 -168t-205 -64q-126 0 -200 64t-80 174h69q7 -90 67 -134t152 -44t150 50q57 50 57 138t-56 132t-148 44q-36 0 -50 -4v66q7 -2 25 -2h27q80 0 133 43t53 127t-56 124q-55 40 -145 40t-141 -48q-51 -47 -57 -125h-70q4 109 81 170
t193 61t190 -55q75 -56 75 -171q0 -82 -44 -130t-114 -65z" />
    <glyph glyph-name="acute" unicode="&#xb4;" horiz-adv-x="512" 
d="M213 1214h-61l184 293h110z" />
    <glyph glyph-name="mu" unicode="&#xb5;" horiz-adv-x="1124" 
d="M967 309q0 -145 4 -309h-84v207q-33 -94 -117 -156.5t-203 -62.5q-210 0 -299 174v-551h-82v1423h82v-594q0 -270 108.5 -324.5t188.5 -54.5q157 0 237.5 109.5t80.5 296.5v567h84v-725z" />
    <glyph glyph-name="paragraph" unicode="&#xb6;" horiz-adv-x="1212" 
d="M905 0v1409h-272v-1409h-84v653q-203 6 -316.5 103.5t-113.5 303.5t142.5 313.5t367.5 107.5h362v-1481h-86z" />
    <glyph glyph-name="periodcentered" unicode="&#xb7;" horiz-adv-x="561" 
d="M225 608v137h111v-137h-111z" />
    <glyph glyph-name="cedilla" unicode="&#xb8;" horiz-adv-x="512" 
d="M371 -236q0 82 -115 82q-31 0 -59 -4l51 166h41l-33 -114h47q47 0 95 -27.5t48 -95.5q0 -138 -186 -138q-90 0 -199 48l15 45q47 -23 88 -36.5t101 -13.5t83 29t23 59z" />
    <glyph glyph-name="onesuperior" unicode="&#xb9;" horiz-adv-x="720" 
d="M422 1821v-860h-70v784q-78 -68 -198 -125v66q110 52 200 135h68z" />
    <glyph glyph-name="ordmasculine" unicode="&#xba;" horiz-adv-x="688" 
d="M559 1191q0 50 -13.5 96t-40 81t-67.5 55.5t-120.5 20.5t-134 -72t-54.5 -181t54.5 -187t185 -78t160.5 107.5t30 157.5zM556 956q-71 -90 -209 -90q-139 0 -212.5 90t-73.5 228t72 228.5t210 90.5t211 -90t73 -229q0 -138 -71 -228z" />
    <glyph glyph-name="guillemotright" unicode="&#xbb;" horiz-adv-x="917" 
d="M227 135h-71l186 400l-186 397h71l201 -402zM565 135h-73l186 400l-189 397h76l197 -402z" />
    <glyph glyph-name="onequarter" unicode="&#xbc;" horiz-adv-x="1781" 
d="M1475 260v510l-351 -510h351zM410 1481v-860h-68v786q-71 -65 -199 -127v68q116 55 201 133h66zM444 -49h-84l922 1583h78zM1542 201v-201h-67v201h-422v59l415 598h74v-598h137v-59h-137z" />
    <glyph glyph-name="onehalf" unicode="&#xbd;" horiz-adv-x="1759" 
d="M401 1481v-860h-69v786q-71 -65 -199 -127v68q116 55 201 133h67zM434 -49h-84l924 1581h78zM1092 0v68q75 69 86 80l124 124q113 113 178.5 205t65.5 167t-51 119t-134 44t-138.5 -49t-53.5 -135h-73q2 115 75.5 180t187.5 65t187.5 -57t73.5 -149t-49 -173t-99 -135
t-85 -89.5t-71 -71t-71 -68.5t-61 -59h446v-66h-538z" />
    <glyph glyph-name="threequarters" unicode="&#xbe;" horiz-adv-x="1781" 
d="M1513 260v510l-352 -510h352zM367 1427q-187 0 -207 -172h-68q4 106 83 169t196 63t197.5 -61t80.5 -171q0 -78 -49 -124t-121 -68q74 -18 130.5 -67.5t56.5 -129.5q0 -135 -88.5 -197.5t-211.5 -62.5q-122 0 -200 63.5t-84 174.5h70q15 -178 217 -178q155 0 191 68.5
t36 115.5q0 92 -59.5 136t-151.5 44h-53v64q14 -2 18 -2h37q78 0 135.5 44t57.5 121q0 125 -86 147.5t-127 22.5zM496 -49h-82l921 1583h78zM1581 201v-201h-70v201h-421v59l415 598h76v-598h135v-59h-135z" />
    <glyph glyph-name="questiondown" unicode="&#xbf;" horiz-adv-x="1040" 
d="M201 -82q0 182 142.5 316.5t184.5 175.5t53 75.5t11 79.5v168h78v-151q0 -41 -2 -80t-30 -85t-86 -96.5t-116.5 -110.5t-103.5 -131t-45 -152q0 -147 90 -220.5t231 -73.5q93 0 203 29v-80q-94 -20 -186 -20q-195 0 -309.5 87t-114.5 269zM578 930v133h104v-133h-104z
" />
    <glyph glyph-name="Agrave" unicode="&#xc0;" horiz-adv-x="1349" 
d="M657 1384l-348 -868h709zM1237 0l-184 440h-772l-175 -440h-94l604 1481h86l635 -1481h-100zM700 1593l-231 293h109l184 -293h-62z" />
    <glyph glyph-name="Aacute" unicode="&#xc1;" horiz-adv-x="1349" 
d="M657 1384l-348 -868h709zM1237 0l-184 440h-772l-175 -440h-94l604 1481h86l635 -1481h-100zM616 1593h-61l184 293h111z" />
    <glyph glyph-name="Acircumflex" unicode="&#xc2;" horiz-adv-x="1349" 
d="M657 1384l-348 -868h709zM1237 0l-184 440h-772l-175 -440h-94l604 1481h86l635 -1481h-100zM850 1591l-188 234l-197 -234h-64l209 295h103l200 -295h-63z" />
    <glyph glyph-name="Atilde" unicode="&#xc3;" horiz-adv-x="1349" 
d="M657 1384l-348 -868h709zM1237 0l-184 440h-772l-175 -440h-94l604 1481h86l635 -1481h-100zM561 1798q55 0 101 -20t103 -20q56 0 87 65h59q-16 -55 -53 -97t-93 -43q-57 0 -107 22q-50 21 -92 21t-62 -12t-37 -47h-59q14 59 56 95t97 36z" />
    <glyph glyph-name="Adieresis" unicode="&#xc4;" horiz-adv-x="1349" 
d="M657 1384l-348 -868h709zM1237 0l-184 440h-772l-175 -440h-94l604 1481h86l635 -1481h-100zM453 1683v134h94v-134h-94zM768 1683v134h94v-134h-94z" />
    <glyph glyph-name="Aring" unicode="&#xc5;" horiz-adv-x="1349" 
d="M657 1384l-348 -868h709zM1237 0l-184 440h-772l-175 -440h-94l604 1481h86l635 -1481h-100zM541 1687q0 -54 32 -91q33 -36 86 -36t86 36t33 90t-33 91q-33 35 -86 35t-86 -35q-32 -36 -32 -90zM485 1686q1 74 51 124t124 50t124 -50q52 -50 52 -124t-52 -124t-125 -50
q-74 0 -124 50t-50 124z" />
    <glyph glyph-name="AE" unicode="&#xc6;" horiz-adv-x="1984" 
d="M1092 502q-6 31 -18.5 101.5t-29 160.5t-55.5 312.5t-59 324.5q-44 -66 -129.5 -209t-147 -245.5t-117 -193.5t-96.5 -160t-55 -91h707zM1855 1481v-80h-833l106 -592h697v-78h-684l116 -651h629v-80h-704l-78 428h-766l-256 -428h-96l888 1481h981z" />
    <glyph glyph-name="Ccedilla" unicode="&#xc7;" horiz-adv-x="1310" 
d="M813 -236q0 82 -115 82q-31 0 -59 -4l43 140q-287 15 -427 224t-140 525t111.5 475.5t229 227t285.5 67.5t306 -94t149 -260h-92q-22 137 -129.5 206.5t-243.5 69.5q-135 0 -235.5 -63.5t-194.5 -209t-94 -421.5t125.5 -475t396.5 -199q132 0 237.5 71t137.5 204h94
q-35 -162 -165.5 -256t-309.5 -94l-25 -86h48q47 0 95 -28t48 -82q0 -89 -54.5 -120t-139.5 -31t-191 48l14 45q47 -23 88.5 -36.5t101.5 -13.5t82.5 29t22.5 59z" />
    <glyph glyph-name="Egrave" unicode="&#xc8;" horiz-adv-x="1200" 
d="M221 0v1481h850v-76h-764v-592h737v-76h-737v-661h797v-76h-883zM707 1593l-232 293h109l184 -293h-61z" />
    <glyph glyph-name="Eacute" unicode="&#xc9;" horiz-adv-x="1200" 
d="M221 0v1481h850v-76h-764v-592h737v-76h-737v-661h797v-76h-883zM623 1593h-62l184 293h111z" />
    <glyph glyph-name="Ecircumflex" unicode="&#xca;" horiz-adv-x="1200" 
d="M221 0v1481h850v-76h-764v-592h737v-76h-737v-661h797v-76h-883zM856 1591l-188 234l-197 -234h-63l208 295h103l201 -295h-64z" />
    <glyph glyph-name="Edieresis" unicode="&#xcb;" horiz-adv-x="1200" 
d="M221 0v1481h850v-76h-764v-592h737v-76h-737v-661h797v-76h-883zM459 1683v134h94v-134h-94zM774 1683v134h94v-134h-94z" />
    <glyph glyph-name="Igrave" unicode="&#xcc;" horiz-adv-x="528" 
d="M221 0v1481h86v-1481h-86zM305 1593l-231 293h108l185 -293h-62z" />
    <glyph glyph-name="Iacute" unicode="&#xcd;" horiz-adv-x="528" 
d="M221 0v1481h86v-1481h-86zM221 1593h-61l184 293h111z" />
    <glyph glyph-name="Icircumflex" unicode="&#xce;" horiz-adv-x="528" 
d="M221 0v1481h86v-1481h-86zM455 1591l-189 234l-196 -234h-64l209 295h102l201 -295h-63z" />
    <glyph glyph-name="Idieresis" unicode="&#xcf;" horiz-adv-x="528" 
d="M221 0v1481h86v-1481h-86zM57 1683v134h95v-134h-95zM373 1683v134h94v-134h-94z" />
    <glyph glyph-name="Eth" unicode="&#xd0;" horiz-adv-x="1456" 
d="M1253 764q0 380 -233 543q-143 98 -428 98h-285v-543h443v-69h-443v-717h281q518 0 591.5 258t73.5 430zM1341 726q0 -306 -150.5 -490.5t-416.5 -221.5q-103 -14 -239 -14h-314v793h-147v69h147v619h369q176 0 305 -33q215 -55 330.5 -235.5t115.5 -486.5z" />
    <glyph glyph-name="Ntilde" unicode="&#xd1;" horiz-adv-x="1503" 
d="M303 0h-82v1481h113l866 -1370v1370h82v-1481h-113l-866 1368v-1368zM874 1683q-56 0 -107 22q-50 21 -92 21q-43 0 -63 -12t-37 -47h-59q14 59 56 95t98 36t101 -20q46 -20 103 -20t87 65h59q-16 -55 -53 -97t-93 -43z" />
    <glyph glyph-name="Ograve" unicode="&#xd2;" horiz-adv-x="1501" 
d="M1294 749q0 470 -283 622q-103 56 -253 56t-252 -57q-206 -114 -267 -371q-30 -123 -30 -252q0 -286 126 -475q148 -217 420 -218t415 218q124 187 124 477zM1243 1284q143 -192 143 -527t-148 -543q-169 -237 -484 -237t-487 234q-152 204 -152 530t153 535
q170 227 493 227t482 -219zM799 1593l-232 293h109l184 -293h-61z" />
    <glyph glyph-name="Oacute" unicode="&#xd3;" horiz-adv-x="1501" 
d="M1294 749q0 470 -283 622q-103 56 -253 56t-252 -57q-206 -114 -267 -371q-30 -123 -30 -252q0 -286 126 -475q148 -217 420 -218t415 218q124 187 124 477zM1243 1284q143 -192 143 -527t-148 -543q-169 -237 -484 -237t-487 234q-152 204 -152 530t153 535
q170 227 493 227t482 -219zM715 1593h-62l185 293h110z" />
    <glyph glyph-name="Ocircumflex" unicode="&#xd4;" horiz-adv-x="1501" 
d="M1294 749q0 470 -283 622q-103 56 -253 56t-252 -57q-206 -114 -267 -371q-30 -123 -30 -252q0 -286 126 -475q148 -217 420 -218t415 218q124 187 124 477zM1243 1284q143 -192 143 -527t-148 -543q-169 -237 -484 -237t-487 234q-152 204 -152 530t153 535
q170 227 493 227t482 -219zM948 1591l-188 234l-197 -234h-63l209 295h102l201 -295h-64z" />
    <glyph glyph-name="Otilde" unicode="&#xd5;" horiz-adv-x="1501" 
d="M1294 749q0 470 -283 622q-103 56 -253 56t-252 -57q-206 -114 -267 -371q-30 -123 -30 -252q0 -286 126 -475q148 -217 420 -218t415 218q124 187 124 477zM1243 1284q143 -192 143 -527t-148 -543q-169 -237 -484 -237t-487 234q-152 204 -152 530t153 535
q170 227 493 227t482 -219zM863 1683q-56 0 -106 22q-50 21 -92 21q-43 0 -63 -12t-37 -47h-59q14 59 56 95t98 36t101 -20q46 -20 102 -20t87 65h60q-16 -55 -54 -97t-93 -43z" />
    <glyph glyph-name="Odieresis" unicode="&#xd6;" horiz-adv-x="1501" 
d="M1294 749q0 470 -283 622q-103 56 -253 56t-252 -57q-206 -114 -267 -371q-30 -123 -30 -252q0 -286 126 -475q148 -217 420 -218t415 218q124 187 124 477zM1243 1284q143 -192 143 -527t-148 -543q-169 -237 -484 -237t-487 234q-152 204 -152 530t153 535
q170 227 493 227t482 -219zM551 1683v134h94v-134h-94zM866 1683v134h95v-134h-95z" />
    <glyph glyph-name="multiply" unicode="&#xd7;" horiz-adv-x="1296" 
d="M707 496l411 -412l-57 -59l-412 411l-413 -409l-60 55l414 414l-414 411l60 60l413 -412l410 410l61 -58z" />
    <glyph glyph-name="Oslash" unicode="&#xd8;" horiz-adv-x="1501" 
d="M1257 1264q129 -190 129 -516t-158.5 -548.5t-473.5 -222.5q-282 0 -451 191l-160 -182l-49 43l166 190q-145 202 -145 527t161.5 541t470.5 216t470 -186l161 184l49 -43zM1160.5 257q133.5 204 133.5 484t-98 451l-834 -956q144 -183 404 -183q261 0 394.5 204z
M344.5 1232q-135.5 -195 -135.5 -474t115 -467l833 956q-135 180 -406 180t-406.5 -195z" />
    <glyph glyph-name="Ugrave" unicode="&#xd9;" horiz-adv-x="1478" 
d="M1286 547q0 -269 -136 -417t-408 -148t-410 142q-139 142 -139 423v934h90v-906q0 -98 14 -187t66 -168q51 -79 149 -121t236 -42q138 -1 244 55t156 162q48 106 48 301v906h90v-934zM784 1593l-231 293h109l184 -293h-62z" />
    <glyph glyph-name="Uacute" unicode="&#xda;" horiz-adv-x="1478" 
d="M1286 547q0 -269 -136 -417t-408 -148t-410 142q-139 142 -139 423v934h90v-906q0 -98 14 -187t66 -168q51 -79 149 -121t236 -42q138 -1 244 55t156 162q48 106 48 301v906h90v-934zM700 1593h-61l184 293h111z" />
    <glyph glyph-name="Ucircumflex" unicode="&#xdb;" horiz-adv-x="1478" 
d="M1286 547q0 -269 -136 -417t-408 -148t-410 142q-139 142 -139 423v934h90v-906q0 -98 14 -187t66 -168q51 -79 149 -121t236 -42q138 -1 244 55t156 162q48 106 48 301v906h90v-934zM934 1591l-189 234l-196 -234h-64l209 295h103l200 -295h-63z" />
    <glyph glyph-name="Udieresis" unicode="&#xdc;" horiz-adv-x="1478" 
d="M1286 547q0 -269 -136 -417t-408 -148t-410 142q-139 142 -139 423v934h90v-906q0 -98 14 -187t66 -168q51 -79 149 -121t236 -42q138 -1 244 55t156 162q48 106 48 301v906h90v-934zM537 1683v134h94v-134h-94zM852 1683v134h94v-134h-94z" />
    <glyph glyph-name="Yacute" unicode="&#xdd;" horiz-adv-x="1218" 
d="M641 0h-86v655l-575 826h104l518 -750l514 750h98l-573 -828v-653zM555 1593h-61l184 293h110z" />
    <glyph glyph-name="Thorn" unicode="&#xde;" horiz-adv-x="1179" 
d="M614 1104h-307v-651h230q188 0 280 29t146.5 118t54.5 187q0 179 -107.5 248t-296.5 69zM307 0h-86v1481h86v-303h305q246 0 371 -87t125 -309q0 -131 -88.5 -259t-278 -138t-211.5 -10h-59l-164 2v-377z" />
    <glyph glyph-name="germandbls" unicode="&#xdf;" horiz-adv-x="1181" 
d="M1017.5 74q-96.5 -86 -238.5 -86t-223 83t-83 216h82q0 -104 59.5 -167t163.5 -63q165 0 208.5 91.5t43.5 153.5t-33.5 108.5t-84 81t-109 63.5t-108.5 63.5t-83.5 79t-33.5 106.5t38.5 112.5t85 97.5t85 93t38.5 100q0 101 -73.5 158.5t-177.5 57.5q-103 0 -203 -67.5
t-103.5 -192.5t-3.5 -133v-1030h-82v932q0 70 1 148t17 146t52.5 116.5t85.5 82t110.5 51t163 17.5t197.5 -75t96 -212q0 -68 -39 -119t-85 -96t-84 -88t-38 -93t34 -85t84 -64.5t109.5 -59.5t143.5 -95.5t84 -205.5t-96.5 -226z" />
    <glyph glyph-name="agrave" unicode="&#xe0;" horiz-adv-x="1060" 
d="M469 43q119 0 187 48q124 87 143 257q8 74 8 127v76l-115 2q-211 0 -305 -33q-201 -70 -201 -222q-1 -196 176 -242q51 -13 107 -13zM887 312q0 -75 14 -312h-74l-10 213q-45 -125 -143 -180q-155 -87 -342 -40q-134 32 -196 142q-32 57 -32 153t52 164t130 104
q131 60 363 60h83q42 0 75 -2v78q1 139 -63 215t-216 76q-104 0 -176 -44t-86 -163h-80q4 134 100 203q96 70 242 71q148 0 228 -50t106 -131t27 -185v-49l-2 -158v-165zM584 1214l-232 293h109l184 -293h-61z" />
    <glyph glyph-name="aacute" unicode="&#xe1;" horiz-adv-x="1060" 
d="M469 43q119 0 187 48q124 87 143 257q8 74 8 127v76l-115 2q-211 0 -305 -33q-201 -70 -201 -222q-1 -196 176 -242q51 -13 107 -13zM887 312q0 -75 14 -312h-74l-10 213q-45 -125 -143 -180q-155 -87 -342 -40q-134 32 -196 142q-32 57 -32 153t52 164t130 104
q131 60 363 60h83q42 0 75 -2v78q1 139 -63 215t-216 76q-104 0 -176 -44t-86 -163h-80q4 134 100 203q96 70 242 71q148 0 228 -50t106 -131t27 -185v-49l-2 -158v-165zM496 1214h-62l184 293h111z" />
    <glyph glyph-name="acircumflex" unicode="&#xe2;" horiz-adv-x="1060" 
d="M469 43q119 0 187 48q124 87 143 257q8 74 8 127v76l-115 2q-211 0 -305 -33q-201 -70 -201 -222q-1 -196 176 -242q51 -13 107 -13zM887 312q0 -75 14 -312h-74l-10 213q-45 -125 -143 -180q-155 -87 -342 -40q-134 32 -196 142q-32 57 -32 153t52 164t130 104
q131 60 363 60h83q42 0 75 -2v78q1 139 -63 215t-216 76q-104 0 -176 -44t-86 -163h-80q4 134 100 203q96 70 242 71q148 0 228 -50t106 -131t27 -185v-49l-2 -158v-165zM731 1214l-188 234l-197 -234h-63l209 295h102l201 -295h-64z" />
    <glyph glyph-name="atilde" unicode="&#xe3;" horiz-adv-x="1060" 
d="M469 43q119 0 187 48q124 87 143 257q8 74 8 127v76l-115 2q-211 0 -305 -33q-201 -70 -201 -222q-1 -196 176 -242q51 -13 107 -13zM887 312q0 -75 14 -312h-74l-10 213q-45 -125 -143 -180q-155 -87 -342 -40q-134 32 -196 142q-32 57 -32 153t52 164t130 104
q131 60 363 60h83q42 0 75 -2v78q1 139 -63 215t-216 76q-104 0 -176 -44t-86 -163h-80q4 134 100 203q96 70 242 71q148 0 228 -50t106 -131t27 -185v-49l-2 -158v-165zM644 1305q-56 -1 -106 21t-92 22t-63 -12q-20 -12 -37 -48h-59q14 59 56 95q41 36 97 36t102 -20
q46 -21 102 -21t87 66h60q-15 -55 -53 -97t-94 -42z" />
    <glyph glyph-name="adieresis" unicode="&#xe4;" horiz-adv-x="1060" 
d="M469 43q119 0 187 48q124 87 143 257q8 74 8 127v76l-115 2q-211 0 -305 -33q-201 -70 -201 -222q-1 -196 176 -242q51 -13 107 -13zM887 312q0 -75 14 -312h-74l-10 213q-45 -125 -143 -180q-155 -87 -342 -40q-134 32 -196 142q-32 57 -32 153t52 164t130 104
q131 60 363 60h83q42 0 75 -2v78q1 139 -63 215t-216 76q-104 0 -176 -44t-86 -163h-80q4 134 100 203q96 70 242 71q148 0 228 -50t106 -131t27 -185v-49l-2 -158v-165zM334 1346v133h94v-133h-94zM649 1346v133h94v-133h-94z" />
    <glyph glyph-name="aring" unicode="&#xe5;" horiz-adv-x="1060" 
d="M469 43q119 0 187 48q124 87 143 257q8 74 8 127v76l-115 2q-211 0 -305 -33q-201 -70 -201 -222q-1 -196 176 -242q51 -13 107 -13zM887 312q0 -75 14 -312h-74l-10 213q-45 -125 -143 -180q-155 -87 -342 -40q-134 32 -196 142q-32 57 -32 153t52 164t130 104
q131 60 363 60h83q42 0 75 -2v78q1 139 -63 215t-216 76q-104 0 -176 -44t-86 -163h-80q4 134 100 203q96 70 242 71q148 0 228 -50t106 -131t27 -185v-49l-2 -158v-165zM420 1349q0 -55 33 -91t86 -36t86 36t33 90t-33 91q-33 36 -86 36t-86 -36t-33 -90zM365 1348
q0 74 50 124t124 50t125 -50t51 -124t-51 -124t-125 -50t-124 50t-50 124z" />
    <glyph glyph-name="ae" unicode="&#xe6;" horiz-adv-x="1675" 
d="M1179 979q-169 0 -238.5 -118.5t-80.5 -278.5h637q-7 273 -116 335t-202 62zM776 451v59h-235q-351 0 -351 -236q0 -108 81.5 -167.5t187.5 -59.5q317 0 317 404zM498 1051q297 0 331 -273q33 139 132.5 207t216.5 68q211 0 307 -141t96 -361v-41h-721v-35
q7 -284 117 -353t184 -69q131 0 214.5 73t97.5 191h88q-32 -236 -164.5 -288t-204.5 -52q-139 0 -238.5 74t-128.5 228q-26 -155 -126.5 -228.5t-241.5 -73.5t-247 77t-106 216q0 312 451 312h221v28q0 175 -55 273t-217 98q-220 0 -271 -205h-81q15 134 110.5 204.5
t235.5 70.5z" />
    <glyph glyph-name="ccedilla" unicode="&#xe7;" horiz-adv-x="1028" 
d="M649 -236q0 82 -114 82q-32 0 -60 -4l41 138q-202 16 -311 161.5t-109 374.5t122 386t357 157q164 0 266.5 -89t114.5 -249h-79q-12 129 -92 198.5t-198 69.5q-213 0 -309 -136t-96 -337t99.5 -336t285.5 -135q144 0 224.5 87t89.5 190h77q-12 -150 -118 -247.5
t-275 -97.5h-8l-22 -83h47q47 0 95 -28t48 -82q0 -89 -54.5 -120t-139.5 -31t-191 48l14 45q47 -23 88.5 -36.5t101.5 -13.5t82.5 29t22.5 59z" />
    <glyph glyph-name="egrave" unicode="&#xe8;" horiz-adv-x="1042" 
d="M786 866q-86 117 -248 117t-252 -119q-91 -119 -104 -286h682v24q-5 167 -78 264zM180 512v-31q0 -181 95 -310q95 -128 272 -128q135 0 210 72t105 209h80q-35 -168 -132 -257t-271 -90q-223 0 -333 147t-110 379t107 380q122 168 341 168q220 0 322 -168
q82 -135 82 -342v-29h-768zM590 1214l-232 293h109l184 -293h-61z" />
    <glyph glyph-name="eacute" unicode="&#xe9;" horiz-adv-x="1042" 
d="M786 866q-86 117 -248 117t-252 -119q-91 -119 -104 -286h682v24q-5 167 -78 264zM180 512v-31q0 -181 95 -310q95 -128 272 -128q135 0 210 72t105 209h80q-35 -168 -132 -257t-271 -90q-223 0 -333 147t-110 379t107 380q122 168 341 168q220 0 322 -168
q82 -135 82 -342v-29h-768zM502 1214h-62l185 293h110z" />
    <glyph glyph-name="ecircumflex" unicode="&#xea;" horiz-adv-x="1042" 
d="M786 866q-86 117 -248 117t-252 -119q-91 -119 -104 -286h682v24q-5 167 -78 264zM180 512v-31q0 -181 95 -310q95 -128 272 -128q135 0 210 72t105 209h80q-35 -168 -132 -257t-271 -90q-223 0 -333 147t-110 379t107 380q122 168 341 168q220 0 322 -168
q82 -135 82 -342v-29h-768zM737 1214l-188 234l-197 -234h-63l209 295h102l201 -295h-64z" />
    <glyph glyph-name="edieresis" unicode="&#xeb;" horiz-adv-x="1042" 
d="M786 866q-86 117 -248 117t-252 -119q-91 -119 -104 -286h682v24q-5 167 -78 264zM180 512v-31q0 -181 95 -310q95 -128 272 -128q135 0 210 72t105 209h80q-35 -168 -132 -257t-271 -90q-223 0 -333 147t-110 379t107 380q122 168 341 168q220 0 322 -168
q82 -135 82 -342v-29h-768zM340 1346v133h94v-133h-94zM655 1346v133h95v-133h-95z" />
    <glyph glyph-name="igrave" unicode="&#xec;" horiz-adv-x="442" 
d="M180 0v1036h82v-1036h-82zM270 1214l-231 293h108l185 -293h-62z" />
    <glyph glyph-name="iacute" unicode="&#xed;" horiz-adv-x="442" 
d="M180 0v1036h82v-1036h-82zM182 1214h-61l184 293h111z" />
    <glyph glyph-name="icircumflex" unicode="&#xee;" horiz-adv-x="442" 
d="M180 0v1036h82v-1036h-82zM416 1214l-189 234l-196 -234h-64l209 295h103l200 -295h-63z" />
    <glyph glyph-name="idieresis" unicode="&#xef;" horiz-adv-x="442" 
d="M180 0v1036h82v-1036h-82zM18 1346v133h95v-133h-95zM334 1346v133h94v-133h-94z" />
    <glyph glyph-name="eth" unicode="&#xf0;" horiz-adv-x="1116" 
d="M830 820q-96 124 -277 124t-273 -129.5t-92 -319.5t91.5 -316t273.5 -126t277.5 129.5t95.5 321.5t-96 316zM1020 571q0 -326 -145 -460t-320 -134q-225 0 -342 146t-117 368t117.5 373.5t333.5 151.5q147 0 245.5 -73t143.5 -206q-55 432 -336 621l-201 -117l-43 43
l187 109q-85 48 -213 82l26 59q137 -31 258 -100l205 118l45 -39l-194 -112q190 -128 270 -350t80 -480z" />
    <glyph glyph-name="ntilde" unicode="&#xf1;" horiz-adv-x="1132" 
d="M961 0h-82v596q0 183 -38 250t-92 97q-53 30 -135 30q-212 0 -301 -174q-51 -100 -51 -260v-539h-82v888q0 75 -4 148h80l2 -116q0 -37 1 -70t1 -47q47 117 138 180t210 64q180 1 266 -97t87 -305v-645zM677 1305q-57 -1 -107 21t-92 22t-62 -12t-37 -48h-60q15 59 57 95
t97 36t101 -20q46 -21 103 -21t87 66h59q-16 -55 -53 -97t-93 -42z" />
    <glyph glyph-name="ograve" unicode="&#xf2;" 
d="M844 850q-96 133 -281 133t-283 -131t-98 -326t96 -338t282 -143t289 152q91 135 91 327q0 193 -96 326zM1026 532q0 -227 -122 -390t-344 -164t-343 157t-121 386q0 229 122 381q122 151 347 151t343 -147t118 -374zM610 1214l-231 293h108l185 -293h-62z" />
    <glyph glyph-name="oacute" unicode="&#xf3;" 
d="M844 850q-96 133 -281 133t-283 -131t-98 -326t96 -338t282 -143t289 152q91 135 91 327q0 193 -96 326zM1026 532q0 -227 -122 -390t-344 -164t-343 157t-121 386q0 229 122 381q122 151 347 151t343 -147t118 -374zM522 1214h-61l184 293h111z" />
    <glyph glyph-name="ocircumflex" unicode="&#xf4;" 
d="M844 850q-96 133 -281 133t-283 -131t-98 -326t96 -338t282 -143t289 152q91 135 91 327q0 193 -96 326zM1026 532q0 -227 -122 -390t-344 -164t-343 157t-121 386q0 229 122 381q122 151 347 151t343 -147t118 -374zM758 1214l-189 234l-196 -234h-64l209 295h103
l200 -295h-63z" />
    <glyph glyph-name="otilde" unicode="&#xf5;" 
d="M844 850q-96 133 -281 133t-283 -131t-98 -326t96 -338t282 -143t289 152q91 135 91 327q0 193 -96 326zM1026 532q0 -227 -122 -390t-344 -164t-343 157t-121 386q0 229 122 381q122 151 347 151t343 -147t118 -374zM671 1305q-57 -1 -107 21t-92 22t-62 -12t-37 -48
h-60q15 59 57 95t97 36t101 -20q46 -21 103 -21t87 66h59q-16 -55 -53 -97t-93 -42z" />
    <glyph glyph-name="odieresis" unicode="&#xf6;" 
d="M844 850q-96 133 -281 133t-283 -131t-98 -326t96 -338t282 -143t289 152q91 135 91 327q0 193 -96 326zM1026 532q0 -227 -122 -390t-344 -164t-343 157t-121 386q0 229 122 381q122 151 347 151t343 -147t118 -374zM360 1346v133h95v-133h-95zM676 1346v133h94v-133
h-94z" />
    <glyph glyph-name="divide" unicode="&#xf7;" horiz-adv-x="1296" 
d="M598 61v150h102v-150h-102zM145 457v78h1008v-78h-1008zM598 778v150h100v-150h-100z" />
    <glyph glyph-name="oslash" unicode="&#xf8;" 
d="M936 868q90 -134 90 -351t-123.5 -378.5t-338.5 -161.5t-339 146l-129 -135l-43 41l137 143q-94 148 -94 363t122 366.5t342 151.5t339 -138l133 140l41 -41zM283 184q104 -139 283 -139q180 0 277 142.5t97 323.5t-66 294zM842 854q-103 129 -283 129t-278.5 -131.5
t-98.5 -312.5t68 -303z" />
    <glyph glyph-name="ugrave" unicode="&#xf9;" horiz-adv-x="1130" 
d="M950 297q0 -180 6 -297h-82l-2 117q0 37 -1 69t-1 47q-47 -117 -138 -181t-210 -64q-350 0 -350 401v647h82v-596q0 -172 49 -262q64 -117 214 -117t232 82q107 109 117 280q2 36 2 73v540h82v-739zM610 1214l-231 293h108l185 -293h-62z" />
    <glyph glyph-name="uacute" unicode="&#xfa;" horiz-adv-x="1130" 
d="M950 297q0 -180 6 -297h-82l-2 117q0 37 -1 69t-1 47q-47 -117 -138 -181t-210 -64q-350 0 -350 401v647h82v-596q0 -172 49 -262q64 -117 214 -117t232 82q107 109 117 280q2 36 2 73v540h82v-739zM522 1214h-61l184 293h111z" />
    <glyph glyph-name="ucircumflex" unicode="&#xfb;" horiz-adv-x="1130" 
d="M950 297q0 -180 6 -297h-82l-2 117q0 37 -1 69t-1 47q-47 -117 -138 -181t-210 -64q-350 0 -350 401v647h82v-596q0 -172 49 -262q64 -117 214 -117t232 82q107 109 117 280q2 36 2 73v540h82v-739zM758 1214l-189 234l-196 -234h-64l209 295h103l200 -295h-63z" />
    <glyph glyph-name="udieresis" unicode="&#xfc;" horiz-adv-x="1130" 
d="M950 297q0 -180 6 -297h-82l-2 117q0 37 -1 69t-1 47q-47 -117 -138 -181t-210 -64q-350 0 -350 401v647h82v-596q0 -172 49 -262q64 -117 214 -117t232 82q107 109 117 280q2 36 2 73v540h82v-739zM360 1346v133h95v-133h-95zM676 1346v133h94v-133h-94z" />
    <glyph glyph-name="yacute" unicode="&#xfd;" horiz-adv-x="985" 
d="M387 -389h-86l164 399l-428 1026h96l371 -911l360 911h84zM461 1214h-62l185 293h110z" />
    <glyph glyph-name="thorn" unicode="&#xfe;" horiz-adv-x="1148" 
d="M879.5 842q-87.5 141 -263.5 141t-263 -135.5t-87 -328t84 -328.5t262 -136q179 0 267 135.5t88 323.5q0 187 -87.5 328zM262 788q110 263 348 263q225 0 334 -153.5t109 -374t-111.5 -379t-320.5 -158.5q-255 0 -359 256v-631h-82v1870h82v-693z" />
    <glyph glyph-name="ydieresis" unicode="&#xff;" horiz-adv-x="985" 
d="M387 -389h-86l164 399l-428 1026h96l371 -911l360 911h84zM299 1346v133h94v-133h-94zM614 1346v133h95v-133h-95z" />
    <glyph glyph-name="Amacron" unicode="&#x100;" horiz-adv-x="1349" 
d="M657 1384l-348 -868h709zM1237 0l-184 440h-772l-175 -440h-94l604 1481h86l635 -1481h-100zM432 1688v73h455v-73h-455z" />
    <glyph glyph-name="amacron" unicode="&#x101;" horiz-adv-x="1060" 
d="M469 43q119 0 187 48q124 87 143 257q8 74 8 127v76l-115 2q-211 0 -305 -33q-201 -70 -201 -222q-1 -196 176 -242q51 -13 107 -13zM887 312q0 -75 14 -312h-74l-10 213q-45 -125 -143 -180q-155 -87 -342 -40q-134 32 -196 142q-32 57 -32 153t52 164t130 104
q131 60 363 60h83q42 0 75 -2v78q1 139 -63 215t-216 76q-104 0 -176 -44t-86 -163h-80q4 134 100 203q96 70 242 71q148 0 228 -50t106 -131t27 -185v-49l-2 -158v-165zM311 1333v74h455v-74h-455z" />
    <glyph glyph-name="Abreve" unicode="&#x102;" horiz-adv-x="1349" 
d="M657 1384l-348 -868h709zM1237 0l-184 440h-772l-175 -440h-94l604 1481h86l635 -1481h-100zM657 1686q159 0 205 133h58q-10 -85 -79 -143t-180 -58t-186 55q-74 55 -78 146h60q11 -62 70 -97q58 -36 130 -36z" />
    <glyph glyph-name="abreve" unicode="&#x103;" horiz-adv-x="1060" 
d="M469 43q119 0 187 48q124 87 143 257q8 74 8 127v76l-115 2q-211 0 -305 -33q-201 -70 -201 -222q-1 -196 176 -242q51 -13 107 -13zM887 312q0 -75 14 -312h-74l-10 213q-45 -125 -143 -180q-155 -87 -342 -40q-134 32 -196 142q-32 57 -32 153t52 164t130 104
q131 60 363 60h83q42 0 75 -2v78q1 139 -63 215t-216 76q-104 0 -176 -44t-86 -163h-80q4 134 100 203q96 70 242 71q148 0 228 -50t106 -131t27 -185v-49l-2 -158v-165zM537 1231q-169 0 -237 119q-22 37 -24 84h60q11 -63 69 -97q58 -35 132 -37q157 0 204 134h58
q-10 -86 -79 -144t-183 -59z" />
    <glyph glyph-name="Aogonek" unicode="&#x104;" horiz-adv-x="1349" 
d="M657 1384l-348 -868h709zM1250 -301q46 0 100 22l14 -38q-70 -35 -124 -35q-100 0 -153 36.5t-53 89.5q0 92 76 144q47 34 99.5 56t68.5 26h-41l-184 440h-772l-175 -440h-94l604 1481h86l635 -1481q-111 -47 -165 -94t-54 -102.5t43 -80t89 -24.5z" />
    <glyph glyph-name="aogonek" unicode="&#x105;" horiz-adv-x="1060" 
d="M267 102q81 -59 201 -59t188.5 48t109.5 132t41 252v76l-115 2q-212 0 -359 -52t-147 -196t81 -203zM816 -301q46 0 99 22l15 -38q-70 -35 -124 -35q-99 0 -152.5 36.5t-53.5 89.5q0 92 76 144q41 30 96 54t68 28h-13l-10 213q-45 -125 -143.5 -180.5t-214.5 -55.5
q-235 0 -295 108t-60 204t51.5 162.5t156 115.5t337.5 49h63q62 0 95 -2v78q0 139 -63.5 215t-215.5 76q-104 0 -175.5 -44t-86.5 -163h-80q4 134 101.5 204.5t242.5 70.5q146 -1 226 -51t106.5 -131t26.5 -185v-12l-1 -64v-212q-1 -160 13 -396q-111 -49 -164 -95
t-53 -101.5t43 -80t89 -24.5z" />
    <glyph glyph-name="Cacute" unicode="&#x106;" horiz-adv-x="1310" 
d="M331 1196q-124 -191 -124 -468t115 -457q135 -214 407 -216q132 0 238 72q107 72 137 203h94q-35 -165 -171 -260q-127 -92 -297 -91q-320 2 -475 228q-142 203 -141 520q1 318 148 530q76 109 194 177t286 68t305 -95q138 -94 149 -260h-92q-22 136 -129 206t-240 70
q-258 0 -404 -227zM682 1593h-61l184 293h110z" />
    <glyph glyph-name="cacute" unicode="&#x107;" horiz-adv-x="1028" 
d="M214 130q-118 144 -118 379t122 393q122 157 357 157q165 0 267 -89t114 -249h-79q-13 129 -93 199t-198 70q-212 -1 -308 -137t-96 -335q0 -198 98 -336q98 -137 287 -137q139 0 231 94q71 77 83 183h77q-12 -150 -118 -248q-106 -97 -290 -97q-102 0 -190 41t-146 112z
M516 1214h-61l184 293h111z" />
    <glyph glyph-name="Ccircumflex" unicode="&#x108;" horiz-adv-x="1310" 
d="M331 1196q-124 -191 -124 -468t115 -457q135 -214 407 -216q132 0 238 72q107 72 137 203h94q-35 -165 -171 -260q-127 -92 -297 -91q-320 2 -475 228q-142 203 -141 520q1 318 148 530q76 109 194 177t286 68t305 -95q138 -94 149 -260h-92q-22 136 -129 206t-240 70
q-258 0 -404 -227zM915 1591l-188 234l-197 -234h-63l209 295h102l201 -295h-64z" />
    <glyph glyph-name="ccircumflex" unicode="&#x109;" horiz-adv-x="1028" 
d="M214 130q-118 144 -118 379t122 393q122 157 357 157q165 0 267 -89t114 -249h-79q-13 129 -93 199t-198 70q-212 -1 -308 -137t-96 -335q0 -198 98 -336q98 -137 287 -137q139 0 231 94q71 77 83 183h77q-12 -150 -118 -248q-106 -97 -290 -97q-102 0 -190 41t-146 112z
M752 1214l-189 234l-196 -234h-64l209 295h102l201 -295h-63z" />
    <glyph glyph-name="Cdotaccent" unicode="&#x10a;" horiz-adv-x="1310" 
d="M331 1196q-124 -191 -124 -468t115 -457q135 -214 407 -216q132 0 238 72q107 72 137 203h94q-35 -165 -171 -260q-127 -92 -297 -91q-320 2 -475 228q-142 203 -141 520q1 318 148 530q76 109 194 177t286 68t305 -95q138 -94 149 -260h-92q-22 136 -129 206t-240 70
q-258 0 -404 -227zM680 1683v134h94v-134h-94z" />
    <glyph glyph-name="cdotaccent" unicode="&#x10b;" horiz-adv-x="1028" 
d="M214 130q-118 144 -118 379t122 393q122 157 357 157q165 0 267 -89t114 -249h-79q-13 129 -93 199t-198 70q-212 -1 -308 -137t-96 -335q0 -198 98 -336q98 -137 287 -137q139 0 231 94q71 77 83 183h77q-12 -150 -118 -248q-106 -97 -290 -97q-102 0 -190 41t-146 112z
M512 1346v133h94v-133h-94z" />
    <glyph glyph-name="Ccaron" unicode="&#x10c;" horiz-adv-x="1310" 
d="M331 1196q-124 -191 -124 -468t115 -457q135 -214 407 -216q132 0 238 72q107 72 137 203h94q-35 -165 -171 -260q-127 -92 -297 -91q-320 2 -475 228q-142 203 -141 520q1 318 148 530q76 109 194 177t286 68t305 -95q138 -94 149 -260h-92q-22 136 -129 206t-240 70
q-258 0 -404 -227zM778 1593h-108l-201 293h63l193 -235l193 235h63z" />
    <glyph glyph-name="ccaron" unicode="&#x10d;" horiz-adv-x="1028" 
d="M214 130q-118 144 -118 379t122 393q122 157 357 157q165 0 267 -89t114 -249h-79q-13 129 -93 199t-198 70q-212 -1 -308 -137t-96 -335q0 -198 98 -336q98 -137 287 -137q139 0 231 94q71 77 83 183h77q-12 -150 -118 -248q-106 -97 -290 -97q-102 0 -190 41t-146 112z
M612 1214h-108l-201 293h64l192 -235l193 235h63z" />
    <glyph glyph-name="Dcaron" unicode="&#x10e;" horiz-adv-x="1456" 
d="M1253 762q0 172 -56 315t-179 230q-139 96 -426 98h-285v-1329h281q346 0 506 171q159 171 159 515zM1341 724q0 -306 -150 -491q-180 -219 -537 -231q-60 -2 -119 -2h-314v1481h369q86 0 156 -6q330 -28 480 -263q116 -182 115 -488zM797 1593h-109l-201 293h64
l192 -235l193 235h63z" />
    <glyph glyph-name="dcaron" unicode="&#x10f;" horiz-adv-x="1146" 
d="M812 205q75 124 75 311t-83 313q-100 154 -276 154t-270 -149q-74 -118 -76 -312q0 -310 196 -426q69 -41 166 -41q179 0 268 150zM967 301q0 -181 6 -301h-82l-2 110q0 38 -1 76t-1 60q-55 -126 -137 -193t-206 -67q-225 0 -343 167q-105 149 -105 367q0 219 110 375
t316 156q273 0 363 -265v695h82v-1180zM1264 1481l-111 -307h-70l68 307h113z" />
    <glyph glyph-name="Dcroat" unicode="&#x110;" horiz-adv-x="1456" 
d="M1253 764q0 380 -233 543q-143 98 -428 98h-285v-543h443v-69h-443v-717h281q518 0 591.5 258t73.5 430zM1341 726q0 -306 -150.5 -490.5t-416.5 -221.5q-103 -14 -239 -14h-314v793h-147v69h147v619h369q176 0 305 -33q215 -55 330.5 -235.5t115.5 -486.5z" />
    <glyph glyph-name="dcroat" unicode="&#x111;" horiz-adv-x="1146" 
d="M795.5 842.5q-91.5 140.5 -267.5 140.5t-261 -135.5t-85 -325.5q0 -309 132 -388t230 -79t163 42t122.5 136t57.5 282q0 187 -91.5 327.5zM967 301q0 -181 6 -301h-82l-1 74q-1 73 -2 111t-1 61q-113 -260 -344 -260q-223 0 -335 156t-112 378t110 376.5t316 154.5
q275 0 363 -265v408h-504v68h504v219h82v-219h157v-68h-157v-893z" />
    <glyph glyph-name="Emacron" unicode="&#x112;" horiz-adv-x="1200" 
d="M221 0v1481h850v-76h-764v-592h737v-76h-737v-661h797v-76h-883zM438 1688v73h455v-73h-455z" />
    <glyph glyph-name="emacron" unicode="&#x113;" horiz-adv-x="1042" 
d="M786 866q-86 117 -248 117t-252 -119q-91 -119 -104 -286h682v24q-5 167 -78 264zM180 512v-31q0 -181 95 -310q95 -128 272 -128q135 0 210 72t105 209h80q-35 -168 -132 -257t-271 -90q-223 0 -333 147t-110 379t107 380q122 168 341 168q220 0 322 -168
q82 -135 82 -342v-29h-768zM317 1333v74h455v-74h-455z" />
    <glyph glyph-name="Ebreve" unicode="&#x114;" horiz-adv-x="1200" 
d="M221 0v1481h850v-76h-764v-592h737v-76h-737v-661h797v-76h-883zM664 1686q158 0 204 133h58q-10 -85 -79 -143t-180 -58t-186 55q-74 55 -78 146h60q11 -63 70 -98t131 -35z" />
    <glyph glyph-name="ebreve" unicode="&#x115;" horiz-adv-x="1042" 
d="M786 866q-86 117 -248 117t-252 -119q-91 -119 -104 -286h682v24q-5 167 -78 264zM180 512v-31q0 -181 95 -310q95 -128 272 -128q135 0 210 72t105 209h80q-35 -168 -132 -257t-271 -90q-223 0 -333 147t-110 379t107 380q122 168 341 168q220 0 322 -168
q82 -135 82 -342v-29h-768zM543 1231q-169 0 -237 119q-22 37 -23 84h59q11 -61 69 -96t132 -38q158 0 205 134h57q-10 -86 -79 -144t-183 -59z" />
    <glyph glyph-name="Edotaccent" unicode="&#x116;" horiz-adv-x="1200" 
d="M221 0v1481h850v-76h-764v-592h737v-76h-737v-661h797v-76h-883zM621 1683v134h94v-134h-94z" />
    <glyph glyph-name="edotaccent" unicode="&#x117;" horiz-adv-x="1042" 
d="M786 866q-86 117 -248 117t-252 -119q-91 -119 -104 -286h682v24q-5 167 -78 264zM180 512v-31q0 -181 95 -310q95 -128 272 -128q135 0 210 72t105 209h80q-35 -168 -132 -257t-271 -90q-223 0 -333 147t-110 379t107 380q122 168 341 168q220 0 322 -168
q82 -135 82 -342v-29h-768zM498 1346v133h94v-133h-94z" />
    <glyph glyph-name="Eogonek" unicode="&#x118;" horiz-adv-x="1200" 
d="M1017 -301q46 0 99 22l14 -38q-70 -35 -124 -35q-99 0 -152 36.5t-53 89.5q0 92 76 144q63 50 165 82h-821v1481h850v-76h-764v-592h737v-76h-737v-661h797v-76q-111 -47 -165 -94t-54 -102.5t43 -80t89 -24.5z" />
    <glyph glyph-name="eogonek" unicode="&#x119;" horiz-adv-x="1042" 
d="M542 983q-164 0 -255.5 -119t-104.5 -286h682v24q-7 260 -121 320.5t-201 60.5zM558 -301q46 0 99 22l15 -38q-70 -35 -124 -35q-99 0 -152.5 36.5t-53.5 89.5q0 92 76 144q30 27 106 59q-212 4 -320 151.5t-108 371.5q0 370 167 460.5t333.5 90.5t259 -151t92.5 -359
v-29h-768v-31q0 -182 95 -310t272 -128q135 0 209.5 71.5t105.5 209.5h80q-63 -311 -340 -342q-176 -84 -176 -179q0 -55 43 -79.5t89 -24.5z" />
    <glyph glyph-name="Ecaron" unicode="&#x11a;" horiz-adv-x="1200" 
d="M221 0v1481h850v-76h-764v-592h737v-76h-737v-661h797v-76h-883zM719 1593h-109l-200 293h63l193 -235l192 235h64z" />
    <glyph glyph-name="ecaron" unicode="&#x11b;" horiz-adv-x="1042" 
d="M786 866q-86 117 -248 117t-252 -119q-91 -119 -104 -286h682v24q-5 167 -78 264zM180 512v-31q0 -181 95 -310q95 -128 272 -128q135 0 210 72t105 209h80q-35 -168 -132 -257t-271 -90q-223 0 -333 147t-110 379t107 380q122 168 341 168q220 0 322 -168
q82 -135 82 -342v-29h-768zM598 1214h-109l-200 293h63l193 -235l192 235h64z" />
    <glyph glyph-name="Gcircumflex" unicode="&#x11c;" horiz-adv-x="1392" 
d="M276 215q-161 204 -161 528t150 531q77 104 196 168t261 63q361 0 463 -258q22 -53 29 -119h-92q-23 150 -125 227q-103 77 -251 77t-248 -60q-199 -118 -259 -371q-30 -121 -30 -249q0 -287 132 -476q151 -210 431 -210q200 0 377 61v528h-391v76h477v-659
q-677 -219 -959 143zM938 1591l-188 234l-197 -234h-64l209 295h103l200 -295h-63z" />
    <glyph glyph-name="gcircumflex" unicode="&#x11d;" horiz-adv-x="1153" 
d="M817 215q78 126 78 308t-93 321t-266 139t-270 -147q-80 -122 -81 -312t93 -324t271 -133q178 1 268 148zM973 813v-696q0 -349 -203 -477q-84 -53 -225 -54q-255 0 -348 149q-35 56 -35 144h82q0 -118 84 -171q84 -54 204 -54t188 40q129 76 158 253q13 84 13 170v135
q-94 -250 -354 -250q-213 0 -327 147t-114 370t111 378q111 154 319 154q130 0 230 -72t139 -203v260h86q-8 -172 -8 -223zM743 1214l-188 234l-197 -234h-63l209 295h102l201 -295h-64z" />
    <glyph glyph-name="Gbreve" unicode="&#x11e;" horiz-adv-x="1392" 
d="M276 215q-161 204 -161 528t150 531q77 104 196 168t261 63q361 0 463 -258q22 -53 29 -119h-92q-23 150 -125 227q-103 77 -251 77t-248 -60q-199 -118 -259 -371q-30 -121 -30 -249q0 -287 132 -476q151 -210 431 -210q200 0 377 61v528h-391v76h477v-659
q-677 -219 -959 143zM929 1676q-69 -58 -180 -58t-186 55q-74 55 -78 146h60q11 -63 70 -98t130 -35q159 0 205 133h58q-10 -85 -79 -143z" />
    <glyph glyph-name="gbreve" unicode="&#x11f;" horiz-adv-x="1153" 
d="M817 215q78 126 78 308t-93 321t-266 139t-270 -147q-80 -122 -81 -312t93 -324t271 -133q178 1 268 148zM973 813v-696q0 -349 -203 -477q-84 -53 -225 -54q-255 0 -348 149q-35 56 -35 144h82q0 -118 84 -171q84 -54 204 -54t188 40q129 76 158 253q13 84 13 170v135
q-94 -250 -354 -250q-213 0 -327 147t-114 370t111 378q111 154 319 154q130 0 230 -72t139 -203v260h86q-8 -172 -8 -223zM549 1231q-166 0 -237 119q-22 37 -23 84h59q11 -61 69 -96t132 -38q158 0 205 134h57q-10 -86 -79 -144t-183 -59z" />
    <glyph glyph-name="Gdotaccent" unicode="&#x120;" horiz-adv-x="1392" 
d="M276 215q-161 204 -161 528t150 531q77 104 196 168t261 63q361 0 463 -258q22 -53 29 -119h-92q-23 150 -125 227q-103 77 -251 77t-248 -60q-199 -118 -259 -371q-30 -121 -30 -249q0 -287 132 -476q151 -210 431 -210q200 0 377 61v528h-391v76h477v-659
q-677 -219 -959 143zM702 1683v134h95v-134h-95z" />
    <glyph glyph-name="gdotaccent" unicode="&#x121;" horiz-adv-x="1153" 
d="M817 215q78 126 78 308t-93 321t-266 139t-270 -147q-80 -122 -81 -312t93 -324t271 -133q178 1 268 148zM973 813v-696q0 -349 -203 -477q-84 -53 -225 -54q-255 0 -348 149q-35 56 -35 144h82q0 -118 84 -171q84 -54 204 -54t188 40q129 76 158 253q13 84 13 170v135
q-94 -250 -354 -250q-213 0 -327 147t-114 370t111 378q111 154 319 154q130 0 230 -72t139 -203v260h86q-8 -172 -8 -223zM504 1346v133h94v-133h-94z" />
    <glyph glyph-name="Gcommaaccent" unicode="&#x122;" horiz-adv-x="1392" 
d="M276 215q-161 204 -161 528t150 531q77 104 196 168t261 63q361 0 463 -258q22 -53 29 -119h-92q-23 150 -125 227q-103 77 -251 77t-248 -60q-199 -118 -259 -371q-30 -121 -30 -249q0 -287 132 -476q151 -210 431 -210q200 0 377 61v528h-391v76h477v-659
q-677 -219 -959 143zM774 -131l-92 -281h-66l56 281h102z" />
    <glyph glyph-name="gcommaaccent" unicode="&#x123;" horiz-adv-x="1153" 
d="M817 215q78 126 78 308t-93 321t-266 139t-270 -147q-80 -122 -81 -312t93 -324t271 -133q178 1 268 148zM973 813v-696q0 -349 -203 -477q-84 -53 -225 -54q-255 0 -348 149q-35 56 -35 144h82q0 -118 84 -171q84 -54 204 -54t188 40q129 76 158 253q13 84 13 170v135
q-94 -250 -354 -250q-213 0 -327 147t-114 370t111 378q111 154 319 154q130 0 230 -72t139 -203v260h86q-8 -172 -8 -223zM465 1214l94 293h66l-58 -293h-102z" />
    <glyph glyph-name="Hcircumflex" unicode="&#x124;" horiz-adv-x="1484" 
d="M1178 0v729h-871v-729h-86v1481h86v-678h871v678h86v-1481h-86zM938 1591l-188 234l-197 -234h-64l209 295h103l200 -295h-63z" />
    <glyph glyph-name="hcircumflex" unicode="&#x125;" horiz-adv-x="1130" 
d="M877 0v596q0 184 -47 264q-66 113 -230 113q-200 0 -289 -174q-45 -89 -48 -188q-1 -36 -1 -72v-539h-82v1481h82v-674q45 117 135 178t209 62q182 1 267 -97t85 -305v-645h-81zM414 1591l-189 234l-196 -234h-64l209 295h102l201 -295h-63z" />
    <glyph glyph-name="Hbar" unicode="&#x126;" horiz-adv-x="1484" 
d="M1178 0v729h-871v-729h-86v1481h86v-445h871v445h86v-1481h-86zM1178 963h-871v-160h871v160z" />
    <glyph glyph-name="hbar" unicode="&#x127;" horiz-adv-x="1130" 
d="M877 0v596q0 184 -56 280.5t-221 96.5q-202 0 -268 -133.5t-68 -199t-2 -101.5v-539h-82v1194h-157v68h157v219h82v-219h504v-68h-504v-387q45 117 135 178.5t209 61.5q182 0 267 -97.5t85 -304.5v-645h-81z" />
    <glyph glyph-name="Itilde" unicode="&#x128;" horiz-adv-x="528" 
d="M221 0v1481h86v-1481h-86zM370 1683q-56 0 -107 22q-50 21 -92 21t-62 -12t-37 -47h-60q14 59 56 95t98 36q55 0 101 -20t103 -20t87 65h59q-16 -55 -53 -97t-93 -43z" />
    <glyph glyph-name="itilde" unicode="&#x129;" horiz-adv-x="442" 
d="M180 0v1036h82v-1036h-82zM329 1305q-57 -1 -107 21t-92 22t-62 -12t-37 -48h-60q15 59 57 95t97 36t101 -20q46 -21 103 -21t87 66h59q-16 -55 -53 -97t-93 -42z" />
    <glyph glyph-name="Imacron" unicode="&#x12a;" horiz-adv-x="528" 
d="M221 0v1481h86v-1481h-86zM37 1688v73h455v-73h-455z" />
    <glyph glyph-name="imacron" unicode="&#x12b;" horiz-adv-x="442" 
d="M180 0v1036h82v-1036h-82zM-4 1333v74h455v-74h-455z" />
    <glyph glyph-name="Ibreve" unicode="&#x12c;" horiz-adv-x="528" 
d="M221 0v1481h86v-1481h-86zM262 1686q159 0 205 133h57q-10 -85 -79 -143t-180 -58t-185 55t-78 146h59q11 -61 70 -97t131 -36z" />
    <glyph glyph-name="ibreve" unicode="&#x12d;" horiz-adv-x="442" 
d="M180 0v1036h82v-1036h-82zM221 1231q-168 0 -236 119q-22 37 -24 84h59q11 -61 69 -96t132 -38q158 0 205 134h57q-10 -86 -79 -144t-183 -59z" />
    <glyph glyph-name="Iogonek" unicode="&#x12e;" horiz-adv-x="528" 
d="M220 -301q46 0 99 22l15 -38q-70 -35 -124 -35q-99 0 -152.5 36.5t-53.5 89.5q0 92 76 144q45 32 97 55t65 27h-21v1481h86v-1481q-111 -47 -165 -94t-54 -102.5t43 -80t89 -24.5z" />
    <glyph glyph-name="iogonek" unicode="&#x12f;" horiz-adv-x="442" 
d="M174 1346v135h94v-135h-94zM177 -301q46 0 99 22l15 -38q-71 -35 -125 -35q-99 0 -152 36.5t-53 89.5q0 92 76 144q45 32 97 55t65 27h-19v1036h82v-1036q-106 -47 -161.5 -94t-55.5 -102.5t43 -80t89 -24.5z" />
    <glyph glyph-name="Idotaccent" unicode="&#x130;" horiz-adv-x="528" 
d="M221 0v1481h86v-1481h-86zM219 1683v134h94v-134h-94z" />
    <glyph glyph-name="dotlessi" unicode="&#x131;" horiz-adv-x="442" 
d="M180 0v1036h82v-1036h-82z" />
    <glyph glyph-name="Jcircumflex" unicode="&#x134;" horiz-adv-x="962" 
d="M776 418q0 -177 -59 -265q-111 -165 -347 -165q-237 0 -323 203q-27 65 -27 149h89q-1 -131 73 -205t215 -74t217 99t76 270v1051h86v-1063zM924 1591l-189 234l-196 -234h-64l209 295h102l201 -295h-63z" />
    <glyph glyph-name="jcircumflex" unicode="&#x135;" horiz-adv-x="442" 
d="M50 -301q44 0 71 11q50 20 56 85q3 31 3 70v1171h82v-1194q0 -127 -49 -170t-158 -43q-58 0 -90 9v69q41 -8 85 -8zM418 1214l-189 234l-196 -234h-64l209 295h103l200 -295h-63z" />
    <glyph glyph-name="Kcommaaccent" unicode="&#x136;" horiz-adv-x="1208" 
d="M221 0v1481h86v-1481h-86zM1085 0l-770 801l701 680h114l-710 -676l782 -805h-117zM705 -131l-93 -281h-65l55 281h103z" />
    <glyph glyph-name="kcommaaccent" unicode="&#x137;" horiz-adv-x="978" 
d="M180 0v1481h82v-1481h-82zM846 0l-574 588l529 448h112l-536 -446l575 -590h-106zM578 -131l-93 -281h-65l55 281h103z" />
    <glyph glyph-name="kgreenlandic" unicode="&#x138;" horiz-adv-x="978" 
d="M180 0v1036h82v-1036h-82zM846 0l-574 588l529 448h112l-536 -446l575 -590h-106z" />
    <glyph glyph-name="Lacute" unicode="&#x139;" horiz-adv-x="1093" 
d="M221 0v1481h86v-1405h758v-76h-844zM283 1593h-62l185 293h110z" />
    <glyph glyph-name="lacute" unicode="&#x13a;" horiz-adv-x="442" 
d="M180 0v1481h82v-1481h-82zM182 1552h-61l184 293h111z" />
    <glyph glyph-name="Lcommaaccent" unicode="&#x13b;" horiz-adv-x="1093" 
d="M221 0v1481h86v-1405h758v-76h-844zM713 -131l-92 -281h-66l55 281h103z" />
    <glyph glyph-name="lcommaaccent" unicode="&#x13c;" horiz-adv-x="442" 
d="M180 0v1481h82v-1481h-82zM276 -131l-92 -281h-65l55 281h102z" />
    <glyph glyph-name="Lcaron" unicode="&#x13d;" horiz-adv-x="1093" 
d="M221 0v1481h86v-1405h758v-76h-844zM670 1481l-111 -307h-70l68 307h113z" />
    <glyph glyph-name="lcaron" unicode="&#x13e;" horiz-adv-x="442" 
d="M180 0v1481h82v-1481h-82zM561 1481l-110 -307h-70l68 307h112z" />
    <glyph glyph-name="Ldot" unicode="&#x13f;" horiz-adv-x="1093" 
d="M221 0v1481h86v-1405h758v-76h-844zM602 727v133h94v-133h-94z" />
    <glyph glyph-name="ldot" unicode="&#x140;" horiz-adv-x="442" 
d="M180 0v1481h82v-1481h-82zM391 700v134h94v-134h-94z" />
    <glyph glyph-name="Lslash" unicode="&#x141;" horiz-adv-x="1138" 
d="M221 0v692l-137 -82v78l137 82v711h86v-660l426 260v-77l-426 -261v-667h756v-76h-842z" />
    <glyph glyph-name="lslash" unicode="&#x142;" horiz-adv-x="442" 
d="M262 0h-82v711l-188 -119v96l188 121v672h82v-621l191 121v-96l-191 -123v-762z" />
    <glyph glyph-name="Nacute" unicode="&#x143;" horiz-adv-x="1503" 
d="M303 0h-82v1481h113l866 -1370v1370h82v-1481h-113l-866 1368v-1368zM725 1593h-61l184 293h110z" />
    <glyph glyph-name="nacute" unicode="&#x144;" horiz-adv-x="1132" 
d="M961 0h-82v596q0 183 -38 250t-92 97q-53 30 -135 30q-212 0 -301 -174q-51 -100 -51 -260v-539h-82v888q0 75 -4 148h80l2 -116q0 -37 1 -70t1 -47q47 117 138 180t210 64q180 1 266 -97t87 -305v-645zM549 1214h-62l185 293h110z" />
    <glyph glyph-name="Ncommaaccent" unicode="&#x145;" horiz-adv-x="1503" 
d="M303 0h-82v1481h113l866 -1370v1370h82v-1481h-113l-866 1368v-1368zM821 -131l-92 -281h-65l55 281h102z" />
    <glyph glyph-name="ncommaaccent" unicode="&#x146;" horiz-adv-x="1132" 
d="M961 0h-82v596q0 183 -38 250t-92 97q-53 30 -135 30q-212 0 -301 -174q-51 -100 -51 -260v-539h-82v888q0 75 -4 148h80l2 -116q0 -37 1 -70t1 -47q47 117 138 180t210 64q180 1 266 -97t87 -305v-645zM621 -131l-93 -281h-65l55 281h103z" />
    <glyph glyph-name="Ncaron" unicode="&#x147;" horiz-adv-x="1503" 
d="M303 0h-82v1481h113l866 -1370v1370h82v-1481h-113l-866 1368v-1368zM821 1593h-108l-201 293h63l193 -235l193 235h63z" />
    <glyph glyph-name="ncaron" unicode="&#x148;" horiz-adv-x="1132" 
d="M961 0h-82v596q0 183 -38 250t-92 97q-53 30 -135 30q-212 0 -301 -174q-51 -100 -51 -260v-539h-82v888q0 75 -4 148h80l2 -116q0 -37 1 -70t1 -47q47 117 138 180t210 64q180 1 266 -97t87 -305v-645zM625 1214h-109l-201 293h64l192 -235l193 235h63z" />
    <glyph glyph-name="Eng" unicode="&#x14a;" horiz-adv-x="1495" 
d="M1004 -295q109 0 150.5 49t41.5 166v78q-168 256 -413.5 632t-370.5 562l-113 170v-1362h-82v1481h111q217 -334 432 -665t436 -662v1327h82v-1518q0 -181 -57 -257.5t-209 -76.5q-50 0 -90 11v75q58 -10 82 -10z" />
    <glyph glyph-name="eng" unicode="&#x14b;" horiz-adv-x="1132" 
d="M604 1047q180 0 266 -97.5t86 -304.5v-770q0 -135 -53 -190.5t-170 -55.5q-56 0 -90 9v69q40 -8 84 -8q90 0 118.5 47t28.5 141v709q0 185 -37.5 251t-92 96t-135.5 30q-146 0 -228.5 -79t-110.5 -212q-12 -52 -12 -143v-539h-82v482q0 481 -4 554h80l1 -76q1 -77 2 -110
t1 -47q47 117 138 180.5t210 63.5z" />
    <glyph glyph-name="Omacron" unicode="&#x14c;" horiz-adv-x="1501" 
d="M1294 749q0 470 -283 622q-103 56 -253 56t-252 -57q-206 -114 -267 -371q-30 -123 -30 -252q0 -286 126 -475q148 -217 420 -218t415 218q124 187 124 477zM1243 1284q143 -192 143 -527t-148 -543q-169 -237 -484 -237t-487 234q-152 204 -152 530t153 535
q170 227 493 227t482 -219zM530 1688v73h455v-73h-455z" />
    <glyph glyph-name="omacron" unicode="&#x14d;" 
d="M844 850q-96 133 -281 133t-283 -131t-98 -326t96 -338t282 -143t289 152q91 135 91 327q0 193 -96 326zM1026 532q0 -227 -122 -390t-344 -164t-343 157t-121 386q0 229 122 381q122 151 347 151t343 -147t118 -374zM338 1333v74h455v-74h-455z" />
    <glyph glyph-name="Obreve" unicode="&#x14e;" horiz-adv-x="1501" 
d="M1294 749q0 470 -283 622q-103 56 -253 56t-252 -57q-206 -114 -267 -371q-30 -123 -30 -252q0 -286 126 -475q148 -217 420 -218t415 218q124 187 124 477zM1243 1284q143 -192 143 -527t-148 -543q-169 -237 -484 -237t-487 234q-152 204 -152 530t153 535
q170 227 493 227t482 -219zM756 1686q159 0 205 133h57q-10 -85 -79 -143t-180 -58t-186 56t-77 145h59q11 -61 70 -97t131 -36z" />
    <glyph glyph-name="obreve" unicode="&#x14f;" 
d="M844 850q-96 133 -281 133t-283 -131t-98 -326t96 -338t282 -143t289 152q91 135 91 327q0 193 -96 326zM1026 532q0 -227 -122 -390t-344 -164t-343 157t-121 386q0 229 122 381q122 151 347 151t343 -147t118 -374zM563 1231q-168 0 -236 119q-22 37 -24 84h59
q11 -61 69 -96t132 -38q158 0 205 134h57q-10 -86 -79 -144t-183 -59z" />
    <glyph glyph-name="Ohungarumlaut" unicode="&#x150;" horiz-adv-x="1501" 
d="M1294 749q0 470 -283 622q-103 56 -253 56t-252 -57q-206 -114 -267 -371q-30 -123 -30 -252q0 -286 126 -475q148 -217 420 -218t415 218q124 187 124 477zM1243 1284q143 -192 143 -527t-148 -543q-169 -237 -484 -237t-487 234q-152 204 -152 530t153 535
q170 227 493 227t482 -219zM623 1593h-64l189 293h110zM881 1593h-66l189 293h112z" />
    <glyph glyph-name="ohungarumlaut" unicode="&#x151;" 
d="M844 850q-96 133 -281 133t-283 -131t-98 -326t96 -338t282 -143t289 152q91 135 91 327q0 193 -96 326zM1026 532q0 -227 -122 -390t-344 -164t-343 157t-121 386q0 229 122 381q122 151 347 151t343 -147t118 -374zM430 1214h-63l188 293h111zM688 1214h-65l188 293
h113z" />
    <glyph glyph-name="OE" unicode="&#x152;" horiz-adv-x="1990" 
d="M866 1415q-319 0 -489 -170t-170 -509t159.5 -507t495.5 -168q128 0 215 17v1323q-124 14 -211 14zM1862 1481v-80h-699v-592h670v-78h-670v-651h729v-80h-546q-131 0 -273 -8t-199 -8q-353 0 -538 157q-219 186 -219 590q0 460 291 649q183 115 442 115l424 -14h588z
" />
    <glyph glyph-name="oe" unicode="&#x153;" horiz-adv-x="1771" 
d="M956 582h635l-2 39q-20 358 -315 358q-147 0 -224.5 -104t-85.5 -191.5t-8 -101.5zM788.5 839.5q-81.5 137.5 -260.5 137.5t-261.5 -139t-82.5 -332q0 -299 126 -372t220 -73t159 40t123 130.5t58 280.5t-81.5 327.5zM205.5 132q-109.5 146 -109.5 393q0 246 121.5 388
t311.5 142t265.5 -86t93 -132t25.5 -61q8 18 25.5 63.5t88 126.5t257.5 81t289 -118t102 -175v-244h-719v-114q0 -113 85 -226t253 -113q98 0 165 60.5t95 152.5q8 23 6.5 24t2.5 17h88q-16 -139 -113 -234t-242 -95q-191 0 -282.5 100t-102.5 211q-71 -307 -379 -307
q-217 0 -326.5 146z" />
    <glyph glyph-name="Racute" unicode="&#x154;" horiz-adv-x="1304" 
d="M612 815q437 0 437 307q0 283 -375 283h-367v-590h305zM680 741h-373v-741h-86v1481h475q305 0 410 -198q33 -62 33 -153q0 -141 -77 -228t-206 -120q119 -18 169 -111t60 -247q27 -357 89 -424h-101q-41 78 -49 166q-26 287 -41 367q-14 81 -46 125t-92 64t-165 19z
M604 1593h-61l184 293h111z" />
    <glyph glyph-name="racute" unicode="&#x155;" horiz-adv-x="659" 
d="M609 1042q13 0 30 -4v-84q-172 35 -270 -51q-98 -87 -107 -241q-2 -37 -2 -74v-588h-82v731q0 151 -4 305h80l4 -202q109 211 322 208h29zM293 1214h-62l185 293h110z" />
    <glyph glyph-name="Rcommaaccent" unicode="&#x156;" horiz-adv-x="1304" 
d="M612 815q437 0 437 307q0 283 -375 283h-367v-590h305zM680 741h-373v-741h-86v1481h475q305 0 410 -198q33 -62 33 -153q0 -141 -77 -228t-206 -120q119 -18 169 -111t60 -247q27 -357 89 -424h-101q-41 78 -49 166q-26 287 -41 367q-14 81 -46 125t-92 64t-165 19z
M705 -131l-93 -281h-65l55 281h103z" />
    <glyph glyph-name="rcommaaccent" unicode="&#x157;" horiz-adv-x="659" 
d="M609 1042q13 0 30 -4v-84q-172 35 -270 -51q-98 -87 -107 -241q-2 -37 -2 -74v-588h-82v731q0 151 -4 305h80l4 -202q109 211 322 208h29zM274 -131l-92 -281h-65l55 281h102z" />
    <glyph glyph-name="Rcaron" unicode="&#x158;" horiz-adv-x="1304" 
d="M612 815q437 0 437 307q0 283 -375 283h-367v-590h305zM680 741h-373v-741h-86v1481h475q305 0 410 -198q33 -62 33 -153q0 -141 -77 -228t-206 -120q119 -18 169 -111t60 -247q27 -357 89 -424h-101q-41 78 -49 166q-26 287 -41 367q-14 81 -46 125t-92 64t-165 19z
M700 1593h-108l-201 293h64l192 -235l193 235h63z" />
    <glyph glyph-name="rcaron" unicode="&#x159;" horiz-adv-x="659" 
d="M609 1042q13 0 30 -4v-84q-172 35 -270 -51q-98 -87 -107 -241q-2 -37 -2 -74v-588h-82v731q0 151 -4 305h80l4 -202q109 211 322 208h29zM389 1214h-108l-201 293h63l193 -235l192 235h64z" />
    <glyph glyph-name="Sacute" unicode="&#x15a;" horiz-adv-x="1183" 
d="M1071 374q0 -94 -42 -170q-43 -76 -111 -126q-134 -96 -338 -95t-328 97t-139 295h90q4 -139 101 -227t266 -89q169 0 280 71q135 87 135 253t-195 257q-60 28 -133 52l-129 43q-188 64 -256 118q-67 55 -100 115t-33 153t39 165q74 137 240 183t338 12q171 -35 250 -157
q39 -62 43 -153h-91q-11 133 -108 192q-97 58 -242 58q-253 0 -349 -164q-34 -57 -34 -153t80 -166t254 -125l139 -45q88 -29 158 -61q140 -65 190 -181q26 -58 25 -152zM563 1593h-61l184 293h111z" />
    <glyph glyph-name="sacute" unicode="&#x15b;" horiz-adv-x="917" 
d="M817 282q0 -141 -111 -227q-99 -73 -255 -73q-238 0 -322 174q-29 59 -31 141h82q12 -248 273 -250q182 0 258 124q27 45 27 99q-1 91 -73 141q-52 37 -182 74l-55 17q-144 40 -198 81q-54 40 -80 85q-27 44 -27 114q0 128 97 202q97 73 244 74q146 1 237 -70t96 -224
h-82q-8 225 -248 225q-166 0 -237 -109q-24 -38 -24 -90q1 -91 61 -134q60 -44 175 -76l43 -13q154 -41 215 -80q60 -39 88 -85t29 -120zM424 1214h-62l185 293h110z" />
    <glyph glyph-name="Scircumflex" unicode="&#x15c;" horiz-adv-x="1183" 
d="M1071 374q0 -94 -42 -170q-43 -76 -111 -126q-134 -96 -338 -95t-328 97t-139 295h90q4 -139 101 -227t266 -89q169 0 280 71q135 87 135 253t-195 257q-60 28 -133 52l-129 43q-188 64 -256 118q-67 55 -100 115t-33 153t39 165q74 137 240 183t338 12q171 -35 250 -157
q39 -62 43 -153h-91q-11 133 -108 192q-97 58 -242 58q-253 0 -349 -164q-34 -57 -34 -153t80 -166t254 -125l139 -45q88 -29 158 -61q140 -65 190 -181q26 -58 25 -152zM797 1591l-189 234l-196 -234h-64l209 295h102l201 -295h-63z" />
    <glyph glyph-name="scircumflex" unicode="&#x15d;" horiz-adv-x="917" 
d="M817 282q0 -141 -111 -227q-99 -73 -255 -73q-238 0 -322 174q-29 59 -31 141h82q12 -248 273 -250q182 0 258 124q27 45 27 99q-1 91 -73 141q-52 37 -182 74l-55 17q-144 40 -198 81q-54 40 -80 85q-27 44 -27 114q0 128 97 202q97 73 244 74q146 1 237 -70t96 -224
h-82q-8 225 -248 225q-166 0 -237 -109q-24 -38 -24 -90q1 -91 61 -134q60 -44 175 -76l43 -13q154 -41 215 -80q60 -39 88 -85t29 -120zM659 1214l-188 234l-197 -234h-63l209 295h102l201 -295h-64z" />
    <glyph glyph-name="Scedilla" unicode="&#x15e;" horiz-adv-x="1183" 
d="M694 -236q0 82 -114 82q-30 0 -60 -4l43 142q-193 4 -313.5 100t-136.5 291h90q4 -139 101 -227.5t266 -88.5t292 79t123 245t-128 225.5t-200 83.5l-129 43q-191 65 -257 118.5t-99 114t-33 153.5q0 182 136.5 278t328.5 96q295 0 367.5 -116.5t77.5 -207.5h-91
q-11 133 -108 191.5t-242 58.5q-252 0 -317.5 -110.5t-65.5 -206.5t80 -166t254 -125l139 -45q198 -65 285.5 -149t87.5 -230q0 -195 -134 -297t-333 -106l-24 -92h47q47 0 95 -28t48 -82q0 -90 -54.5 -120.5t-139.5 -30.5t-191 48l14 45q47 -23 88 -36.5t101 -13.5t83 29
t23 59z" />
    <glyph glyph-name="scedilla" unicode="&#x15f;" horiz-adv-x="917" 
d="M207 790q0 -90 61.5 -134t173.5 -76l43 -13q156 -41 215.5 -79.5t88 -84.5t28.5 -118q0 -140 -93.5 -216t-238.5 -85l-24 -90h47q47 0 95 -28t48 -82q0 -89 -54.5 -120t-139.5 -31t-191 48l15 45q47 -23 88 -36.5t101 -13.5t82.5 29t22.5 59q0 82 -114 82q-30 0 -60 -4
l43 140q-147 0 -244.5 79t-101.5 236h82q12 -250 273 -250q183 0 233.5 84.5t50.5 138.5q0 90 -63.5 134.5t-190.5 80.5l-55 17q-144 40 -198 80.5t-80.5 85t-26.5 114.5q0 130 98.5 203.5t243.5 73.5t236.5 -70.5t95.5 -224.5h-82q-8 225 -248 225q-169 0 -214.5 -73.5
t-45.5 -125.5z" />
    <glyph glyph-name="Scaron" unicode="&#x160;" horiz-adv-x="1183" 
d="M1071 374q0 -94 -42 -170q-43 -76 -111 -126q-134 -96 -338 -95t-328 97t-139 295h90q4 -139 101 -227t266 -89q169 0 280 71q135 87 135 253t-195 257q-60 28 -133 52l-129 43q-188 64 -256 118q-67 55 -100 115t-33 153t39 165q74 137 240 183t338 12q171 -35 250 -157
q39 -62 43 -153h-91q-11 133 -108 192q-97 58 -242 58q-253 0 -349 -164q-34 -57 -34 -153t80 -166t254 -125l139 -45q88 -29 158 -61q140 -65 190 -181q26 -58 25 -152zM659 1593h-108l-201 293h64l192 -235l193 235h63z" />
    <glyph glyph-name="scaron" unicode="&#x161;" horiz-adv-x="917" 
d="M817 282q0 -141 -111 -227q-99 -73 -255 -73q-238 0 -322 174q-29 59 -31 141h82q12 -248 273 -250q182 0 258 124q27 45 27 99q-1 91 -73 141q-52 37 -182 74l-55 17q-144 40 -198 81q-54 40 -80 85q-27 44 -27 114q0 128 97 202q97 73 244 74q146 1 237 -70t96 -224
h-82q-8 225 -248 225q-166 0 -237 -109q-24 -38 -24 -90q1 -91 61 -134q60 -44 175 -76l43 -13q154 -41 215 -80q60 -39 88 -85t29 -120zM520 1214h-108l-201 293h63l193 -235l192 235h64z" />
    <glyph glyph-name="uni0162" unicode="&#x162;" horiz-adv-x="1056" 
d="M569 1405v-1405h-86v1405h-475v76h1041v-76h-480zM578 -131l-93 -281h-65l55 281h103z" />
    <glyph glyph-name="uni0163" unicode="&#x163;" horiz-adv-x="610" 
d="M428 -6q-104 0 -147 54t-43 153v768h-209v67h209v221l81 39v-260h228v-67h-228v-725q1 -92 21 -124t48 -43t66 -11t103 10v-72q-65 -10 -129 -10zM358 -131l-92 -281h-65l55 281h102z" />
    <glyph glyph-name="Tcaron" unicode="&#x164;" horiz-adv-x="1056" 
d="M569 1405v-1405h-86v1405h-475v76h1041v-76h-480zM582 1593h-109l-201 293h64l192 -235l193 235h63z" />
    <glyph glyph-name="tcaron" unicode="&#x165;" horiz-adv-x="610" 
d="M428 -6q-104 0 -147 54t-43 153v768h-209v67h209v221l81 39v-260h228v-67h-228v-725q1 -92 21 -124t48 -43t66 -11t103 10v-72q-65 -10 -129 -10zM688 1481l-110 -307h-70l67 307h113z" />
    <glyph glyph-name="Tbar" unicode="&#x166;" horiz-adv-x="1056" 
d="M1004 739h-435v-739h-86v739h-434v74h434v592h-475v76h1041v-76h-480v-592h435v-74z" />
    <glyph glyph-name="tbar" unicode="&#x167;" horiz-adv-x="610" 
d="M428 -6q-104 0 -147 54t-43 153v481h-209v68h209v219h-209v67h209v221l81 39v-260h228v-67h-228v-219h228v-68h-228v-438q0 -92 20.5 -124t48.5 -43t67 -11t102 10v-72q-65 -10 -129 -10z" />
    <glyph glyph-name="Utilde" unicode="&#x168;" horiz-adv-x="1478" 
d="M1286 547q0 -269 -136 -417t-408 -148t-410 142q-139 142 -139 423v934h90v-906q0 -98 14 -187t66 -168q51 -79 149 -121t236 -42q138 -1 244 55t156 162q48 106 48 301v906h90v-934zM849 1683q-57 0 -107 22q-50 21 -92 21t-62 -12t-37 -47h-59q14 59 56 95t97 36
t101 -20t103 -20t87 65h59q-16 -55 -53 -97t-93 -43z" />
    <glyph glyph-name="utilde" unicode="&#x169;" horiz-adv-x="1130" 
d="M950 297q0 -180 6 -297h-82l-2 117q0 37 -1 69t-1 47q-47 -117 -138 -181t-210 -64q-350 0 -350 401v647h82v-596q0 -172 49 -262q64 -117 214 -117t232 82q107 109 117 280q2 36 2 73v540h82v-739zM671 1305q-57 -1 -107 21t-92 22t-62 -12t-37 -48h-60q15 59 57 95
t97 36t101 -20q46 -21 103 -21t87 66h59q-16 -55 -53 -97t-93 -42z" />
    <glyph glyph-name="Umacron" unicode="&#x16a;" horiz-adv-x="1478" 
d="M1286 547q0 -269 -136 -417t-408 -148t-410 142q-139 142 -139 423v934h90v-906q0 -98 14 -187t66 -168q51 -79 149 -121t236 -42q138 -1 244 55t156 162q48 106 48 301v906h90v-934zM516 1688v73h455v-73h-455z" />
    <glyph glyph-name="umacron" unicode="&#x16b;" horiz-adv-x="1130" 
d="M950 297q0 -180 6 -297h-82l-2 117q0 37 -1 69t-1 47q-47 -117 -138 -181t-210 -64q-350 0 -350 401v647h82v-596q0 -172 49 -262q64 -117 214 -117t232 82q107 109 117 280q2 36 2 73v540h82v-739zM338 1333v74h455v-74h-455z" />
    <glyph glyph-name="Ubreve" unicode="&#x16c;" horiz-adv-x="1478" 
d="M1286 547q0 -269 -136 -417t-408 -148t-410 142q-139 142 -139 423v934h90v-906q0 -98 14 -187t66 -168q51 -79 149 -121t236 -42q138 -1 244 55t156 162q48 106 48 301v906h90v-934zM925 1676q-69 -58 -180 -58t-186 55q-74 55 -78 146h60q11 -62 70 -97q59 -36 130 -36
q159 0 205 133h58q-10 -85 -79 -143z" />
    <glyph glyph-name="ubreve" unicode="&#x16d;" horiz-adv-x="1130" 
d="M950 297q0 -180 6 -297h-82l-2 117q0 37 -1 69t-1 47q-47 -117 -138 -181t-210 -64q-350 0 -350 401v647h82v-596q0 -172 49 -262q64 -117 214 -117t232 82q107 109 117 280q2 36 2 73v540h82v-739zM563 1231q-168 0 -236 119q-22 37 -24 84h59q11 -61 69 -96t132 -38
q158 0 205 134h57q-10 -86 -79 -144t-183 -59z" />
    <glyph glyph-name="Uring" unicode="&#x16e;" horiz-adv-x="1478" 
d="M1286 547q0 -269 -136 -417t-408 -148t-410 142q-139 142 -139 423v934h90v-906q0 -98 14 -187t66 -168q51 -79 149 -121t236 -42q138 -1 244 55t156 162q48 106 48 301v906h90v-934zM625 1687q0 -54 32 -91q33 -36 86 -36t86 36t33 90t-33 91q-33 35 -86 35t-86 -35
q-32 -36 -32 -90zM569 1686q1 74 51 124t124 50t124 -50q52 -50 52 -124t-52 -124t-125 -50q-74 0 -124 50t-50 124z" />
    <glyph glyph-name="uring" unicode="&#x16f;" horiz-adv-x="1130" 
d="M950 297q0 -180 6 -297h-82l-2 117q0 37 -1 69t-1 47q-47 -117 -138 -181t-210 -64q-350 0 -350 401v647h82v-596q0 -172 49 -262q64 -117 214 -117t232 82q107 109 117 280q2 36 2 73v540h82v-739zM446 1349q0 -55 33 -91t86 -36t86 36t33 90t-33 91q-33 36 -86 36
t-86 -36t-33 -90zM391 1348q0 74 50 124t124 50t125 -50t51 -124t-51 -124t-125 -50t-124 50t-50 124z" />
    <glyph glyph-name="Uhungarumlaut" unicode="&#x170;" horiz-adv-x="1478" 
d="M1286 547q0 -269 -136 -417t-408 -148t-410 142q-139 142 -139 423v934h90v-906q0 -98 14 -187t66 -168q51 -79 149 -121t236 -42q138 -1 244 55t156 162q48 106 48 301v906h90v-934zM608 1593h-63l188 293h111zM866 1593h-65l188 293h113z" />
    <glyph glyph-name="uhungarumlaut" unicode="&#x171;" horiz-adv-x="1130" 
d="M950 297q0 -180 6 -297h-82l-2 117q0 37 -1 69t-1 47q-47 -117 -138 -181t-210 -64q-350 0 -350 401v647h82v-596q0 -172 49 -262q64 -117 214 -117t232 82q107 109 117 280q2 36 2 73v540h82v-739zM430 1214h-63l188 293h111zM688 1214h-65l188 293h113z" />
    <glyph glyph-name="Uogonek" unicode="&#x172;" horiz-adv-x="1478" 
d="M775 -301q46 0 99 22l15 -38q-71 -35 -125 -35q-99 0 -152 36.5t-53 89.5q0 92 76 144q28 25 115 64h-11q-268 0 -407 142t-139 423v934h90v-906q0 -98 14 -187t66 -168t149.5 -121t235.5 -42t245 55.5t155 161.5t48 301v906h90v-934q0 -246 -113.5 -391.5t-343.5 -169.5
q-94 -45 -140 -87.5t-46 -96.5t43 -78.5t89 -24.5z" />
    <glyph glyph-name="uogonek" unicode="&#x173;" horiz-adv-x="1130" 
d="M868 -301q46 0 101 22l14 -38q-70 -35 -124 -35q-100 0 -153 36.5t-53 89.5q0 122 92.5 162.5t114 50t33.5 13.5h-19l-1 77q-1 77 -2 109.5t-1 46.5q-47 -117 -138 -181t-210 -64q-350 0 -350 401v647h82v-596q0 -172 56.5 -275.5t206.5 -103.5t245 96t100.5 199t5.5 140
v540h82v-739q0 -180 6 -297q-113 -49 -166 -95t-53 -101.5t42.5 -80t88.5 -24.5z" />
    <glyph glyph-name="Wcircumflex" unicode="&#x174;" horiz-adv-x="2023" 
d="M1591 0h-116l-469 1370h-9l-450 -1370h-123l-387 1481h92l358 -1399h9l454 1399h105l477 -1399h8l358 1399h89zM1190 1591l-189 234l-196 -234h-64l209 295h103l200 -295h-63z" />
    <glyph glyph-name="wcircumflex" unicode="&#x175;" horiz-adv-x="1605" 
d="M1188 0h-60l-323 932l-334 -932h-61l-371 1036h92l311 -917l324 917h84l313 -911l320 911h84zM999 1214l-188 234l-197 -234h-63l209 295h102l201 -295h-64z" />
    <glyph glyph-name="Ycircumflex" unicode="&#x176;" horiz-adv-x="1218" 
d="M641 0h-86v655l-575 826h104l518 -750l514 750h98l-573 -828v-653zM788 1591l-188 234l-197 -234h-63l209 295h102l201 -295h-64z" />
    <glyph glyph-name="ycircumflex" unicode="&#x177;" horiz-adv-x="985" 
d="M387 -389h-86l164 399l-428 1026h96l371 -911l360 911h84zM696 1214l-188 234l-197 -234h-63l209 295h102l201 -295h-64z" />
    <glyph glyph-name="Ydieresis" unicode="&#x178;" horiz-adv-x="1218" 
d="M641 0h-86v655l-575 826h104l518 -750l514 750h98l-573 -828v-653zM391 1683v134h94v-134h-94zM707 1683v134h94v-134h-94z" />
    <glyph glyph-name="Zacute" unicode="&#x179;" horiz-adv-x="1101" 
d="M37 0v86l905 1315h-844v80h944v-80l-911 -1321h934v-80h-1028zM528 1593h-61l184 293h111z" />
    <glyph glyph-name="zacute" unicode="&#x17a;" horiz-adv-x="868" 
d="M78 0v80l622 883h-606v73h684v-90l-608 -872h621v-74h-713zM403 1214h-61l184 293h111z" />
    <glyph glyph-name="Zdotaccent" unicode="&#x17b;" horiz-adv-x="1101" 
d="M37 0v86l905 1315h-844v80h944v-80l-911 -1321h934v-80h-1028zM526 1683v134h95v-134h-95z" />
    <glyph glyph-name="zdotaccent" unicode="&#x17c;" horiz-adv-x="868" 
d="M78 0v80l622 883h-606v73h684v-90l-608 -872h621v-74h-713zM399 1346v133h95v-133h-95z" />
    <glyph glyph-name="Zcaron" unicode="&#x17d;" horiz-adv-x="1101" 
d="M37 0v86l905 1315h-844v80h944v-80l-911 -1321h934v-80h-1028zM625 1593h-109l-201 293h64l192 -235l193 235h63z" />
    <glyph glyph-name="zcaron" unicode="&#x17e;" horiz-adv-x="868" 
d="M78 0v80l622 883h-606v73h684v-90l-608 -872h621v-74h-713zM500 1214h-109l-201 293h64l192 -235l193 235h63z" />
    <glyph glyph-name="florin" unicode="&#x192;" 
d="M831 1427q-125 0 -151.5 -146.5t-33.5 -181t-13 -70.5t-11 -63l-6 -26h222l-13 -74h-221q-7 -43 -31.5 -167.5t-57.5 -298.5q-31 -174 -59 -320t-63 -293t-209 -147q-35 0 -80 10l17 76q87 -21 125.5 11t59.5 77.5t38 148.5l170 903h-192l14 74h190q0 2 2 11t6.5 34
t10.5 54.5t10 57.5t13 75q28 149 80 240t169 91q46 0 123 -14l-12 -76q-81 14 -97 14z" />
    <glyph glyph-name="Scommaaccent" unicode="&#x218;" horiz-adv-x="1183" 
d="M1071 374q0 -94 -42 -170q-43 -76 -111 -126q-134 -96 -338 -95t-328 97t-139 295h90q4 -139 101 -227t266 -89q169 0 280 71q135 87 135 253t-195 257q-60 28 -133 52l-129 43q-188 64 -256 118q-67 55 -100 115t-33 153t39 165q74 137 240 183t338 12q171 -35 250 -157
q39 -62 43 -153h-91q-11 133 -108 192q-97 58 -242 58q-253 0 -349 -164q-34 -57 -34 -153t80 -166t254 -125l139 -45q88 -29 158 -61q140 -65 190 -181q26 -58 25 -152zM635 -131l-92 -281h-66l55 281h103z" />
    <glyph glyph-name="scommaaccent" unicode="&#x219;" horiz-adv-x="917" 
d="M817 282q0 -141 -111 -227q-99 -73 -255 -73q-238 0 -322 174q-29 59 -31 141h82q12 -248 273 -250q182 0 258 124q27 45 27 99q-1 91 -73 141q-52 37 -182 74l-55 17q-144 40 -198 81q-54 40 -80 85q-27 44 -27 114q0 128 97 202q97 73 244 74q146 1 237 -70t96 -224
h-82q-8 225 -248 225q-166 0 -237 -109q-24 -38 -24 -90q1 -91 61 -134q60 -44 175 -76l43 -13q154 -41 215 -80q60 -39 88 -85t29 -120zM516 -131l-92 -281h-66l56 281h102z" />
    <glyph glyph-name="uni021A" unicode="&#x21a;" horiz-adv-x="1056" 
d="M569 1405v-1405h-86v1405h-475v76h1041v-76h-480zM578 -131l-93 -281h-65l55 281h103z" />
    <glyph glyph-name="uni021B" unicode="&#x21b;" horiz-adv-x="610" 
d="M428 -6q-104 0 -147 54t-43 153v768h-209v67h209v221l81 39v-260h228v-67h-228v-725q1 -92 21 -124t48 -43t66 -11t103 10v-72q-65 -10 -129 -10zM358 -131l-92 -281h-65l55 281h102z" />
    <glyph glyph-name="dotlessj" unicode="&#x237;" horiz-adv-x="442" 
d="M156.5 -263.5q23.5 37.5 23.5 128.5v1171h82v-1194q0 -127 -49 -170t-158 -43q-56 0 -90 9v69q40 -8 104 -8t87.5 37.5z" />
    <glyph glyph-name="circumflex" unicode="&#x2c6;" horiz-adv-x="512" 
d="M449 1214l-189 234l-197 -234h-63l209 295h102l201 -295h-63z" />
    <glyph glyph-name="caron" unicode="&#x2c7;" horiz-adv-x="512" 
d="M309 1214h-108l-201 293h63l193 -235l193 235h63z" />
    <glyph glyph-name="uni02C9" unicode="&#x2c9;" horiz-adv-x="512" 
d="M29 1688v73h454v-73h-454z" />
    <glyph glyph-name="breve" unicode="&#x2d8;" horiz-adv-x="512" 
d="M254 1300q158 0 205 134h57q-10 -86 -78.5 -144.5t-179.5 -58.5t-185.5 56.5t-78.5 146.5h59q11 -59 70.5 -96.5t130.5 -37.5z" />
    <glyph glyph-name="dotaccent" unicode="&#x2d9;" horiz-adv-x="512" 
d="M209 1346v133h94v-133h-94z" />
    <glyph glyph-name="ring" unicode="&#x2da;" horiz-adv-x="512" 
d="M137 1349q0 -54 33 -90t86 -36t86 35.5t33 89.5t-33 90.5t-86 36.5t-86 -36t-33 -90zM82 1347.5q0 73.5 50 124t124 50.5t125 -50.5t51 -124t-51 -123.5t-125 -50t-124 50t-50 123.5z" />
    <glyph glyph-name="ogonek" unicode="&#x2db;" horiz-adv-x="512" 
d="M249 -301q46 0 99 22l14 -38q-70 -35 -124 -35q-99 0 -152 36.5t-53 89.5q0 92 76 144q24 18 88.5 51t83.5 33h59q-113 -49 -168 -96t-55 -102.5t43 -80t89 -24.5z" />
    <glyph glyph-name="tilde" unicode="&#x2dc;" horiz-adv-x="512" 
d="M362 1305q-56 0 -106.5 21.5t-92.5 21.5t-62.5 -12.5t-37.5 -47.5h-59q14 59 56 95t98 36t101.5 -20.5t87.5 -20.5t63.5 15.5t38.5 50.5h59q-16 -55 -53 -97t-93 -42z" />
    <glyph glyph-name="hungarumlaut" unicode="&#x2dd;" horiz-adv-x="512" 
d="M80 1214h-64l189 293h110zM338 1214h-66l189 293h112z" />
    <glyph glyph-name="uni0394" unicode="&#x394;" horiz-adv-x="1271" 
d="M653 1380l-520 -1304h1047zM8 0l602 1481h84l613 -1481h-1299z" />
    <glyph glyph-name="uni03A9" unicode="&#x3a9;" horiz-adv-x="1505" 
d="M121 774q0 324 172 526.5t462 202.5t460.5 -192.5t170.5 -536.5q0 -248 -97 -419t-257 -279h367v-76h-463v76q166 127 261 296t95 398q0 302 -142 481t-395 179t-396.5 -184t-143.5 -476q0 -229 95.5 -398t260.5 -296v-76h-462v76h366q-354 241 -354 698z" />
    <glyph glyph-name="uni03BC" unicode="&#x3bc;" horiz-adv-x="1124" 
d="M967 309q0 -145 4 -309h-84v207q-33 -94 -117 -156.5t-203 -62.5q-210 0 -299 174v-551h-82v1423h82v-594q0 -270 108.5 -324.5t188.5 -54.5q157 0 237.5 109.5t80.5 296.5v567h84v-725z" />
    <glyph glyph-name="pi" unicode="&#x3c0;" horiz-adv-x="1148" 
d="M864 178v783h-557v-961h-84v961h-153v73h1042v-73h-164v-785q0 -63 19 -89t61 -26t96 27v-68q-62 -30 -127 -30q-133 0 -133 188z" />
    <glyph glyph-name="Wgrave" unicode="&#x1e80;" horiz-adv-x="2023" 
d="M1591 0h-116l-469 1370h-9l-450 -1370h-123l-387 1481h92l358 -1399h9l454 1399h105l477 -1399h8l358 1399h89zM1044 1593l-231 293h109l184 -293h-62z" />
    <glyph glyph-name="wgrave" unicode="&#x1e81;" horiz-adv-x="1605" 
d="M1188 0h-60l-323 932l-334 -932h-61l-371 1036h92l311 -917l324 917h84l313 -911l320 911h84zM854 1214l-231 293h108l184 -293h-61z" />
    <glyph glyph-name="Wacute" unicode="&#x1e82;" horiz-adv-x="2023" 
d="M1591 0h-116l-469 1370h-9l-450 -1370h-123l-387 1481h92l358 -1399h9l454 1399h105l477 -1399h8l358 1399h89zM975 1593h-62l185 293h110z" />
    <glyph glyph-name="wacute" unicode="&#x1e83;" horiz-adv-x="1605" 
d="M1188 0h-60l-323 932l-334 -932h-61l-371 1036h92l311 -917l324 917h84l313 -911l320 911h84zM766 1214h-61l184 293h110z" />
    <glyph glyph-name="Wdieresis" unicode="&#x1e84;" horiz-adv-x="2023" 
d="M1591 0h-116l-469 1370h-9l-450 -1370h-123l-387 1481h92l358 -1399h9l454 1399h105l477 -1399h8l358 1399h89zM797 1683v134h94v-134h-94zM1112 1683v134h94v-134h-94z" />
    <glyph glyph-name="wdieresis" unicode="&#x1e85;" horiz-adv-x="1605" 
d="M1188 0h-60l-323 932l-334 -932h-61l-371 1036h92l311 -917l324 917h84l313 -911l320 911h84zM602 1346v133h94v-133h-94zM918 1346v133h94v-133h-94z" />
    <glyph glyph-name="Ygrave" unicode="&#x1ef2;" horiz-adv-x="1218" 
d="M641 0h-86v655l-575 826h104l518 -750l514 750h98l-573 -828v-653zM645 1593l-231 293h108l185 -293h-62z" />
    <glyph glyph-name="ygrave" unicode="&#x1ef3;" horiz-adv-x="985" 
d="M387 -389h-86l164 399l-428 1026h96l371 -911l360 911h84zM549 1214l-232 293h109l184 -293h-61z" />
    <glyph glyph-name="endash" unicode="&#x2013;" horiz-adv-x="1058" 
d="M16 502v61h1024v-61h-1024z" />
    <glyph glyph-name="emdash" unicode="&#x2014;" horiz-adv-x="2084" 
d="M283 502v61h1517v-61h-1517z" />
    <glyph glyph-name="quoteleft" unicode="&#x2018;" horiz-adv-x="559" 
d="M295 1098h-119l135 383h72z" />
    <glyph glyph-name="quoteright" unicode="&#x2019;" horiz-adv-x="559" 
d="M248 1098h-72l90 383h117z" />
    <glyph glyph-name="quotesinglbase" unicode="&#x201a;" horiz-adv-x="567" 
d="M248 -248h-72l94 383h121z" />
    <glyph glyph-name="quotedblleft" unicode="&#x201c;" horiz-adv-x="927" 
d="M297 1098h-121l148 383h71zM653 1098h-118l147 383h70z" />
    <glyph glyph-name="quotedblright" unicode="&#x201d;" horiz-adv-x="927" 
d="M248 1098h-72l98 383h121zM604 1098h-69l98 383h119z" />
    <glyph glyph-name="quotedblbase" unicode="&#x201e;" horiz-adv-x="923" 
d="M248 -248h-72l94 383h121zM606 -248h-74l95 383h121z" />
    <glyph glyph-name="dagger" unicode="&#x2020;" horiz-adv-x="1136" 
d="M608 1022v-1022h-76v1022h-364v68h364v389h76v-389h359v-68h-359z" />
    <glyph glyph-name="daggerdbl" unicode="&#x2021;" horiz-adv-x="1136" 
d="M612 377v-377h-86v377h-358v65h358v592h-358v66h358v379h86v-379h351v-66h-351v-592h355v-65h-355z" />
    <glyph glyph-name="bullet" unicode="&#x2022;" horiz-adv-x="1058" 
d="M790 478.5q-109 -107.5 -261 -107.5q-153 0 -261 108t-108 261t107.5 261.5t262 108.5t262 -107.5t107.5 -262t-109 -262z" />
    <glyph glyph-name="ellipsis" unicode="&#x2026;" horiz-adv-x="2062" 
d="M297 0v133h104v-133h-104zM979 0v133h104v-133h-104zM1661 0v133h104v-133h-104z" />
    <glyph glyph-name="perthousand" unicode="&#x2030;" horiz-adv-x="2084" 
d="M997 549q-107 0 -159 -75t-52 -182t55.5 -180t156.5 -73t156.5 72.5t55.5 182.5q0 111 -53 183t-160 72zM588 1180q0 108 -54 180t-160 72t-159 -75t-53 -182t55 -180t160 -73t158 75t53 183zM1921 296q0 108 -53 180.5t-160 72.5t-159 -75t-52 -182t55.5 -180t159.5 -73
t156.5 74.5t52.5 182.5zM1213 60.5q-79 -95.5 -213 -95.5q-135 0 -214 91.5t-79 228.5q0 233 109.5 284.5t183.5 51.5t128 -25t109 -91.5t55 -207.5t-79 -236.5zM281 -45h-82l921 1548h80zM588 942.5q-80 -94.5 -214 -94.5t-213 93.5t-79 227.5q0 233 109.5 283.5
t183.5 50.5t128 -24.5t109.5 -90.5t55.5 -208q0 -143 -80 -237.5zM1923.5 60.5q-79.5 -95.5 -213.5 -95.5t-214.5 93t-80.5 227q0 232 109.5 284t183.5 52t128 -25t110.5 -92t56.5 -208q0 -140 -79.5 -235.5z" />
    <glyph glyph-name="guilsinglleft" unicode="&#x2039;" horiz-adv-x="583" 
d="M356 135l-200 402l200 395h72l-186 -402l186 -395h-72z" />
    <glyph glyph-name="guilsinglright" unicode="&#x203a;" horiz-adv-x="583" 
d="M229 135h-71l184 400l-186 397h73l199 -402z" />
    <glyph glyph-name="fraction" unicode="&#x2044;" horiz-adv-x="378" 
d="M-225 -49h-82l921 1583h78z" />
    <glyph glyph-name="zero.superior" unicode="&#x2070;" horiz-adv-x="720" 
d="M590 1389q0 261 -128 352q-42 29 -100 29q-112 -1 -172 -104q-59 -102 -59 -275q0 -264 129 -351q43 -28 99 -28q110 1 171 103q60 102 60 274zM659 1394q0 -310 -165 -408q-56 -34 -136 -34t-136 34q-158 96 -159 402q-2 306 165 407q56 34 135 34q150 0 223 -118
t73 -317z" />
    <glyph glyph-name="four.superior" unicode="&#x2074;" horiz-adv-x="720" 
d="M477 1219v510l-352 -510h352zM545 1161v-200h-70v200h-424v60l418 600h76v-602h133v-58h-133z" />
    <glyph glyph-name="five.superior" unicode="&#x2075;" horiz-adv-x="720" 
d="M383 1534q129 0 199 -80t69 -208q0 -128 -76 -211t-196 -83q-121 0 -195 52t-84 163h74q6 -77 59 -117t119 -40q116 0 172 65t57 168q1 102 -51 167t-138 65q-170 0 -210 -148h-65l20 494h471v-62h-403l-21 -338q23 47 75 80t124 33z" />
    <glyph glyph-name="six.superior" unicode="&#x2076;" horiz-adv-x="720" 
d="M573 1235q0 154 -109 204q-38 17 -89 17q-102 0 -159 -66q-56 -67 -56 -159q0 -144 118 -200q40 -19 92 -19q101 0 152 62q51 63 51 161zM578 1433q65 -81 65 -200t-74 -200t-189 -81q-116 0 -177 47q-123 95 -123 332t55 347q74 151 244 151q117 0 183 -57t71 -156h-72
q-21 155 -182 153q-187 0 -221 -250q-10 -73 -11 -153q65 149 232 147q133 0 199 -80z" />
    <glyph glyph-name="seven.superior" unicode="&#x2077;" horiz-adv-x="720" 
d="M88 1757v64h555v-66l-362 -794h-76l373 796h-490z" />
    <glyph glyph-name="eight.superior" unicode="&#x2078;" horiz-adv-x="720" 
d="M584 1194q0 90 -67 136t-159 46t-156 -48t-65 -137q0 -89 66 -135t133 -46q174 0 229 104q19 35 19 80zM573 1599q1 170 -233 170q-66 0 -129 -42t-64 -132q0 -116 134 -150q39 -9 103 -9t127 40q62 41 62 123zM641 1602q0 -149 -170 -195q86 -21 134 -77t48 -126
q0 -124 -84 -187t-207 -64q-124 -1 -210 60t-84 177q0 82 48 137t134 78q-78 17 -124 67t-46 115q0 172 174 227q51 15 107 15q187 0 256 -129q24 -43 24 -98z" />
    <glyph glyph-name="nine.superior" unicode="&#x2079;" horiz-adv-x="720" 
d="M561 1554q0 146 -115 199q-39 19 -90 19q-97 1 -152 -64q-55 -64 -56 -153q0 -89 48 -153t148 -65q100 1 158 63t59 154zM374 1829q167 0 235 -171q32 -81 32 -201q0 -251 -57 -363q-71 -142 -238 -142q-112 0 -182 56t-80 163h72q6 -75 55 -117t128 -42q140 0 191 120
q40 90 45 295q-63 -147 -231 -147q-128 0 -197 76t-69 195t76 199q75 79 220 79z" />
    <glyph glyph-name="zero.inferior" unicode="&#x2080;" horiz-adv-x="720" 
d="M531 368.5q-59 104.5 -170 104.5t-170.5 -104.5t-59.5 -321t86 -274.5t142 -58t99.5 29t87.5 103.5t44 245.5t-59 275.5zM584 -222.5q-75 -121.5 -226 -121.5t-224 120t-73 317t76.5 318t226.5 121t222.5 -118t72.5 -316q0 -199 -75 -320.5z" />
    <glyph glyph-name="one.inferior" unicode="&#x2081;" horiz-adv-x="720" 
d="M422 524v-860h-70v785q-78 -68 -198 -125v65q110 52 200 135h68z" />
    <glyph glyph-name="two.inferior" unicode="&#x2082;" horiz-adv-x="720" 
d="M92 -336v66l230 225q128 122 167 181t50.5 94.5t11.5 74.5q0 76 -50 122t-137 46t-141.5 -51t-54.5 -137h-72q2 115 76 181t189 66t188.5 -57t73.5 -161t-60.5 -189.5t-179.5 -198.5l-203 -200h451v-62h-539z" />
    <glyph glyph-name="three.inferior" unicode="&#x2083;" horiz-adv-x="720" 
d="M465 111q174 -35 174 -223q0 -104 -80 -168t-205 -64t-199.5 63.5t-80.5 174.5h69q8 -90 67.5 -134.5t151.5 -44.5t149.5 50.5t57.5 138.5t-56 132t-148 44q-36 0 -50 -4v65q8 -2 13 -2h39q80 0 133 43t53 127t-56.5 124t-145.5 40t-140 -47t-57 -125h-70q4 109 81 170
t193 61t190.5 -56t74.5 -171q0 -82 -44 -130t-114 -64z" />
    <glyph glyph-name="four.inferior" unicode="&#x2084;" horiz-adv-x="720" 
d="M477 -78v510l-352 -510h352zM545 -135v-201h-70v201h-424v59l418 600h76v-602h133v-57h-133z" />
    <glyph glyph-name="five.inferior" unicode="&#x2085;" horiz-adv-x="720" 
d="M651 -50q0 -128 -75.5 -211t-195.5 -83q-258 0 -280 215h74q6 -78 59 -118t119 -40q114 0 172 67t58 168t-52.5 165.5t-137.5 64.5q-170 0 -210 -147h-65l20 493h471v-61h-403l-21 -338q23 47 75 80t124 33q129 0 198.5 -80t69.5 -208z" />
    <glyph glyph-name="six.inferior" unicode="&#x2086;" horiz-adv-x="720" 
d="M523.5 97.5q-49.5 62.5 -149.5 62.5q-101 0 -157.5 -66.5t-56.5 -159.5q0 -141 79 -180t131 -39t90 17.5t75.5 63t37.5 142.5t-49.5 159.5zM381 -344q-301 0 -301 374q0 241 64.5 371.5t234.5 130.5q117 0 182.5 -57t71.5 -156h-72q-21 154 -182 154q-232 0 -232 -403
q65 147 232 147q133 0 198.5 -80.5t65.5 -198.5t-72.5 -200t-189.5 -82z" />
    <glyph glyph-name="seven.inferior" unicode="&#x2087;" horiz-adv-x="720" 
d="M88 461v63h555v-65l-362 -795h-76l373 797h-490z" />
    <glyph glyph-name="eight.inferior" unicode="&#x2088;" horiz-adv-x="720" 
d="M358.5 80q-92.5 0 -157 -48t-64.5 -137t65.5 -135.5t156.5 -46.5t158 48.5t67 137.5t-66.5 135t-159 46zM513 430.5q-60 42.5 -150 42.5q-89 0 -152.5 -42t-63.5 -132q0 -118 86 -139t127 -21t80 10.5t86 41t47 114t-60 126zM653 -92q0 -126 -85.5 -189t-206.5 -63
q-122 0 -207.5 59.5t-85.5 178.5q0 82 48 137t134 78q-78 18 -124 66.5t-46 114.5q0 120 81.5 181t200.5 61q185 0 232 -86t47 -152t-46 -114.5t-124 -68.5q86 -20 134 -76.5t48 -126.5z" />
    <glyph glyph-name="nine.inferior" unicode="&#x2089;" horiz-adv-x="720" 
d="M561 258q0 143 -76.5 180t-128.5 37q-97 0 -153 -64.5t-56 -152.5t48.5 -152.5t148.5 -64.5t158.5 62.5t58.5 154.5zM343 532q298 0 298 -372q0 -247 -64 -375.5t-231 -128.5q-111 0 -181.5 55.5t-80.5 163.5h72q6 -74 55 -117t128 -43q139 0 185 105.5t51 310.5
q-63 -147 -231 -147q-126 0 -196 76t-70 194.5t75 198t190 79.5z" />
    <glyph glyph-name="Euro" unicode="&#x20ac;" 
d="M229 701v68q0 62 2 85h-165l16 68h156q45 399 208.5 490t291.5 91q210 0 329 -104l-20 -82q-37 39 -111 76t-188 37q-204 0 -302.5 -144.5t-121.5 -363.5h618l-16 -68h-609q-2 -23 -2 -28v-68q0 -62 2 -86h560l-19 -68h-539q19 -250 115.5 -401.5t317.5 -151.5
q181 0 295 103v-97q-119 -80 -272 -80q-154 0 -247.5 43t-182 159.5t-109.5 424.5h-175l17 68h153q-2 23 -2 29z" />
    <glyph glyph-name="afii61289" unicode="&#x2113;" horiz-adv-x="954" 
d="M733 1225q0 100 -42 154.5t-113.5 54.5t-125 -65.5t-53.5 -213.5v-561q334 370 334 631zM809 1216q0 -290 -410 -724v-236q0 -111 48.5 -158t121.5 -47q119 0 207 107l51 -47q-111 -133 -266 -134q-115 0 -178.5 70t-63.5 213v150l-126 -129l-48 51l174 178v633
q0 182 72 270t184 88t173 -74.5t61 -210.5z" />
    <glyph glyph-name="trademark" unicode="&#x2122;" horiz-adv-x="1941" 
d="M522 1407v-674h-71v674h-271v61h608v-61h-266zM1569 733v664l-262 -664h-58l-264 664v-664h-72v735h109l256 -637l258 637h104v-735h-71z" />
    <glyph glyph-name="Omega" unicode="&#x2126;" horiz-adv-x="1505" 
d="M121 774q0 324 172 526.5t462 202.5t460.5 -192.5t170.5 -536.5q0 -248 -97 -419t-257 -279h367v-76h-463v76q166 127 261 296t95 398q0 302 -142 481t-395 179t-396.5 -184t-143.5 -476q0 -229 95.5 -398t260.5 -296v-76h-462v76h366q-354 241 -354 698z" />
    <glyph glyph-name="estimated" unicode="&#x212e;" horiz-adv-x="1228" 
d="M918 604v297q-129 123 -301.5 123t-294.5 -123v-297h596zM322 530v-370q121 -121 296 -121q129 0 223.5 58.5t172.5 187.5l71 -43q-96 -151 -202 -214t-246 -63t-237 44t-166.5 121t-106.5 179.5t-37 284t146.5 342t382.5 160.5q235 0 382.5 -159t147.5 -407h-827z" />
    <glyph glyph-name="onethird" unicode="&#x2153;" horiz-adv-x="1781" 
d="M401 1481v-860h-69v786q-71 -65 -199 -127v68q116 55 201 133h67zM434 -49h-84l924 1581h78zM1153 225q15 -178 219 -178q92 0 158.5 46.5t66.5 138.5q0 91 -59 135.5t-152 44.5h-53v63q14 -2 17 -2h39q78 0 135 44t57 122q0 124 -86 147t-127 23q-187 0 -207 -172h-67
q4 104 82 167.5t231 63.5t198.5 -87t45.5 -155t-49.5 -113.5t-120.5 -68.5q74 -18 130 -68t56 -130t-50.5 -169t-247.5 -89q-124 0 -201.5 63.5t-84.5 173.5h70z" />
    <glyph glyph-name="twothirds" unicode="&#x2154;" horiz-adv-x="1781" 
d="M512 -49h-84l924 1581h78zM1712 637q0 -139 -170 -193q74 -18 130.5 -68t56.5 -130t-51.5 -169t-247.5 -89q-123 0 -201 63.5t-84 173.5h69q11 -135 94 -156.5t126 -21.5q93 0 159 47t66 138t-59.5 135.5t-151.5 44.5h-53v63q14 -2 17 -2h38q78 0 135 44t57 122
q0 124 -86 147t-126 23q-187 0 -207 -172h-68q4 104 82 167.5t231 63.5t198.5 -87t45.5 -144zM113 623v67q77 71 119 113.5t78 78.5t88 91q168 177 169 293q0 76 -51 120t-134 44t-138.5 -49.5t-53.5 -135.5h-73q2 115 75.5 180.5t187.5 65.5t187.5 -57.5t73.5 -149.5
t-48.5 -173t-98.5 -135t-59 -62l-71 -72q-63 -62 -98 -94.5t-61 -59.5h446v-65h-538z" />
    <glyph glyph-name="oneeighth" unicode="&#x215b;" horiz-adv-x="1781" 
d="M436 -49h-84l922 1583h78zM401 1481v-860h-69v786q-71 -65 -199 -127v68q116 55 201 133h67zM1529.5 368.5q-67.5 47.5 -160.5 47.5t-157.5 -50t-64.5 -136q0 -87 63 -135t157 -48t162 47.5t68 137.5q0 89 -67.5 136.5zM1525.5 764q-61.5 45 -150.5 45t-153.5 -43
t-64.5 -131q0 -118 87 -139t128 -21t80 10.5t87 42t48 111.5t-61.5 125zM1667 242q0 -124 -84 -189t-211 -65q-198 0 -246.5 89t-48.5 159t49.5 128t135.5 80q-76 18 -124 67t-48 115q0 117 80 179.5t204 62.5q187 0 234 -86t47 -152t-48 -114.5t-124 -69.5
q86 -23 135 -78.5t49 -125.5z" />
    <glyph glyph-name="threeeighths" unicode="&#x215c;" horiz-adv-x="1781" 
d="M367 1427q-187 0 -207 -172h-68q4 106 83 169t196 63t197.5 -61t80.5 -171q0 -78 -49 -124t-121 -68q74 -18 130.5 -67.5t56.5 -129.5q0 -135 -88.5 -197.5t-211.5 -62.5q-122 0 -200 63.5t-84 174.5h70q15 -178 217 -178q155 0 191 68.5t36 115.5q0 92 -59.5 136
t-151.5 44h-53v64q14 -2 18 -2h37q78 0 135.5 44t57.5 121q0 125 -86 147.5t-127 22.5zM455 -49h-84l921 1583h78zM1529.5 368.5q-67.5 47.5 -160.5 47.5t-157.5 -50t-64.5 -136q0 -87 63 -135t157 -48t162 47.5t68 137.5q0 89 -67.5 136.5zM1525.5 764q-61.5 45 -150.5 45
t-153.5 -43t-64.5 -131q0 -118 87 -139t128 -21t80 10.5t87 42t48 111.5t-61.5 125zM1667 242q0 -124 -84 -189t-211 -65q-198 0 -246.5 89t-48.5 159t49.5 128t135.5 80q-76 18 -124 67t-48 115q0 117 80 179.5t204 62.5q187 0 234 -86t47 -152t-48 -114.5t-124 -69.5
q86 -23 135 -78.5t49 -125.5z" />
    <glyph glyph-name="fiveeighths" unicode="&#x215d;" horiz-adv-x="1781" 
d="M392 606q-119 0 -194 53.5t-85 163.5h73q6 -78 60 -117.5t120 -39.5q113 0 172.5 67.5t59.5 167.5t-54.5 164.5t-138.5 64.5t-138 -38.5t-72 -108.5h-66l21 498h473v-62h-406l-20 -342q23 47 75 80t123 33q131 0 202 -80t71 -207t-78.5 -212t-197.5 -85zM455 -49h-84
l921 1583h78zM1529.5 368.5q-67.5 47.5 -160.5 47.5t-157.5 -50t-64.5 -136q0 -87 63 -135t157 -48t162 47.5t68 137.5q0 89 -67.5 136.5zM1525.5 764q-61.5 45 -150.5 45t-153.5 -43t-64.5 -131q0 -118 87 -139t128 -21t80 10.5t87 42t48 111.5t-61.5 125zM1667 242
q0 -124 -84 -189t-211 -65q-198 0 -246.5 89t-48.5 159t49.5 128t135.5 80q-76 18 -124 67t-48 115q0 117 80 179.5t204 62.5q187 0 234 -86t47 -152t-48 -114.5t-124 -69.5q86 -23 135 -78.5t49 -125.5z" />
    <glyph glyph-name="seveneighths" unicode="&#x215e;" horiz-adv-x="1781" 
d="M442 -49h-84l922 1583h78zM1529.5 368.5q-67.5 47.5 -160.5 47.5t-157.5 -50t-64.5 -136q0 -87 63 -135t157 -48t162 47.5t68 137.5q0 89 -67.5 136.5zM1525.5 764q-61.5 45 -150.5 45t-153.5 -43t-64.5 -131q0 -118 87 -139t128 -21t80 10.5t87 42t48 111.5t-61.5 125z
M1667 242q0 -124 -84 -189t-211 -65q-198 0 -246.5 89t-48.5 159t49.5 128t135.5 80q-76 18 -124 67t-48 115q0 117 80 179.5t204 62.5q187 0 234 -86t47 -152t-48 -114.5t-124 -69.5q86 -23 135 -78.5t49 -125.5zM209 1415v66h555v-66l-365 -794h-75l372 794h-487z" />
    <glyph glyph-name="partialdiff" unicode="&#x2202;" horiz-adv-x="1089" 
d="M736.5 182q107.5 131 140.5 393q-51 92 -138.5 156t-178.5 64q-166 0 -271 -113.5t-105 -273.5q0 -161 80 -259t222.5 -98t250 131zM464 1501q144 0 235.5 -69.5t180.5 -232t89 -458.5q0 -366 -139.5 -565t-354.5 -199q-179 0 -279 121t-100 311t124.5 324.5t307.5 134.5
q226 0 355 -196q2 18 2 22v51q0 264 -76 412t-152.5 209t-194.5 61t-259 -90l-33 68q150 96 294 96z" />
    <glyph glyph-name="Delta" unicode="&#x2206;" horiz-adv-x="1271" 
d="M653 1380l-520 -1304h1047zM8 0l602 1481h84l613 -1481h-1299z" />
    <glyph glyph-name="product" unicode="&#x220f;" horiz-adv-x="1452" 
d="M1200 -416v1946h-932v-1946h-84v2024h1100v-2024h-84z" />
    <glyph glyph-name="summation" unicode="&#x2211;" horiz-adv-x="1214" 
d="M84 -416v72l676 938l-647 940v74h1024v-78h-920l647 -936l-676 -934h969v-76h-1073z" />
    <glyph glyph-name="minus" unicode="&#x2212;" horiz-adv-x="1296" 
d="M145 457v78h1008v-78h-1008z" />
    <glyph glyph-name="uni2215" unicode="&#x2215;" horiz-adv-x="378" 
d="M-225 -49h-82l921 1583h78z" />
    <glyph glyph-name="uni2219" unicode="&#x2219;" horiz-adv-x="561" 
d="M225 608v137h111v-137h-111z" />
    <glyph glyph-name="radical" unicode="&#x221a;" horiz-adv-x="1069" 
d="M596 -416h-88l-303 772l-101 -39l-24 58l176 71l289 -745l471 1907h88z" />
    <glyph glyph-name="infinity" unicode="&#x221e;" horiz-adv-x="1486" 
d="M390 293q87 0 165 61.5t158 147.5q-113 113 -176.5 160t-146.5 47t-140 -60.5t-57 -149.5t55 -147.5t142 -58.5zM1284 651.5q-55 57.5 -156 57.5t-189.5 -85t-123.5 -122q104 -106 172 -157.5t127 -51.5q103 0 164 59.5t61 150.5t-55 148.5zM1335.5 302.5
q-83.5 -81.5 -203.5 -81.5t-215.5 85t-152.5 143q-112 -112 -197 -170t-193 -58t-185.5 78.5t-77.5 197.5t82 202t191 83t192 -58t188 -169q114 114 200 170.5t194 56.5q107 0 184 -79t77 -199t-83.5 -201.5z" />
    <glyph glyph-name="integral" unicode="&#x222b;" horiz-adv-x="860" 
d="M657 1534q-92 0 -126.5 -78t-34.5 -252v-1218q0 -211 -58.5 -305.5t-181.5 -94.5q-55 0 -90 15l14 65q31 -10 66 -10q92 0 127 78t35 252v1218q0 211 57 305.5t182 94.5q53 0 88 -15l-14 -65q-30 10 -64 10z" />
    <glyph glyph-name="approxequal" unicode="&#x2248;" horiz-adv-x="1296" 
d="M313 442q138 0 340 -78q201 -78 279 -79q78 0 116.5 49t55.5 121h61q-22 -169 -101 -207.5t-149 -38.5q-70 1 -208 55t-210.5 79.5t-138.5 25.5t-107.5 -50.5t-53.5 -121.5h-64q42 245 180 245zM313.5 780q138.5 0 277.5 -54q138 -54 212.5 -78.5t140.5 -24.5
q120 0 160 170h61q-22 -169 -101 -207.5t-149 -38.5q-70 1 -208 55t-210.5 79.5t-138.5 25.5t-107.5 -50.5t-53.5 -121.5h-64q42 245 180.5 245z" />
    <glyph glyph-name="notequal" unicode="&#x2260;" horiz-adv-x="1296" 
d="M145 266v78h375l160 301h-535v78h578l156 295l69 -37l-139 -258h344v-78h-385l-160 -301h545v-78h-588l-155 -289l-66 37l135 252h-334z" />
    <glyph glyph-name="lessequal" unicode="&#x2264;" horiz-adv-x="1296" 
d="M145 0v78h1008v-78h-1008zM145 567v84l1008 406v-84l-903 -363l903 -360v-86z" />
    <glyph glyph-name="greaterequal" unicode="&#x2265;" horiz-adv-x="1296" 
d="M145 0v78h1008v-78h-1008zM145 164v86l902 360l-902 363v84l1008 -406v-84z" />
    <glyph glyph-name="lozenge" unicode="&#x25ca;" horiz-adv-x="1056" 
d="M543 1446l-340 -705l342 -708l340 708zM582 -61h-78l-395 802l395 801h80l395 -801z" />
    <glyph glyph-name="f_i" unicode="&#xf001;" horiz-adv-x="1050" 
d="M490 1427q-56 0 -89 -12q-61 -22 -73 -99q-6 -38 -6 -89v-191h227v-67h-227v-969h-82v969h-211v67h211v226q0 172 111 218q43 17 103 17t115 -6v-70q-23 6 -79 6zM791 0v1036h81v-1036h-81zM784 1346v135h95v-135h-95z" />
    <glyph glyph-name="f_l" unicode="&#xf002;" horiz-adv-x="1048" 
d="M490 1427q-56 0 -89 -12q-61 -22 -73 -99q-6 -38 -6 -89v-191h227v-67h-227v-969h-82v969h-211v67h211v226q0 172 111 218q43 17 103 17t115 -6v-70q-23 6 -79 6zM791 0v1481h81v-1481h-81z" />
    <glyph glyph-name="uniF8FF" unicode="&#xf8ff;" horiz-adv-x="1048" 
d="M1049 1470v-1470h-1049v1470h1049zM946 102v1264h-844v-1264h844zM457 479v35q0 109 25.5 165t92.5 121t86 102.5t19 95.5q0 59 -46 103t-109.5 44t-109.5 -45t-59 -150l-102 17q14 147 90 213.5t186 66.5t182 -70t72 -186q0 -77 -25 -130t-81 -105q-85 -79 -104 -116.5
t-19 -111.5v-49h-98zM455 240v137h114v-137h-114z" />
    <glyph glyph-name="grave.cap" horiz-adv-x="512" 
d="M299 1593l-231 293h108l184 -293h-61z" />
    <glyph glyph-name="acute.cap" horiz-adv-x="512" 
d="M213 1593h-61l184 293h110z" />
    <glyph glyph-name="circumflex.cap" horiz-adv-x="512" 
d="M449 1591l-189 234l-197 -234h-63l209 295h102l201 -295h-63z" />
    <glyph glyph-name="caron.cap" horiz-adv-x="512" 
d="M309 1593h-108l-201 293h63l193 -235l193 235h63z" />
    <glyph glyph-name="caron.alt" horiz-adv-x="438" 
d="M344 1481l-111 -307h-69l67 307h113z" />
    <glyph glyph-name="tilde.cap" horiz-adv-x="512" 
d="M362 1683q-56 0 -106.5 21.5t-92.5 21.5t-62.5 -12t-37.5 -47h-59q14 59 56 95t98 36t101.5 -20.5t87.5 -20.5t63.5 15.5t38.5 50.5h59q-16 -55 -53 -97.5t-93 -42.5z" />
    <glyph glyph-name="dieresis.cap" horiz-adv-x="512" 
d="M51 1683v134h94v-134h-94zM367 1683v134h94v-134h-94z" />
    <glyph glyph-name="macron.cap" horiz-adv-x="512" 
d="M29 1688v73h454v-73h-454z" />
    <glyph glyph-name="breve.cap" horiz-adv-x="512" 
d="M254 1686q159 0 205 133h57q-10 -84 -78.5 -142.5t-178.5 -58.5t-185.5 55t-79.5 146h59q11 -59 70 -96t131 -37z" />
    <glyph glyph-name="ring.cap" horiz-adv-x="512" 
d="M137 1687q0 -54 33 -90t86 -36t86 35.5t33 89.5t-33 90t-86 36t-86 -35.5t-33 -89.5zM82 1685.5q0 73.5 50 124t124 50.5t125 -50.5t51 -124t-51 -124t-125 -50.5t-124 50.5t-50 124z" />
    <glyph glyph-name="hungarumlaut.cap" horiz-adv-x="512" 
d="M80 1593h-64l189 293h110zM338 1593h-66l189 293h112z" />
    <glyph glyph-name="dotaccent.cap" horiz-adv-x="512" 
d="M209 1683v134h94v-134h-94z" />
    <glyph glyph-name="commaaccent" horiz-adv-x="438" 
d="M264 -131l-92 -281h-66l56 281h102z" />
    <glyph glyph-name="commaaccent.alt" horiz-adv-x="1150" 
d="M487 1214l95 293h65l-57 -293h-103z" />
    <glyph glyph-name="exclam.sc" horiz-adv-x="479" 
d="M188 0v131h103v-131h-103zM272 254h-65l-12 864h92z" />
    <glyph glyph-name="dollar.sc" horiz-adv-x="931" 
d="M174 841q0 -91 61 -137.5t199 -89.5v441q-179 -7 -219.5 -85.5t-40.5 -128.5zM768 280q0 104 -69.5 152.5t-202.5 87.5v-465q121 6 196.5 63.5t75.5 161.5zM96 836q0 133 95.5 206.5t242.5 79.5v125h62v-125q228 -13 277.5 -100.5t53.5 -149.5h-79q-10 92 -82 135.5
t-170 47.5v-457q182 -54 240.5 -98.5t84 -93t25.5 -117.5q0 -145 -96.5 -220t-253.5 -81v-123h-62v123q-166 6 -253 84t-95 219h82q4 -98 66.5 -163t199.5 -73v482q-159 43 -219.5 87t-89.5 92t-29 120z" />
    <glyph glyph-name="percent.sc" horiz-adv-x="1527" 
d="M1334.5 446q-43.5 68 -139.5 68t-141.5 -67.5t-45.5 -162.5t31.5 -144.5t67.5 -70t87 -20.5t87 21.5t66.5 69.5t30.5 143t-43.5 163zM999.5 75q-67.5 85 -67.5 206q0 120 67 207t195 87t194 -85.5t66 -207.5t-67.5 -207t-193.5 -85t-193.5 85zM476.5 1005
q-43.5 68 -139.5 68t-141.5 -67.5t-45.5 -162.5t31.5 -144.5t67.5 -70t87 -20.5t87 21.5t66.5 69.5t30.5 143t-43.5 163zM141.5 633q-67.5 84 -67.5 207t68 209t194.5 86t193 -85.5t66.5 -208t-67.5 -207.5t-193.5 -85t-193.5 84zM418 -37h-84l749 1194h80z" />
    <glyph glyph-name="ampersand.sc" horiz-adv-x="1112" 
d="M807 565h-195q-212 0 -333 -52.5t-121 -228.5t165.5 -195t256.5 -19h227v495zM215 848q0 -215 387 -215h205v264h78v-264h207v-68h-207v-565h-322q-235 0 -361 67.5t-126 252.5t120.5 229.5t186.5 52.5q-123 16 -187.5 79t-64.5 155q0 158 116.5 230.5t256.5 72.5
t237 -29v-70q-111 29 -186 29q-149 0 -244.5 -52t-95.5 -169z" />
    <glyph glyph-name="zero.sc" horiz-adv-x="937" 
d="M754 567.5q0 73.5 -13.5 160.5t-46 164t-88 128t-141.5 51t-141.5 -51t-86 -127t-41 -164t-10.5 -226t62 -297t221 -159q84 0 139.5 53.5t87 132t45 170t13.5 165zM749 159q-87 -182 -285 -182q-199 0 -280.5 179.5t-81.5 481.5t126 401.5t238 99.5t182.5 -56.5
t129 -176.5t58.5 -342q0 -223 -87 -405z" />
    <glyph glyph-name="one.sc" horiz-adv-x="937" 
d="M537 1118v-1118h-80v1028q-96 -86 -254 -162v78q123 55 258 174h76z" />
    <glyph glyph-name="two.sc" horiz-adv-x="937" 
d="M109 0v74l325 334q128 128 198 230.5t70 205.5q0 102 -66 164.5t-178 62.5t-184.5 -69.5t-72.5 -188.5h-82q0 147 95.5 236.5t242.5 89.5t237 -80t90 -225t-102 -264t-156 -175l-319 -325h592v-70h-690z" />
    <glyph glyph-name="three.sc" horiz-adv-x="937" 
d="M836 296q0 -144 -106 -231.5t-270 -87.5q-163 0 -258.5 84t-109.5 230h84q14 -127 94 -185.5t205 -58.5t202 70.5t77 187.5t-75 180.5t-202 63.5h-31q-30 0 -43 -2v71h72q170 0 212 85t42 135q0 111 -72.5 172t-191.5 61t-192.5 -63.5t-77.5 -167.5h-82
q8 140 108.5 219.5t246.5 79.5t244.5 -77.5t98.5 -221.5q0 -92 -53 -160t-152 -96q156 -29 193 -123.5t37 -164.5z" />
    <glyph glyph-name="four.sc" horiz-adv-x="937" 
d="M610 330v686l-465 -686h465zM688 262v-262h-78v262h-540v78l526 778h92v-788h182v-68h-182z" />
    <glyph glyph-name="five.sc" horiz-adv-x="937" 
d="M227 592q85 137 274 137q161 0 248 -102.5t87 -267.5q0 -167 -101.5 -274.5t-267.5 -107.5q-228 0 -281 106.5t-55 180.5h82q6 -111 75.5 -164t159.5 -53t144.5 24.5t90.5 67.5t53.5 99.5t17.5 154.5t-69 183.5t-204 85.5q-92 0 -161.5 -50.5t-92.5 -142.5h-77l26 649
h606v-69h-530z" />
    <glyph glyph-name="six.sc" horiz-adv-x="937" 
d="M681 561.5q-69 83.5 -197 83.5t-207.5 -87t-79.5 -210t74.5 -212t204.5 -89t202 87t72 215q0 129 -69 212.5zM734 87q-97 -110 -246 -110q-150 0 -231 68t-117 173q-36 104 -36 244t11.5 250.5t77.5 268.5t290 158t274 -104.5t52 -176.5h-82q-8 98 -65.5 155.5
t-161.5 57.5t-210 -81.5t-106 -477.5q41 102 125.5 151.5t176.5 49.5t155.5 -28t126.5 -102.5t63 -230.5q0 -155 -97 -265z" />
    <glyph glyph-name="seven.sc" horiz-adv-x="937" 
d="M111 1049v69h706v-74l-452 -1044h-91l463 1049h-626z" />
    <glyph glyph-name="eight.sc" horiz-adv-x="937" 
d="M264.5 113.5q84.5 -66.5 206.5 -66.5t206.5 66.5t84.5 183t-87 183.5t-205.5 67t-204 -67.5t-85.5 -183.5t84.5 -182.5zM741 833q0 57 -21.5 102.5t-58 76t-86 46t-135 15.5t-163.5 -63.5t-78 -172.5q0 -110 78.5 -167.5t193.5 -57.5q180 0 225 82t45 139zM844 308
q0 -93 -31 -152.5t-81 -99.5t-117.5 -59.5t-184 -19.5t-225.5 81.5t-109 234.5q0 104 59.5 179t170.5 106q-90 23 -149.5 89.5t-59.5 154.5q0 154 100.5 235.5t251.5 81.5t253.5 -79.5t102.5 -225.5q0 -98 -57 -165t-152 -91q104 -29 166 -103t62 -167z" />
    <glyph glyph-name="nine.sc" horiz-adv-x="937" 
d="M666.5 981.5q-70.5 89.5 -200.5 89.5t-205 -89.5t-75 -209.5q0 -196 97 -245.5t165 -49.5t121.5 24.5t110.5 88.5t57 183t-70.5 208.5zM831 662q0 -146 -11 -256.5t-51 -206t-118 -159t-209 -63.5q-223 0 -277 109t-56 178h84q8 -100 71.5 -159.5t169.5 -59.5t212 87.5
t106 473.5q-35 -98 -121.5 -148t-178.5 -50q-168 0 -258 102t-90 256t99 263.5t256 109.5q198 0 258.5 -92.5t79.5 -139.5q34 -99 34 -245z" />
    <glyph glyph-name="question.sc" horiz-adv-x="856" 
d="M281 0v131h102v-131h-102zM342 1069q-68 0 -162 -20v71q164 36 333 -6t169 -251q0 -79 -55.5 -160.5t-182.5 -188.5q-47 -41 -61 -70.5t-14 -76.5v-113h-78v106q0 75 20.5 115.5t81.5 93.5q116 101 160.5 165.5t44.5 147.5q0 82 -68.5 134.5t-187.5 52.5z" />
    <glyph glyph-name="a.sc" horiz-adv-x="1116" 
d="M276 397h551l-280 631zM860 326h-614l-140 -326h-90l490 1118h82l510 -1118h-92z" />
    <glyph glyph-name="b.sc" horiz-adv-x="1081" 
d="M838 836q0 104 -76 157.5t-205 53.5h-281v-433h265q208 0 252.5 80.5t44.5 141.5zM802 496q-83 51 -235 51h-291v-477h248q179 0 270 50.5t91 187.5t-83 188zM969 301q0 -301 -432 -301h-342v1118h374q158 0 254.5 -71.5t96.5 -206.5q0 -98 -53.5 -163t-143.5 -91
q101 -18 148 -56t72.5 -89.5t25.5 -139.5z" />
    <glyph glyph-name="c.sc" horiz-adv-x="1089" 
d="M612 -23q-265 0 -385.5 165t-120.5 408t126 416t370 173t310.5 -101.5t74.5 -175.5h-88q-43 205 -291 205q-208 0 -313 -155t-105 -364t101.5 -353t312.5 -144q236 0 303 213h88q-31 -137 -134 -212t-249 -75z" />
    <glyph glyph-name="d.sc" horiz-adv-x="1210" 
d="M1020 572q0 476 -510 477h-234v-979h195q256 0 385 98q164 120 164 404zM195 0v1118h311q242 0 387 -92q211 -139 211 -456.5t-191 -454.5q-157 -115 -440 -115h-278z" />
    <glyph glyph-name="e.sc" horiz-adv-x="1003" 
d="M195 0v1118h692v-69h-611v-431h590v-69h-590v-479h637v-70h-718z" />
    <glyph glyph-name="f.sc" horiz-adv-x="919" 
d="M276 1049v-426h558v-70h-558v-553h-81v1118h661v-69h-580z" />
    <glyph glyph-name="g.sc" horiz-adv-x="1148" 
d="M665 -14q-167 0 -267.5 46t-196 164.5t-95.5 364.5t130.5 412t377.5 166q156 0 261 -75.5t124 -219.5h-81q-16 111 -98.5 168t-200.5 57q-213 0 -321 -149t-108 -358t110.5 -357t336.5 -148q154 0 297 45v385h-309v72h391v-510q-184 -63 -351 -63z" />
    <glyph glyph-name="h.sc" horiz-adv-x="1241" 
d="M963 0v543h-687v-543h-81v1118h81v-504h687v504h84v-1118h-84z" />
    <glyph glyph-name="i.sc" horiz-adv-x="471" 
d="M195 0v1118h81v-1118h-81z" />
    <glyph glyph-name="j.sc" horiz-adv-x="817" 
d="M117 229q0 -178 228 -178q114 0 169 75t55 191v801h82v-809q0 -230 -118.5 -281t-192.5 -51q-144 0 -226.5 68t-82.5 184v29h86v-29z" />
    <glyph glyph-name="k.sc" horiz-adv-x="1017" 
d="M887 0l-608 602l557 516h108l-567 -512l622 -606h-112zM195 0v1118h81v-1118h-81z" />
    <glyph glyph-name="l.sc" horiz-adv-x="909" 
d="M195 0v1118h81v-1048h607v-70h-688z" />
    <glyph glyph-name="m.sc" horiz-adv-x="1554" 
d="M1280 0v1042l-455 -1042h-84l-471 1042v-1042h-75v1118h124l465 -1038l449 1038h127v-1118h-80z" />
    <glyph glyph-name="n.sc" horiz-adv-x="1251" 
d="M270 0h-75v1118h98l686 -1014v1014h78v-1118h-101l-686 1012v-1012z" />
    <glyph glyph-name="o.sc" horiz-adv-x="1232" 
d="M1040 566q0 342 -151.5 421.5t-315.5 79.5t-272 -146.5t-108 -354.5q0 -207 108 -361t319 -154q210 0 315 153.5t105 361.5zM242 147.5q-136 170.5 -136 415.5t134 410.5t385 165.5t376 -160.5t125 -408.5q0 -249 -129 -421t-374 -172t-381 170.5z" />
    <glyph glyph-name="p.sc" horiz-adv-x="989" 
d="M840 809q0 134 -95 192q-76 48 -235 48h-234v-486h183q151 0 227 26t115 85t39 135zM922 811q0 -100 -63 -194.5t-200 -108.5t-210 -14h-173v-494h-81v1118h315q184 0 283 -57q129 -78 129 -250z" />
    <glyph glyph-name="q.sc" horiz-adv-x="1232" 
d="M1040 565q0 343 -151.5 422.5t-316.5 79.5t-272 -147.5t-107 -353.5q0 -207 108.5 -356t318.5 -149t315 149.5t105 354.5zM1153 63v-63h-199q-132 0 -199 -6t-167 -6t-196.5 48t-191 167t-94.5 362t134 408.5t385 165.5t376 -160.5t125 -415.5t-100 -364t-174 -142
q73 6 223 6h78z" />
    <glyph glyph-name="r.sc" horiz-adv-x="1083" 
d="M860 837q0 95 -68 153t-225 59h-291v-433h306q194 0 236 83.5t42 137.5zM586 547h-310v-547h-81v1118h385q262 0 312 -102t50 -186t-55.5 -152t-155.5 -94q88 -20 127 -91t48 -200t24.5 -188.5t48.5 -104.5h-94q-42 72 -54 200t-25 188.5t-50 109.5t-170 49z" />
    <glyph glyph-name="s.sc" horiz-adv-x="983" 
d="M795 285q0 96 -65.5 144t-201.5 89l-116 35q-129 39 -210 106.5t-81 196.5t108 206t269 77q242 0 301 -93.5t63 -162.5h-84q-8 96 -87.5 141t-166.5 45q-155 0 -238 -57t-83 -154q0 -96 68.5 -148.5t172.5 -82.5l117 -35q160 -47 239 -115.5t79 -202.5t-110 -215.5
t-283 -81.5t-280.5 83t-115.5 227h86q4 -96 83.5 -167t225.5 -71q211 0 260.5 86t49.5 150z" />
    <glyph glyph-name="t.sc" horiz-adv-x="878" 
d="M481 1049v-1049h-84v1049h-381v69h846v-69h-381z" />
    <glyph glyph-name="u.sc" horiz-adv-x="1218" 
d="M1053 416q-1 -439 -437 -439q-226 0 -338 105.5t-112 333.5v702h84v-696q0 -274 128 -323.5t230 -49.5q197 0 279 97t82 276v696h84v-702z" />
    <glyph glyph-name="v.sc" horiz-adv-x="1048" 
d="M575 0h-92l-467 1118h88l426 -1042l416 1042h84z" />
    <glyph glyph-name="w.sc" horiz-adv-x="1642" 
d="M1282 0h-96l-373 1018l-360 -1018h-103l-311 1118h86l283 -1034l360 1034h90l375 -1034l285 1034h86z" />
    <glyph glyph-name="x.sc" horiz-adv-x="1044" 
d="M903 0l-389 516l-375 -516h-100l430 580l-418 538h101l368 -483l352 483h97l-404 -543l441 -575h-103z" />
    <glyph glyph-name="y.sc" horiz-adv-x="964" 
d="M524 0h-82v492l-454 626h98l399 -557l396 557h96l-453 -626v-492z" />
    <glyph glyph-name="z.sc" horiz-adv-x="913" 
d="M39 0v70l719 977h-670v71h770v-69l-721 -979h737v-70h-835z" />
    <glyph glyph-name="agrave.sc" horiz-adv-x="1116" 
d="M276 397h551l-280 631zM860 326h-614l-140 -326h-90l490 1118h82l510 -1118h-92zM565 1296l-231 293h108l185 -293h-62z" />
    <glyph glyph-name="aacute.sc" horiz-adv-x="1116" 
d="M276 397h551l-280 631zM860 326h-614l-140 -326h-90l490 1118h82l510 -1118h-92zM528 1296h-61l184 293h111z" />
    <glyph glyph-name="acircumflex.sc" horiz-adv-x="1116" 
d="M276 397h551l-280 631zM860 326h-614l-140 -326h-90l490 1118h82l510 -1118h-92zM743 1296l-188 234l-197 -234h-63l209 295h102l201 -295h-64z" />
    <glyph glyph-name="atilde.sc" horiz-adv-x="1116" 
d="M276 397h551l-280 631zM860 326h-614l-140 -326h-90l490 1118h82l510 -1118h-92zM656 1386q-56 0 -106 22t-92 22t-62 -12t-38 -48h-59q14 59 56 95q41 36 97 36t102 -20q46 -21 103 -21t86 66h60q-16 -56 -53 -98q-38 -42 -94 -42z" />
    <glyph glyph-name="adieresis.sc" horiz-adv-x="1116" 
d="M276 397h551l-280 631zM860 326h-614l-140 -326h-90l490 1118h82l510 -1118h-92zM346 1427v134h94v-134h-94zM662 1427v134h94v-134h-94z" />
    <glyph glyph-name="amacron.sc" horiz-adv-x="1116" 
d="M276 397h551l-280 631zM860 326h-614l-140 -326h-90l490 1118h82l510 -1118h-92zM326 1415v74h454v-74h-454z" />
    <glyph glyph-name="abreve.sc" horiz-adv-x="1116" 
d="M276 397h551l-280 631zM860 326h-614l-140 -326h-90l490 1118h82l510 -1118h-92zM551 1313q-166 0 -237 119q-22 37 -23 84h59q11 -61 69 -96t132 -38q158 0 205 134h57q-10 -86 -79 -144t-183 -59z" />
    <glyph glyph-name="aring.sc" horiz-adv-x="1116" 
d="M276 397h551l-280 631zM860 326h-614l-140 -326h-90l490 1118h82l510 -1118h-92zM457 1431q0 -54 32 -91q33 -36 86 -36t87 36q32 36 32 90t-32 91q-32 35 -86 35t-87 -35q-32 -36 -32 -90zM401 1430q1 74 51 124t124 50t124 -50q52 -50 52 -124t-52 -124t-125 -50
q-74 0 -124 50t-50 124z" />
    <glyph glyph-name="aogonek.sc" horiz-adv-x="1116" 
d="M276 397h551l-280 631zM1006 -301q45 0 100 22l14 -38q-70 -35 -124 -35q-98 0 -151.5 36t-53.5 89q0 94 74 146t163 81h-22l-146 326h-614l-140 -326h-90l490 1118h82l510 -1118q-115 -47 -169.5 -94t-54.5 -102.5t43.5 -80t88.5 -24.5z" />
    <glyph glyph-name="ae.sc" horiz-adv-x="1615" 
d="M326 387h551l-127 653zM1528 70v-70h-576l-61 315h-612l-203 -315h-90l723 1118h792v-69h-670l84 -431h564v-69h-549l94 -479h504z" />
    <glyph glyph-name="cacute.sc" horiz-adv-x="1089" 
d="M612 -23q-263 0 -394 177q-112 154 -112 397q0 242 114 400q135 186 380 187q246 1 345 -150q34 -52 42 -126h-88q-43 205 -291 205q-208 0 -322 -168q-96 -142 -96 -350t95 -344q108 -154 319 -154q239 0 303 213h88q-31 -137 -134 -212t-249 -75zM532 1296h-61l184 293
h111z" />
    <glyph glyph-name="ccircumflex.sc" horiz-adv-x="1089" 
d="M612 -23q-263 0 -394 177q-112 154 -112 397q0 242 114 400q135 186 380 187q246 1 345 -150q34 -52 42 -126h-88q-43 205 -291 205q-208 0 -322 -168q-96 -142 -96 -350t95 -344q108 -154 319 -154q239 0 303 213h88q-31 -137 -134 -212t-249 -75zM772 1296l-188 234
l-197 -234h-63l208 295h103l201 -295h-64z" />
    <glyph glyph-name="ccaron.sc" horiz-adv-x="1089" 
d="M612 -23q-263 0 -394 177q-112 154 -112 397q0 242 114 400q135 186 380 187q246 1 345 -150q34 -52 42 -126h-88q-43 205 -291 205q-208 0 -322 -168q-96 -142 -96 -350t95 -344q108 -154 319 -154q239 0 303 213h88q-31 -137 -134 -212t-249 -75zM633 1296h-109
l-200 293h63l193 -235l192 235h64z" />
    <glyph glyph-name="cdotaccent.sc" horiz-adv-x="1089" 
d="M612 -23q-263 0 -394 177q-112 154 -112 397q0 242 114 400q135 186 380 187q246 1 345 -150q34 -52 42 -126h-88q-43 205 -291 205q-208 0 -322 -168q-96 -142 -96 -350t95 -344q108 -154 319 -154q239 0 303 213h88q-31 -137 -134 -212t-249 -75zM535 1427v134h94v-134
h-94z" />
    <glyph glyph-name="ccedilla.sc" horiz-adv-x="1089" 
d="M598 -23h-20l-25 -83h47q47 0 95 -27.5t48 -95.5q0 -138 -186 -138q-90 0 -199 48l15 45q47 -23 88 -36.5t101 -13.5t83 29t23 59q0 82 -115 82q-31 0 -59 -4l43 140q-220 19 -325.5 180t-105.5 397q0 235 126 407.5t370 172.5t310.5 -101.5t74.5 -175.5h-88
q-43 205 -291 205q-208 0 -313 -155t-105 -364t101.5 -353t312.5 -144q236 0 303 213h88q-31 -137 -134 -212t-263 -75z" />
    <glyph glyph-name="dcaron.sc" horiz-adv-x="1210" 
d="M856 168q164 120 164 401t-176 400q-120 78 -334 80h-234v-979h195q256 0 385 98zM195 0v1118h311q242 0 387 -92q211 -139 211 -458q0 -318 -191 -453q-157 -115 -440 -115h-278zM662 1296h-109l-201 293h64l192 -235l193 235h63z" />
    <glyph glyph-name="dcroat.sc" horiz-adv-x="1210" 
d="M1020 572q0 476 -510 477h-234v-398h349v-67h-349v-514h195q256 0 385 98q164 120 164 404zM195 0v584h-125v67h125v467h311q242 0 387 -92q211 -139 211 -456.5t-191 -454.5q-157 -115 -440 -115h-278z" />
    <glyph glyph-name="eth.sc" horiz-adv-x="1210" 
d="M1020 572q0 476 -510 477h-234v-398h349v-67h-349v-514h195q256 0 385 98q164 120 164 404zM195 0v584h-125v67h125v467h311q242 0 387 -92q211 -139 211 -456.5t-191 -454.5q-157 -115 -440 -115h-278z" />
    <glyph glyph-name="egrave.sc" horiz-adv-x="1003" 
d="M195 0v1118h692v-69h-611v-431h590v-69h-590v-479h637v-70h-718zM584 1296l-232 293h109l184 -293h-61z" />
    <glyph glyph-name="eacute.sc" horiz-adv-x="1003" 
d="M195 0v1118h692v-69h-611v-431h590v-69h-590v-479h637v-70h-718zM465 1296h-62l185 293h110z" />
    <glyph glyph-name="ecircumflex.sc" horiz-adv-x="1003" 
d="M195 0v1118h692v-69h-611v-431h590v-69h-590v-479h637v-70h-718zM731 1296l-188 234l-197 -234h-63l209 295h102l201 -295h-64z" />
    <glyph glyph-name="ecaron.sc" horiz-adv-x="1003" 
d="M195 0v1118h692v-69h-611v-431h590v-69h-590v-479h637v-70h-718zM592 1296h-109l-200 293h63l193 -235l192 235h64z" />
    <glyph glyph-name="edieresis.sc" horiz-adv-x="1003" 
d="M195 0v1118h692v-69h-611v-431h590v-69h-590v-479h637v-70h-718zM336 1427v134h94v-134h-94zM651 1427v134h94v-134h-94z" />
    <glyph glyph-name="emacron.sc" horiz-adv-x="1003" 
d="M195 0v1118h692v-69h-611v-431h590v-69h-590v-479h637v-70h-718zM311 1415v74h455v-74h-455z" />
    <glyph glyph-name="ebreve.sc" horiz-adv-x="1003" 
d="M195 0v1118h692v-69h-611v-431h590v-69h-590v-479h637v-70h-718zM545 1313q-166 0 -237 119q-22 37 -23 84h59q11 -61 69 -96t132 -38q158 0 205 134h57q-10 -86 -79 -144t-183 -59z" />
    <glyph glyph-name="edotaccent.sc" horiz-adv-x="1003" 
d="M195 0v1118h692v-69h-611v-431h590v-69h-590v-479h637v-70h-718zM494 1427v134h94v-134h-94z" />
    <glyph glyph-name="eogonek.sc" horiz-adv-x="1003" 
d="M824 -301q46 0 100 22l14 -38q-70 -35 -124 -35q-100 0 -153 36.5t-53 89.5q0 92 75 144t163 82h-651v1118h692v-69h-611v-431h590v-69h-590v-479h637v-70q-113 -47 -167 -94t-54 -102.5t43 -80t89 -24.5z" />
    <glyph glyph-name="gcircumflex.sc" horiz-adv-x="1148" 
d="M665 -14q-167 0 -267 46q-197 90 -261 311q-31 105 -31 219q0 242 129 409q129 168 375 168t346 -166q33 -55 43 -129h-81q-16 111 -98 168t-201 57q-117 0 -197 -44q-153 -85 -207 -275q-25 -90 -25 -186q0 -211 110 -359t337 -148q154 0 297 45v385h-309v72h391v-510
q-184 -63 -351 -63zM784 1296l-188 234l-197 -234h-63l209 295h102l201 -295h-64z" />
    <glyph glyph-name="gbreve.sc" horiz-adv-x="1148" 
d="M665 -14q-167 0 -267 46q-197 90 -261 311q-31 105 -31 219q0 242 129 409q129 168 375 168t346 -166q33 -55 43 -129h-81q-16 111 -98 168t-201 57q-117 0 -197 -44q-153 -85 -207 -275q-25 -90 -25 -186q0 -211 110 -359t337 -148q154 0 297 45v385h-309v72h391v-510
q-184 -63 -351 -63zM588 1313q-166 0 -237 119q-22 37 -23 84h59q11 -61 69 -96t132 -38q158 0 205 134h57q-10 -86 -79 -144t-183 -59z" />
    <glyph glyph-name="gdotaccent.sc" horiz-adv-x="1148" 
d="M665 -14q-167 0 -267 46q-197 90 -261 311q-31 105 -31 219q0 242 129 409q129 168 375 168t346 -166q33 -55 43 -129h-81q-16 111 -98 168t-201 57q-117 0 -197 -44q-153 -85 -207 -275q-25 -90 -25 -186q0 -211 110 -359t337 -148q154 0 297 45v385h-309v72h391v-510
q-184 -63 -351 -63zM543 1427v134h94v-134h-94z" />
    <glyph glyph-name="gcommaaccent.sc" horiz-adv-x="1148" 
d="M665 -14q-167 0 -267 46q-197 90 -261 311q-31 105 -31 219q0 242 129 409q129 168 375 168t346 -166q33 -55 43 -129h-81q-16 111 -98 168t-201 57q-117 0 -197 -44q-153 -85 -207 -275q-25 -90 -25 -186q0 -211 110 -359t337 -148q154 0 297 45v385h-309v72h391v-510
q-184 -63 -351 -63zM631 -131l-92 -281h-66l55 281h103z" />
    <glyph glyph-name="hcircumflex.sc" horiz-adv-x="1241" 
d="M963 0v543h-687v-543h-81v1118h81v-504h687v504h84v-1118h-84zM811 1296l-188 234l-197 -234h-64l209 295h103l200 -295h-63z" />
    <glyph glyph-name="hbar.sc" horiz-adv-x="1241" 
d="M963 614v136h-687v-136h687zM963 0v543h-687v-543h-81v1118h81v-299h687v299h84v-1118h-84z" />
    <glyph glyph-name="igrave.sc" horiz-adv-x="471" 
d="M170 0v1118h82v-1118h-82zM242 1296l-232 293h109l184 -293h-61z" />
    <glyph glyph-name="iacute.sc" horiz-adv-x="471" 
d="M180 0v1118h82v-1118h-82zM197 1296h-62l184 293h111z" />
    <glyph glyph-name="ibreve.sc" horiz-adv-x="471" 
d="M195 0v1118h81v-1118h-81zM233 1313q-168 0 -236 119q-22 37 -24 84h60q11 -63 69 -97q58 -35 131 -37q158 0 205 134h58q-10 -86 -79 -144t-184 -59z" />
    <glyph glyph-name="icircumflex.sc" horiz-adv-x="471" 
d="M195 0v1118h81v-1118h-81zM428 1296l-188 234l-197 -234h-63l208 295h103l201 -295h-64z" />
    <glyph glyph-name="itilde.sc" horiz-adv-x="471" 
d="M195 0v1118h81v-1118h-81zM137 1501q55 0 101 -20q46 -21 103 -21q56 0 87 66h59q-16 -56 -53 -98t-93 -42q-57 0 -107 22t-92 22t-62 -12t-37 -48h-59q14 59 56 95t97 36z" />
    <glyph glyph-name="idieresis.sc" horiz-adv-x="471" 
d="M195 0v1118h81v-1118h-81zM31 1427v134h94v-134h-94zM346 1427v134h94v-134h-94z" />
    <glyph glyph-name="imacron.sc" horiz-adv-x="471" 
d="M195 0v1118h81v-1118h-81zM8 1415v74h455v-74h-455z" />
    <glyph glyph-name="idotaccent.sc" horiz-adv-x="471" 
d="M190 0v1118h82v-1118h-82zM188 1427v134h95v-134h-95z" />
    <glyph glyph-name="iogonek.sc" horiz-adv-x="471" 
d="M186 -301q46 0 101 22l14 -38q-70 -35 -124 -35q-100 0 -153 36.5t-53 89.5q0 92 75 144t163 82h-14v1118h81v-1118q-113 -47 -167 -94t-54 -102.5t42.5 -80t88.5 -24.5z" />
    <glyph glyph-name="jcircumflex.sc" horiz-adv-x="817" 
d="M117 229q0 -178 228 -178q114 0 169 75t55 191v801h82v-809q0 -229 -177 -306q-60 -26 -134 -26q-144 0 -227 69t-82 183v29h86v-29zM803 1296l-189 234l-196 -234h-64l209 295h103l200 -295h-63z" />
    <glyph glyph-name="kcommaaccent.sc" horiz-adv-x="1017" 
d="M887 0l-608 602l557 516h108l-567 -512l622 -606h-112zM195 0v1118h81v-1118h-81zM608 -131l-92 -281h-65l55 281h102z" />
    <glyph glyph-name="lacute.sc" horiz-adv-x="909" 
d="M195 0v1118h81v-1048h607v-70h-688zM266 1296h-61l184 293h111z" />
    <glyph glyph-name="lcaron.sc" horiz-adv-x="909" 
d="M195 0v1118h81v-1048h607v-70h-688zM594 1120l-111 -307h-69l67 307h113z" />
    <glyph glyph-name="lcommaaccent.sc" horiz-adv-x="909" 
d="M195 0v1118h81v-1048h607v-70h-688zM594 -131l-92 -281h-66l56 281h102z" />
    <glyph glyph-name="lslash.sc" horiz-adv-x="909" 
d="M195 0v498l-99 -56v74l99 53v549h81v-502l353 199v-72l-353 -200v-473h607v-70h-688z" />
    <glyph glyph-name="ldot.sc" horiz-adv-x="909" 
d="M195 0v1118h81v-1048h607v-70h-688zM586 543v133h94v-133h-94z" />
    <glyph glyph-name="nacute.sc" horiz-adv-x="1251" 
d="M270 0h-75v1118h98l686 -1014v1014h78v-1118h-101l-686 1012v-1012zM588 1296h-62l185 293h110z" />
    <glyph glyph-name="ncaron.sc" horiz-adv-x="1251" 
d="M270 0h-75v1118h98l686 -1014v1014h78v-1118h-101l-686 1012v-1012zM676 1296h-109l-200 293h63l193 -235l192 235h64z" />
    <glyph glyph-name="ntilde.sc" horiz-adv-x="1251" 
d="M270 0h-75v1118h98l686 -1014v1014h78v-1118h-101l-686 1012v-1012zM730 1386q-56 0 -106 22t-92 22t-63 -12q-20 -12 -37 -48h-59q14 59 56 95q41 36 97 36t102 -20q46 -21 102 -21t87 66h60q-15 -56 -53 -98t-94 -42z" />
    <glyph glyph-name="ncommaaccent.sc" horiz-adv-x="1251" 
d="M270 0h-75v1118h98l686 -1014v1014h78v-1118h-101l-686 1012v-1012zM690 -131l-92 -281h-66l56 281h102z" />
    <glyph glyph-name="ograve.sc" horiz-adv-x="1232" 
d="M1040 566q0 342 -223 459q-81 42 -195 42t-195 -43q-156 -83 -208 -269t0 -379q52 -194 209 -280q82 -45 194 -45q208 0 321 165q97 142 97 350zM1126 565q0 -243 -128 -415t-373 -172q-246 -1 -391 179q-128 160 -128 404q0 245 126 404q141 174 391 174q135 0 230 -46
q273 -132 273 -528zM666 1296l-232 293h109l184 -293h-61z" />
    <glyph glyph-name="oacute.sc" horiz-adv-x="1232" 
d="M1040 566q0 342 -223 459q-81 42 -195 42t-195 -43q-156 -83 -208 -269t0 -379q52 -194 209 -280q82 -45 194 -45q208 0 321 165q97 142 97 350zM1126 565q0 -243 -128 -415t-373 -172q-246 -1 -391 179q-128 160 -128 404q0 245 126 404q141 174 391 174q135 0 230 -46
q273 -132 273 -528zM563 1296h-61l184 293h111z" />
    <glyph glyph-name="ocircumflex.sc" horiz-adv-x="1232" 
d="M1040 566q0 342 -223 459q-81 42 -195 42t-195 -43q-156 -83 -208 -269t0 -379q52 -194 209 -280q82 -45 194 -45q208 0 321 165q97 142 97 350zM1126 565q0 -243 -128 -415t-373 -172q-246 -1 -391 179q-128 160 -128 404q0 245 126 404q141 174 391 174q135 0 230 -46
q273 -132 273 -528zM807 1296l-189 234l-196 -234h-64l209 295h103l200 -295h-63z" />
    <glyph glyph-name="otilde.sc" horiz-adv-x="1232" 
d="M1040 566q0 342 -223 459q-81 42 -195 42t-195 -43q-156 -83 -208 -269t0 -379q52 -194 209 -280q82 -45 194 -45q208 0 321 165q97 142 97 350zM1126 565q0 -243 -128 -415t-373 -172q-246 -1 -391 179q-128 160 -128 404q0 245 126 404q141 174 391 174q135 0 230 -46
q273 -132 273 -528zM720 1386q-56 0 -106 22t-93 22q-42 0 -62 -12t-37 -48h-60q14 59 56 95t98 36q55 0 101 -20q46 -21 103 -21t87 66h59q-16 -56 -53 -98t-93 -42z" />
    <glyph glyph-name="odieresis.sc" horiz-adv-x="1232" 
d="M1040 566q0 342 -223 459q-81 42 -195 42t-195 -43q-156 -83 -208 -269t0 -379q52 -194 209 -280q82 -45 194 -45q208 0 321 165q97 142 97 350zM1126 565q0 -243 -128 -415t-373 -172q-246 -1 -391 179q-128 160 -128 404q0 245 126 404q141 174 391 174q135 0 230 -46
q273 -132 273 -528zM410 1427v134h94v-134h-94zM725 1427v134h94v-134h-94z" />
    <glyph glyph-name="omacron.sc" horiz-adv-x="1232" 
d="M1040 566q0 342 -223 459q-81 42 -195 42t-195 -43q-156 -83 -208 -269t0 -379q52 -194 209 -280q82 -45 194 -45q208 0 321 165q97 142 97 350zM1126 565q0 -243 -128 -415t-373 -172q-246 -1 -391 179q-128 160 -128 404q0 245 126 404q141 174 391 174q135 0 230 -46
q273 -132 273 -528zM387 1415v74h455v-74h-455z" />
    <glyph glyph-name="obreve.sc" horiz-adv-x="1232" 
d="M1040 566q0 342 -223 459q-81 42 -195 42t-195 -43q-156 -83 -208 -269t0 -379q52 -194 209 -280q82 -45 194 -45q208 0 321 165q97 142 97 350zM1126 565q0 -243 -128 -415t-373 -172q-246 -1 -391 179q-128 160 -128 404q0 245 126 404q141 174 391 174q135 0 230 -46
q273 -132 273 -528zM612 1313q-168 0 -236 119q-22 37 -24 84h60q11 -62 69 -97q57 -35 131 -37q158 0 205 134h57q-10 -86 -78 -145q-69 -58 -184 -58z" />
    <glyph glyph-name="ohungarumlaut.sc" horiz-adv-x="1232" 
d="M1040 566q0 342 -223 459q-81 42 -195 42t-195 -43q-156 -83 -208 -269t0 -379q52 -194 209 -280q82 -45 194 -45q208 0 321 165q97 142 97 350zM1126 565q0 -243 -128 -415t-373 -172q-246 -1 -391 179q-128 160 -128 404q0 245 126 404q141 174 391 174q135 0 230 -46
q273 -132 273 -528zM477 1296h-63l188 293h111zM735 1296h-65l188 293h113z" />
    <glyph glyph-name="oslash.sc" horiz-adv-x="1232" 
d="M935 204.5q105 153.5 105 352t-79 332.5l-646 -703q117 -135 316 -135t304 153.5zM301 920.5q-108 -146.5 -108 -348.5q0 -201 86 -334l647 700q-107 129 -312 129t-313 -146.5zM221 174q-115 156 -115 395t134 404.5t375 165.5t366 -140l125 134l45 -37l-131 -144
q106 -150 106 -390t-129 -412.5t-365 -172.5q-235 0 -372 150l-137 -147l-45 40z" />
    <glyph glyph-name="oe.sc" horiz-adv-x="1632" 
d="M698 1059q-233 0 -370.5 -125t-137.5 -379t125 -375t383 -121q130 0 179 7v983q-103 10 -179 10zM106 549q0 289 158 434t434 145q100 0 157 -5t68 -5h595v-69h-560v-431h537v-69h-537v-479h584v-70h-312l-339 -4q-82 -8 -193 -8q-291 0 -441.5 136t-150.5 425z" />
    <glyph glyph-name="racute.sc" horiz-adv-x="1083" 
d="M582 616q192 0 256 125q22 42 22 96q0 210 -293 212h-291v-433h306zM276 547v-547h-81v1118h385q260 0 338 -153q24 -49 24 -134t-55 -153t-156 -94q88 -20 127 -93t48 -200q8 -127 24 -187t49 -104h-94q-42 72 -54 200t-25 188t-39 95q-46 62 -181 64h-310zM494 1296
h-62l184 293h111z" />
    <glyph glyph-name="rcaron.sc" horiz-adv-x="1083" 
d="M582 616q192 0 256 125q22 42 22 96q0 210 -293 212h-291v-433h306zM276 547v-547h-81v1118h385q260 0 338 -153q24 -49 24 -134t-55 -153t-156 -94q88 -20 127 -93t48 -200q8 -127 24 -187t49 -104h-94q-42 72 -54 200t-25 188t-39 95q-46 62 -181 64h-310zM594 1296
h-109l-200 293h63l193 -235l192 235h64z" />
    <glyph glyph-name="rcommaaccent.sc" horiz-adv-x="1083" 
d="M582 616q192 0 256 125q22 42 22 96q0 210 -293 212h-291v-433h306zM276 547v-547h-81v1118h385q260 0 338 -153q24 -49 24 -134t-55 -153t-156 -94q88 -20 127 -93t48 -200q8 -127 24 -187t49 -104h-94q-42 72 -54 200t-25 188t-39 95q-46 62 -181 64h-310zM610 -131
l-92 -281h-65l55 281h102z" />
    <glyph glyph-name="sacute.sc" horiz-adv-x="983" 
d="M795 285q0 96 -66 144t-201 89l-116 35q-129 39 -210 107t-81 195q0 128 105 204q105 77 272 80q242 0 329 -139q31 -48 35 -117h-84q-8 97 -95 145q-71 41 -159 41q-157 0 -240 -58t-82 -154q2 -95 70 -147t172 -83l117 -35q160 -48 239 -116t79 -201t-109 -215
q-109 -81 -282 -82q-174 -1 -282 82t-116 227h86q4 -96 83 -166q78 -70 226 -72q211 0 284 127q26 45 26 109zM446 1296h-61l184 293h111z" />
    <glyph glyph-name="scircumflex.sc" horiz-adv-x="983" 
d="M795 285q0 96 -66 144t-201 89l-116 35q-129 39 -210 107t-81 195q0 128 105 204q105 77 272 80q242 0 329 -139q31 -48 35 -117h-84q-8 97 -95 145q-71 41 -159 41q-157 0 -240 -58t-82 -154q2 -95 70 -147t172 -83l117 -35q160 -48 239 -116t79 -201t-109 -215
q-109 -81 -282 -82q-174 -1 -282 82t-116 227h86q4 -96 83 -166q78 -70 226 -72q211 0 284 127q26 45 26 109zM686 1296l-188 234l-197 -234h-63l208 295h103l201 -295h-64z" />
    <glyph glyph-name="scaron.sc" horiz-adv-x="983" 
d="M795 285q0 96 -66 144t-201 89l-116 35q-129 39 -210 107t-81 195q0 128 105 204q105 77 272 80q242 0 329 -139q31 -48 35 -117h-84q-8 97 -95 145q-71 41 -159 41q-157 0 -240 -58t-82 -154q2 -95 70 -147t172 -83l117 -35q160 -48 239 -116t79 -201t-109 -215
q-109 -81 -282 -82q-174 -1 -282 82t-116 227h86q4 -96 83 -166q78 -70 226 -72q211 0 284 127q26 45 26 109zM543 1296h-109l-201 293h64l192 -235l193 235h63z" />
    <glyph glyph-name="scedilla.sc" horiz-adv-x="983" 
d="M590 -236q0 82 -115 82q-31 0 -59 -4l41 135q-156 6 -257.5 86t-109.5 224h86q4 -96 83.5 -167t225.5 -71q211 0 260.5 86t49.5 150q0 96 -65.5 144t-201.5 89l-116 35q-129 39 -210 106.5t-81 196.5t108 206t269 77q242 0 301 -93.5t63 -162.5h-84q-8 96 -87.5 141
t-166.5 45q-155 0 -238 -57t-83 -154q0 -96 68.5 -148.5t172.5 -82.5l117 -35q160 -47 239 -115.5t79 -203.5t-105.5 -212.5t-275.5 -83.5l-23 -83h47q47 0 95.5 -28t48.5 -82q0 -90 -54.5 -120.5t-139.5 -30.5t-191 48l14 45q47 -23 88 -36.5t101 -13.5t83 29t23 59z" />
    <glyph glyph-name="scommaaccent.sc" horiz-adv-x="983" 
d="M795 285q0 96 -66 144t-201 89l-116 35q-129 39 -210 107t-81 195q0 128 105 204q105 77 272 80q242 0 329 -139q31 -48 35 -117h-84q-8 97 -95 145q-71 41 -159 41q-157 0 -240 -58t-82 -154q2 -95 70 -147t172 -83l117 -35q160 -48 239 -116t79 -201t-109 -215
q-109 -81 -282 -82q-174 -1 -282 82t-116 227h86q4 -96 83 -166q78 -70 226 -72q211 0 284 127q26 45 26 109zM555 -131l-92 -281h-66l56 281h102z" />
    <glyph glyph-name="tcaron.sc" horiz-adv-x="878" 
d="M481 1049v-1049h-84v1049h-381v69h846v-69h-381zM492 1296h-109l-201 293h64l192 -235l193 235h63z" />
    <glyph glyph-name="tcommaaccent.sc" horiz-adv-x="878" 
d="M481 1049v-1049h-84v1049h-381v69h846v-69h-381zM477 -131l-92 -281h-66l56 281h102z" />
    <glyph glyph-name="tbar.sc" horiz-adv-x="878" 
d="M397 0v553h-348v68h348v428h-381v69h846v-69h-381v-428h348v-68h-348v-553h-84z" />
    <glyph glyph-name="thorn.sc" horiz-adv-x="989" 
d="M840 580q0 132 -94 191q-76 48 -236 48h-234v-483h183q155 0 229 24t113 84t39 136zM510 889q412 0 412 -307q0 -100 -63.5 -195t-200 -109t-209.5 -14h-173v-264h-81v1118h81v-229h234z" />
    <glyph glyph-name="ugrave.sc" horiz-adv-x="1218" 
d="M1053 416q0 -439 -445 -439q-218 -1 -330 105t-112 334v702h84v-696q0 -184 77 -270q88 -103 283 -103q282 0 340 218q18 69 19 155v696h84v-702zM674 1296l-232 293h109l184 -293h-61z" />
    <glyph glyph-name="uacute.sc" horiz-adv-x="1218" 
d="M1053 416q0 -439 -445 -439q-218 -1 -330 105t-112 334v702h84v-696q0 -184 77 -270q88 -103 283 -103q282 0 340 218q18 69 19 155v696h84v-702zM575 1296h-61l184 293h111z" />
    <glyph glyph-name="ucircumflex.sc" horiz-adv-x="1218" 
d="M1053 416q0 -439 -445 -439q-218 -1 -330 105t-112 334v702h84v-696q0 -184 77 -270q88 -103 283 -103q282 0 340 218q18 69 19 155v696h84v-702zM799 1296l-189 234l-196 -234h-64l209 295h103l200 -295h-63z" />
    <glyph glyph-name="utilde.sc" horiz-adv-x="1218" 
d="M1053 416q0 -439 -445 -439q-218 -1 -330 105t-112 334v702h84v-696q0 -184 77 -270q88 -103 283 -103q282 0 340 218q18 69 19 155v696h84v-702zM712 1386q-56 0 -106 22t-93 22q-42 0 -62 -12t-37 -48h-60q14 59 56 95t98 36q55 0 101 -20q46 -21 103 -21t87 66h59
q-16 -56 -53 -98t-93 -42z" />
    <glyph glyph-name="udieresis.sc" horiz-adv-x="1218" 
d="M1053 416q0 -439 -445 -439q-218 -1 -330 105t-112 334v702h84v-696q0 -184 77 -270q88 -103 283 -103q282 0 340 218q18 69 19 155v696h84v-702zM401 1427v134h95v-134h-95zM717 1427v134h94v-134h-94z" />
    <glyph glyph-name="umacron.sc" horiz-adv-x="1218" 
d="M1053 416q0 -439 -445 -439q-218 -1 -330 105t-112 334v702h84v-696q0 -184 77 -270q88 -103 283 -103q282 0 340 218q18 69 19 155v696h84v-702zM379 1415v74h455v-74h-455z" />
    <glyph glyph-name="ubreve.sc" horiz-adv-x="1218" 
d="M1053 416q0 -439 -445 -439q-218 -1 -330 105t-112 334v702h84v-696q0 -184 77 -270q88 -103 283 -103q282 0 340 218q18 69 19 155v696h84v-702zM604 1313q-168 0 -236 119q-22 37 -24 84h59q11 -61 69 -96t132 -38q158 0 205 134h57q-10 -86 -79 -144t-183 -59z" />
    <glyph glyph-name="uring.sc" horiz-adv-x="1218" 
d="M1053 416q0 -439 -445 -439q-218 -1 -330 105t-112 334v702h84v-696q0 -184 77 -270q88 -103 283 -103q282 0 340 218q18 69 19 155v696h84v-702zM512 1431q0 -55 33 -91t86 -36t86 36t33 90t-33 91q-33 35 -86 35t-86 -36t-33 -89zM457 1430q0 74 50 124t124 50t125 -50
t51 -124t-51 -124t-125 -50t-124 50t-50 124z" />
    <glyph glyph-name="uhungarumlaut.sc" horiz-adv-x="1218" 
d="M1053 416q0 -439 -445 -439q-218 -1 -330 105t-112 334v702h84v-696q0 -184 77 -270q88 -103 283 -103q282 0 340 218q18 69 19 155v696h84v-702zM485 1296h-63l188 293h111zM743 1296h-65l188 293h113z" />
    <glyph glyph-name="uogonek.sc" horiz-adv-x="1218" 
d="M623 -301q45 0 100 22l14 -38q-70 -35 -124 -35q-98 0 -151.5 36t-53.5 101q0 117 182 192q-209 4 -316.5 110t-107.5 329v702h84v-696q0 -274 128 -323.5t230 -49.5q197 0 279 97t82 276v696h84v-702q0 -199 -92.5 -310.5t-294.5 -125.5q-88 -43 -131 -85.5t-43 -94.5
t43 -76.5t88 -24.5z" />
    <glyph glyph-name="wacute.sc" horiz-adv-x="1642" 
d="M1282 0h-96l-373 1018l-360 -1018h-103l-311 1118h86l283 -1034l360 1034h90l375 -1034l285 1034h86zM809 1296h-61l184 293h110z" />
    <glyph glyph-name="wcircumflex.sc" horiz-adv-x="1642" 
d="M1282 0h-96l-373 1018l-360 -1018h-103l-311 1118h86l283 -1034l360 1034h90l375 -1034l285 1034h86zM1010 1296l-189 234l-196 -234h-64l209 295h102l201 -295h-63z" />
    <glyph glyph-name="wdieresis.sc" horiz-adv-x="1642" 
d="M1282 0h-96l-373 1018l-360 -1018h-103l-311 1118h86l283 -1034l360 1034h90l375 -1034l285 1034h86zM614 1427v134h95v-134h-95zM930 1427v134h94v-134h-94z" />
    <glyph glyph-name="wgrave.sc" horiz-adv-x="1642" 
d="M1282 0h-96l-373 1018l-360 -1018h-103l-311 1118h86l283 -1034l360 1034h90l375 -1034l285 1034h86zM821 1296l-231 293h108l185 -293h-62z" />
    <glyph glyph-name="yacute.sc" horiz-adv-x="964" 
d="M524 0h-82v492l-454 626h98l399 -557l396 557h96l-453 -626v-492zM451 1296h-62l184 293h111z" />
    <glyph glyph-name="ycircumflex.sc" horiz-adv-x="964" 
d="M524 0h-82v492l-454 626h98l399 -557l396 557h96l-453 -626v-492zM676 1296l-189 234l-196 -234h-64l209 295h103l200 -295h-63z" />
    <glyph glyph-name="ydieresis.sc" horiz-adv-x="964" 
d="M524 0h-82v492l-454 626h98l399 -557l396 557h96l-453 -626v-492zM279 1427v134h94v-134h-94zM594 1427v134h94v-134h-94z" />
    <glyph glyph-name="ygrave.sc" horiz-adv-x="964" 
d="M524 0h-82v492l-454 626h98l399 -557l396 557h96l-453 -626v-492zM528 1296l-231 293h109l184 -293h-62z" />
    <glyph glyph-name="zacute.sc" horiz-adv-x="913" 
d="M39 0v70l719 977h-670v71h770v-69l-721 -979h737v-70h-835zM424 1296h-62l185 293h110z" />
    <glyph glyph-name="zcaron.sc" horiz-adv-x="913" 
d="M39 0v70l719 977h-670v71h770v-69l-721 -979h737v-70h-835zM545 1296h-109l-200 293h63l193 -235l192 235h64z" />
    <glyph glyph-name="zdotaccent.sc" horiz-adv-x="913" 
d="M39 0v70l719 977h-670v71h770v-69l-721 -979h737v-70h-835zM444 1427v134h95v-134h-95z" />
    <glyph glyph-name="ij.sc" horiz-adv-x="1290" 
d="M195 0v1118h81v-1118h-81zM588 229q0 -178 228 -178q114 0 169 75t55 191v801h82v-809q0 -231 -177 -306q-61 -26 -135 -26q-144 0 -226 69q-83 69 -82 183v29h86v-29z" />
    <glyph glyph-name="germandbls.sc" horiz-adv-x="1968" 
d="M1778 285q0 96 -66 144t-201 89l-116 35q-129 39 -210 107t-81 195q0 128 106 205t271 79q242 0 329 -139q31 -48 35 -117h-84q-8 97 -95 145q-71 41 -159 41q-157 0 -240 -58t-82 -154q1 -95 69 -147t173 -83l117 -35q160 -48 239 -116t79 -201t-109 -215
q-109 -81 -282 -82q-174 -1 -282 82t-116 227h86q4 -96 83 -166q78 -70 226 -72q211 0 284 127q26 45 26 109zM795 285q0 96 -66 144t-201 89l-116 35q-129 39 -210 107t-81 195q0 128 105 204q105 77 272 80q242 0 329 -139q31 -48 35 -117h-84q-8 97 -95 145
q-71 41 -159 41q-157 0 -240 -58t-82 -154q2 -95 70 -147t172 -83l117 -35q160 -48 239 -116t79 -201t-109 -215q-109 -81 -282 -82q-174 -1 -282 82t-116 227h86q4 -96 83 -166q78 -70 226 -72q211 0 284 127q26 45 26 109z" />
    <glyph glyph-name="eng.sc" horiz-adv-x="1228" 
d="M840 -301q61 0 100 39t39 147v107l-709 1022v-1014h-75v1118h98l686 -995v995h78v-1245q0 -129 -54.5 -186.5t-177.5 -57.5q-51 0 -82 9v69q36 -8 97 -8z" />
    <glyph glyph-name="grave.sc" horiz-adv-x="512" 
d="M299 1296l-231 293h108l184 -293h-61z" />
    <glyph glyph-name="acute.sc" horiz-adv-x="512" 
d="M213 1296h-61l184 293h110z" />
    <glyph glyph-name="circumflex.sc" horiz-adv-x="512" 
d="M449 1296l-189 234l-197 -234h-63l209 295h102l201 -295h-63z" />
    <glyph glyph-name="caron.sc" horiz-adv-x="512" 
d="M309 1296h-108l-201 293h63l193 -235l193 235h63z" />
    <glyph glyph-name="tilde.sc" horiz-adv-x="512" 
d="M362 1386q-56 0 -106.5 22t-92.5 22t-62.5 -12.5t-37.5 -47.5h-59q14 59 56 95t98 36t101.5 -20.5t87.5 -20.5t63.5 15.5t38.5 50.5h59q-16 -55 -53 -97.5t-93 -42.5z" />
    <glyph glyph-name="dieresis.sc" horiz-adv-x="512" 
d="M51 1427v134h94v-134h-94zM367 1427v134h94v-134h-94z" />
    <glyph glyph-name="macron.sc" horiz-adv-x="512" 
d="M29 1415v74h454v-74h-454z" />
    <glyph glyph-name="breve.sc" horiz-adv-x="512" 
d="M254 1382q158 0 205 134h57q-10 -86 -78.5 -144.5t-183.5 -58.5q-167 0 -212.5 77.5t-47.5 125.5h59q11 -59 70.5 -96.5t130.5 -37.5z" />
    <glyph glyph-name="ring.sc" horiz-adv-x="512" 
d="M137 1431q0 -54 33 -90t86 -36t86 35.5t33 89.5t-33 90t-86 36t-86 -35.5t-33 -89.5zM82 1429.5q0 73.5 50 124t124 50.5t125 -50.5t51 -124t-51 -124t-125 -50.5t-124 50.5t-50 124z" />
    <glyph glyph-name="hungarumlaut.sc" horiz-adv-x="512" 
d="M80 1296h-64l189 293h110zM338 1296h-66l189 293h112z" />
    <glyph glyph-name="dotaccent.sc" horiz-adv-x="512" 
d="M209 1427v134h94v-134h-94z" />
    <glyph glyph-name="exclamdown.sc" horiz-adv-x="479" 
d="M291 1118v-131h-103v131h103zM207 864h65l13 -864h-92z" />
    <glyph glyph-name="questiondown.sc" horiz-adv-x="856" 
d="M576 1118v-131h-103v131h103zM491 49q95 0 185 21v-72q-82 -18 -157 -18q-244 0 -318 145q-27 51 -27 130t55 161t183 188q47 41 61 71t14 77v112h78v-106q0 -75 -20 -116t-82 -94q-115 -99 -160 -164t-45 -148q0 -82 69 -134t164 -53z" />
    <glyph glyph-name="Euro.sc" horiz-adv-x="940" 
d="M193 506v62q0 61 2 77h-121l16 62h111q40 299 179.5 365.5t213.5 66.5t118 -9.5t75.5 -21.5t53 -26.5t36.5 -24.5l-21 -78q-94 88 -242 88q-213 0 -268 -141.5t-65 -218.5h501l-14 -62h-492q-2 -14 -2 -17v-122h457l-16 -64h-436q30 -393 337 -393q144 0 244 86v-92
q-100 -66 -229 -66q-128 0 -267 66.5t-167 398.5h-142l19 64h119z" />
    <glyph glyph-name="cent.sc" horiz-adv-x="940" 
d="M203 526q0 -94 44 -173t122 -115l200 655q-31 6 -88 6t-114.5 -28.5t-94 -77t-53 -111t-16.5 -156.5zM348 170q-227 81 -227 395q0 162 99 281t290 119q43 0 80 -7l55 181l55 -15l-55 -180q80 -29 127 -91t51 -151h-78q-12 133 -120 177l-201 -660q33 -8 80 -8
q209 0 246 205h79q-13 -120 -98.5 -195.5t-216.5 -75.5q-59 0 -111 9l-53 -177l-55 15z" />
    <glyph glyph-name="sterling.sc" horiz-adv-x="940" 
d="M571 1071q-150 0 -209 -85.5t-59 -242.5v-92h279v-65h-279v-516h531v-70h-705v70h92v516h-112v65h112v99q0 170 77 279.5t273 109.5t244.5 -91.5t50.5 -154.5h-80q-8 96 -70.5 137t-144.5 41z" />
    <glyph glyph-name="florin.sc" horiz-adv-x="940" 
d="M700 1139q48 0 105 -15l-14 -67q-39 14 -85 14t-78 -42t-55 -152l-32 -164h180l-12 -66h-183l-135 -682q-25 -125 -70 -178t-133 -53q-41 0 -71 10l18 63q27 -6 61 -6t64.5 32t46.5 114l139 700h-157l16 66h156l33 164q27 129 70.5 195.5t135.5 66.5z" />
    <glyph glyph-name="yen.sc" horiz-adv-x="940" 
d="M809 522v-63h-299v-140h299v-61h-299v-258h-78v258h-299v61h299v140h-299v63h275l-388 596h95l358 -571l358 571h87l-383 -596h274z" />
    <glyph glyph-name="perthousand.sc" horiz-adv-x="1730" 
d="M1585 239q0 87 -46 138t-122 51t-122 -51t-46 -138t46 -138.5t122 -51.5t122 51.5t46 138.5zM1655 239.5q0 -51.5 -15.5 -97.5t-46 -79.5t-74.5 -54t-101.5 -20.5t-102.5 20.5t-76 54t-46 79.5t-15 97.5t15 96.5t46 79t76 54t102.5 20t101.5 -20t74.5 -54t46 -79
t15.5 -96.5zM1016 239q0 87 -46 138t-122 51t-122 -51t-46 -138t46 -138.5t122 -51.5t122 51.5t46 138.5zM1087 239.5q0 -51.5 -15 -97.5t-46 -79.5t-76 -54t-102 -20.5t-102.5 20.5t-76 54t-46 79.5t-15.5 97.5t15.5 96.5t46 79t76 54t102.5 20t102 -20t76 -54t46 -79
t15 -96.5zM483 884q0 87 -46 138t-121.5 51t-122 -51t-46.5 -138t46.5 -139.5t122 -52.5t121.5 52.5t46 139.5zM553 882.5q0 -51.5 -15.5 -96.5t-46 -78.5t-74.5 -54t-101.5 -20.5t-102.5 20.5t-76 54t-46 78.5t-15 96.5t15 96.5t46 80t76 55.5t102.5 20.5t101.5 -20.5
t74.5 -55.5t46 -80t15.5 -96.5zM250 -35h-84l749 1192h80z" />
    <glyph glyph-name="parenleft.sc" horiz-adv-x="532" 
d="M164 555q0 253 186 678h64q-168 -434 -168 -678t168 -678h-64q-186 425 -186 678z" />
    <glyph glyph-name="parenright.sc" horiz-adv-x="532" 
d="M323.5 263q-43.5 -149 -141.5 -386h-65q170 412 170 678t-170 678h65q98 -237 141.5 -384t43.5 -292t-43.5 -294z" />
    <glyph glyph-name="bracketleft.sc" horiz-adv-x="536" 
d="M170 -123v1356h217v-62h-143v-1234h143v-60h-217z" />
    <glyph glyph-name="bracketright.sc" horiz-adv-x="536" 
d="M150 -123v60h143v1234h-143v62h217v-1356h-217z" />
    <glyph glyph-name="braceleft.sc" horiz-adv-x="620" 
d="M555 -123q-173 0 -233 76t-60 233v101q0 127 -45 176t-186 61v60q141 12 186 59.5t45 165.5v96q0 159 60.5 243.5t232.5 84.5v-62q-137 0 -177 -68t-40 -204v-88q0 -114 -27.5 -158.5t-63.5 -67t-93 -32.5q115 -23 149.5 -86t34.5 -182v-92q0 -134 43.5 -195t173.5 -61
v-60z" />
    <glyph glyph-name="braceright.sc" horiz-adv-x="620" 
d="M66 -63q131 0 175 62t44 194v92q0 119 24.5 164t60.5 68.5t97 35.5q-153 28 -167.5 117.5t-14.5 140.5v88q0 135 -29 182t-73 68.5t-117 21.5v62q249 0 270.5 -128t21.5 -200v-96q0 -117 45.5 -165t186.5 -60v-60q-142 -12 -187 -61.5t-45 -175.5v-101q0 -158 -60 -233.5
t-232 -75.5v60z" />
    <glyph glyph-name="zero.onum" 
d="M855.5 930.5q-105.5 146.5 -295.5 146.5t-295 -146t-105 -367t105 -367t295 -146t295.5 146.5t105.5 366.5t-105.5 366.5zM1051 565q0 -123 -33 -229.5t-95.5 -186t-153.5 -124.5t-208 -45t-208 45t-153.5 124.5t-95 186t-32.5 229.5t32.5 229.5t95 186.5t153.5 125
t208 45t208 -45t153.5 -125t95.5 -186.5t33 -229.5z" />
    <glyph glyph-name="one.onum" 
d="M692 1130v-1130h-84v1040q-139 -111 -348 -192v80q195 79 346 202h86z" />
    <glyph glyph-name="two.onum" 
d="M119 0v86l434 303q250 175 281.5 278t31.5 150q0 117 -82 188.5t-223 71.5t-236.5 -80.5t-103.5 -208.5h-90q12 163 129 263t297 100t288.5 -88.5t108.5 -232.5t-90 -262.5t-270 -241.5l-365 -250h750v-76h-860z" />
    <glyph glyph-name="three.onum" 
d="M573 479q126 0 213.5 81.5t87.5 222.5t-92 217.5t-238 76.5t-230.5 -83t-94.5 -222h-86q8 173 122.5 276t295.5 103t296.5 -97.5t115.5 -275.5q0 -129 -72 -215t-189 -119q205 -34 251 -156t46 -212q0 -184 -127 -291t-321 -107q-193 0 -306.5 104.5t-125.5 289.5h86
q8 -149 104.5 -235.5t250.5 -86.5q153 0 252 86.5t99 246.5q0 159 -95 242t-245 83h-5l-74 -5v80q20 -4 81 -4z" />
    <glyph glyph-name="four.onum" 
d="M748 72v944l-588 -944h588zM831 0v-301h-83v301h-668v90l653 1040h98v-1058h226v-72h-226z" />
    <glyph glyph-name="five.onum" 
d="M270 444q101 187 316 187q216 0 319 -128.5t103 -343.5q0 -214 -117.5 -347.5t-321.5 -133.5q-284 0 -344.5 130.5t-64.5 224.5h92q4 -139 91.5 -212t243.5 -73t245.5 117t89.5 295q0 276 -120 337.5t-192 61.5q-130 0 -220 -70t-120 -192h-86l33 833h731v-73h-649z" />
    <glyph glyph-name="six.onum" 
d="M842 746q-84 114 -248 114t-261 -119t-97 -283t92 -284.5t254 -120.5t253 118t91 289q0 172 -84 286zM896 120q-116 -140 -306 -140q-310 0 -414 299q-47 136 -47 436q0 501 158.5 633.5t327.5 132.5t270.5 -97.5t105.5 -261.5h-90q-12 135 -87 210t-216 75
q-346 0 -365.5 -342t-19.5 -422q43 145 149 216t224 71t196 -37t154 -132t76 -298t-116 -343z" />
    <glyph glyph-name="seven.onum" 
d="M115 1053v77h858v-90l-553 -1341h-98l571 1354h-778z" />
    <glyph glyph-name="eight.onum" 
d="M819.5 635q-102.5 90 -259.5 90t-258 -90t-101 -248t100.5 -248t255.5 -90t260 90.5t105 248t-102.5 247.5zM317.5 1326q-96.5 -83 -96.5 -231q0 -147 97 -222.5t240 -75.5t243 79.5t100 225.5q0 145 -95.5 226t-243.5 81t-244.5 -83zM1008 412q0 -213 -129 -324
t-320 -111q-192 0 -319 105.5t-127 300.5q0 145 77.5 243.5t217.5 133.5q-125 29 -200 114.5t-75 199.5q0 199 121.5 303t305.5 104q183 0 305 -99t122 -280q0 -135 -73.5 -223t-200.5 -117q137 -35 216 -131.5t79 -218.5z" />
    <glyph glyph-name="nine.onum" 
d="M802.5 966.5q-84.5 110.5 -248.5 110.5q-163 0 -253 -112t-90 -275q0 -260 120 -320.5t204 -60.5t149.5 31t134 110t68.5 243q0 163 -84.5 273.5zM948 854q41 -118 41 -352t-31.5 -405.5t-131.5 -295t-286 -123.5t-292.5 88.5t-116.5 272.5h92q6 -141 85 -214t212 -73
t209 65.5t116 173t51 245t13 282.5q-49 -141 -148 -213t-215 -72q-211 0 -317 129.5t-106 326.5q0 196 116.5 329t311.5 133q307 0 397 -297z" />
    <glyph glyph-name="zero.scprop" horiz-adv-x="937" 
d="M754 567q0 185 -60 325q-77 179 -230 179t-226 -178q-49 -121 -52 -326q0 -334 138 -467q55 -53 142 -53t142 53q103 99 132 302q14 91 14 165zM648 1082q188 -148 188 -519q0 -370 -188 -526q-70 -59 -182 -59t-184 58q-135 112 -165 340q-14 103 -15 191q0 374 181 515
q71 56 183 56t182 -56z" />
    <glyph glyph-name="one.scprop" horiz-adv-x="671" 
d="M416 1118v-1118h-80v1028q-98 -88 -254 -162v78q123 55 258 174h76z" />
    <glyph glyph-name="two.scprop" horiz-adv-x="937" 
d="M109 0v74l325 334q128 128 177 199q93 134 92 237q-1 102 -66 165q-67 62 -179 62t-185 -70t-72 -188h-82q0 145 96 236q96 90 242 90q147 0 237 -80t90 -225t-157 -328q-47 -55 -101 -111l-319 -325h592v-70h-690z" />
    <glyph glyph-name="three.scprop" horiz-adv-x="937" 
d="M836 296q0 -142 -106 -231q-106 -88 -270 -88q-163 0 -258 84t-110 230h84q14 -127 94 -185t205 -59q125 0 202 71q77 72 77 188t-75 179t-202 64h-38q-24 0 -36 -2v71h72q170 0 235 131q19 40 19 89q0 111 -73 172q-74 61 -192 61t-192 -63t-77 -168h-82q8 140 107 219
q99 78 246 79t246 -76t99 -222q0 -92 -53 -160t-152 -96q156 -28 210 -168q20 -50 20 -120z" />
    <glyph glyph-name="four.scprop" horiz-adv-x="937" 
d="M610 330v686l-465 -686h465zM688 262v-262h-78v262h-540v78l526 778h92v-788h182v-68h-182z" />
    <glyph glyph-name="five.scprop" horiz-adv-x="937" 
d="M227 592q85 137 274 137q79 0 143 -28q192 -83 192 -342q0 -167 -101 -274q-101 -108 -268 -108q-229 0 -307 160q-27 53 -29 127h82q6 -111 76 -164t160 -53q230 0 287 192q17 56 18 119q0 210 -151 280q-52 24 -133 24t-151 -50t-92 -143h-77l26 649h606v-69h-530z" />
    <glyph glyph-name="six.scprop" horiz-adv-x="937" 
d="M750 348q0 202 -149 274q-49 24 -115 24q-127 -1 -208 -87t-81 -209t74 -213t204 -90q129 0 202 87t73 214zM831 351q-1 -75 -25 -143q-50 -138 -178 -200q-65 -31 -145 -31q-260 0 -344 242q-35 103 -35 243t12 251q25 247 168 363q77 62 205 63q218 0 292 -156
q26 -53 28 -125h-82q-8 98 -65 156t-162 57q-105 0 -164 -46t-92 -124q-58 -136 -60 -389q41 102 125 152q85 50 177 49q92 0 155 -28t105 -77q42 -50 64 -116t21 -141z" />
    <glyph glyph-name="seven.scprop" horiz-adv-x="815" 
d="M51 1049v69h707v-74l-453 -1044h-90l463 1049h-627z" />
    <glyph glyph-name="eight.scprop" horiz-adv-x="937" 
d="M762 296q0 114 -85 181t-206 69q-121 1 -206 -67t-85 -183t84 -182t208 -67t207 67q83 68 83 182zM741 833q0 111 -76 175q-76 65 -193 65t-196 -64t-78 -174q1 -109 78 -165t195 -58q51 0 100 14q101 28 147 110q22 40 23 97zM844 308q0 -160 -104 -244t-265 -86
q-161 -1 -270 81t-109 234q0 104 60 179t170 106q-90 23 -150 89q-59 67 -59 155q0 154 99 234q99 81 252 82q152 1 255 -79q104 -80 102 -225q0 -98 -57 -165t-152 -91q104 -29 166 -103t62 -167z" />
    <glyph glyph-name="nine.scprop" horiz-adv-x="937" 
d="M737 770q0 195 -150 273q-52 28 -123 28q-129 0 -202 -88q-74 -88 -75 -210q-1 -121 66 -209q67 -87 195 -87q127 0 208 88t81 205zM831 662q0 -146 -11 -256q-24 -246 -169 -365q-78 -63 -209 -64q-221 0 -305 164q-27 53 -28 123h84q8 -100 71 -160q64 -60 170 -59
q106 0 166 49q113 94 139 309q12 100 13 203q-35 -98 -122 -148q-86 -50 -178 -50q-166 0 -257 102t-91 256t99 263q99 110 256 110q197 0 292 -143q28 -42 54 -115t26 -219z" />
    <glyph glyph-name="zero.prop" 
d="M920 728q0 381 -134 574q-88 127 -229 126q-140 -1 -228 -124q-126 -176 -126 -556q0 -519 219 -658q54 -35 150 -35t168 74t111 181q69 186 69 418zM784 1430q224 -193 224 -685t-226 -687q-88 -77 -225 -76q-179 0 -285 132q-157 192 -157 648q0 294 86 483
q49 111 136 185t224 74t223 -74z" />
    <glyph glyph-name="one.prop" horiz-adv-x="784" 
d="M510 1499v-1499h-84v1407q-74 -78 -150 -128t-167 -99v86q154 72 315 233h86z" />
    <glyph glyph-name="two.prop" 
d="M121 0v96q179 186 379 427q199 241 236 292q120 169 120 302q0 134 -88 222t-225 87t-230 -98q-92 -98 -92 -247h-88q4 190 118 307t292 116t289 -104q112 -103 112 -287t-178 -400q-340 -413 -549 -635h744v-78h-840z" />
    <glyph glyph-name="three.prop" 
d="M1004 389q0 -94 -41 -173q-80 -153 -258 -210q-86 -27 -175 -26q-194 0 -310 108t-128 297h88q11 -163 112 -246t248 -85q146 -1 259 94t113 253q-1 158 -100 246t-249 86h-41q-20 0 -41 -2v74q19 -2 39 -2h43q130 0 223 87t93 225q0 139 -98 226t-248 88t-235 -80
t-103 -235h-89q8 181 129 286t301 104q181 -1 305 -105t124 -292t-164 -292q-49 -31 -107 -45q61 -10 118 -38q192 -96 192 -343z" />
    <glyph glyph-name="four.prop" horiz-adv-x="1136" 
d="M748 430v963l-588 -963h588zM831 358v-358h-86v358h-669v93l655 1046h100v-1067h228v-72h-228z" />
    <glyph glyph-name="five.prop" 
d="M886 118q-122 -140 -331 -138q-278 0 -377 208q-33 70 -37 166h92q4 -139 93 -220t231 -83q176 0 269 120q94 120 94 304q0 283 -190 379q-65 33 -167 33t-191 -71t-118 -193h-88l35 858h739v-74h-655l-31 -633q55 98 145 142q91 44 189 44t178 -36q80 -37 134 -102
q108 -130 108 -347t-122 -357z" />
    <glyph glyph-name="six.prop" 
d="M920 464q0 272 -185 367q-63 33 -149 33q-169 0 -266 -118t-97 -284t94 -287t257 -120q162 0 254 120t92 289zM1008 469q0 -98 -30 -186q-63 -184 -219 -261q-79 -40 -173 -40q-175 0 -280 86q-161 132 -183 428q-6 80 -6 235q1 155 27 279q51 241 148 354
q119 139 302 139t295 -96q111 -96 115 -277h-93q-10 138 -90 216t-211 78q-395 -2 -407 -689q-2 -27 -1 -45t1 -41q43 147 151 219t226 72t196 -37t129 -100t77 -149t26 -185z" />
    <glyph glyph-name="seven.prop" horiz-adv-x="917" 
d="M8 1403v78h866v-88l-561 -1393h-98l576 1403h-783z" />
    <glyph glyph-name="eight.prop" 
d="M930 396q0 159 -109 245t-263 86t-261 -88t-107 -247t108 -250t259 -91q152 0 262 93q111 93 111 252zM317 869q95 -70 242 -70t250 80q104 80 104 228q0 149 -99 235t-251 87q-151 1 -253 -86q-101 -87 -101 -239t108 -235zM1020 420q0 -124 -38 -203
q-76 -156 -245 -210q-170 -55 -347 -3t-251 202q-37 77 -37 181q0 150 81 245t229 130q-125 27 -207 114t-82 224q0 189 127 297t312 107q184 -1 311 -107q128 -106 126 -291q1 -141 -79 -227t-207 -115q143 -32 225 -126t82 -218z" />
    <glyph glyph-name="nine.prop" 
d="M899 1025q0 168 -96 285t-257 116q-162 -1 -256 -119q-93 -118 -92 -286q1 -167 88 -275q87 -109 249 -109q82 0 149 31q134 60 188 206q26 72 27 151zM999 821q0 -846 -483 -846q-170 -1 -282 97t-121 288h90q10 -141 90 -224t214 -83t212 67t121 170q67 160 80 474
q2 27 2 44v40q-45 -145 -154 -217q-108 -72 -224 -72t-194 36q-156 72 -211 246q-27 85 -26 183q0 204 116 342q116 137 312 137q254 0 371 -179q78 -119 83 -296q4 -98 4 -207z" />
    <glyph glyph-name="Euro.prop" 
d="M229 720v91q0 20 2 43h-165l16 68h156q45 399 282 531q90 50 219 50q217 0 328 -104l-20 -82q-37 39 -111 76t-188 37q-203 0 -312 -158q-92 -135 -112 -350h618l-16 -68h-609q-2 -23 -2 -43v-90q0 -25 2 -49h560l-19 -68h-539q19 -250 103 -382q109 -171 330 -171
q183 0 295 103v-97q-119 -80 -272 -80t-247 43q-260 120 -292 584h-175l17 68h153q-2 24 -2 48z" />
    <glyph glyph-name="cent.prop" horiz-adv-x="1101" 
d="M560 989q-78 0 -153 -39q-75 -40 -122 -106q-92 -130 -91 -345t122 -347q42 -45 100 -72l258 901q-36 8 -114 8zM109 476q0 410 266 539q90 44 213 44q42 0 102 -10l55 192l62 -10l-57 -199q193 -75 217 -311h-80q-18 182 -160 242l-250 -904q209 -50 333 80
q71 77 83 183h78q-12 -149 -118 -247t-275 -98q-51 0 -121 15l-54 -191l-61 13l55 194q-143 52 -216 189q-72 136 -72 279z" />
    <glyph glyph-name="dollar.prop" 
d="M936 375q0 186 -208 269q-62 26 -132 50v-635q138 8 239 88q101 79 101 228zM530 1413q-219 -14 -297 -172q-27 -55 -27 -126q1 -181 200 -264q59 -26 124 -46v608zM1026 379q0 -184 -123 -282t-307 -109v-162h-66v160q-299 6 -398 217q-34 72 -36 170h90q4 -156 98 -234
t246 -82v660q-204 66 -275 122q-72 56 -105 118q-33 61 -33 153q0 173 121 272q121 98 292 107v160h66v-162q268 -13 366 -178q34 -59 39 -144h-90q-15 229 -315 248v-631q88 -30 167 -60q164 -63 229 -183q34 -64 34 -160z" />
    <glyph glyph-name="sterling.prop" 
d="M389 958v-65h346v-74h-346v-739h662v-80h-863v80h113v739h-139v74h139v135q0 227 102 351q101 124 337 124t319 -166q29 -57 33 -135h-91q-16 226 -303 228q-84 0 -150 -39q-127 -74 -149 -255q-10 -85 -10 -178z" />
    <glyph glyph-name="florin.prop" horiz-adv-x="999" 
d="M772 1427q-123 0 -163 -207q-15 -85 -22 -120t-13 -71t-12 -63l-5 -26h221l-12 -74h-221q-9 -56 -31 -162q-21 -106 -81 -430t-78 -397q-35 -146 -109 -200q-74 -55 -201 -27l16 76q166 -40 208 158q9 42 16 79l170 903h-193l14 74h190q0 2 2 11t7 34q4 25 10 55t11 56
q30 205 70 274q74 133 174 133q64 0 141 -14l-13 -76q-80 14 -96 14z" />
    <glyph glyph-name="yen.prop" 
d="M989 688v-65h-387v-185h387v-65h-387v-373h-82v373h-385v65h385v185h-385v65h357l-476 793h101l448 -762l449 762h90l-471 -793h356z" />
    <glyph glyph-name="zero.onumprop" horiz-adv-x="1183" 
d="M991 565q1 103 -25 197q-53 195 -201 274q-75 41 -174 41q-190 0 -295 -147q-106 -148 -106 -366q0 -219 105 -366t296 -147q190 0 295 147q105 146 105 367zM1081 564q0 -252 -130 -418t-358 -166q-229 0 -360 168t-131 418t130 417q130 168 360 168t359 -168
q130 -167 130 -419z" />
    <glyph glyph-name="one.onumprop" horiz-adv-x="835" 
d="M551 1130v-1130h-84v1040q-139 -111 -348 -192v80q195 79 346 202h86z" />
    <glyph glyph-name="two.onumprop" 
d="M119 0v86l434 303q251 176 298 332q15 49 15 96q0 117 -82 189t-223 72t-237 -82q-95 -81 -103 -208h-90q12 163 129 263t297 100t289 -88q108 -89 108 -233t-90 -263t-270 -241l-365 -250h750v-76h-860z" />
    <glyph glyph-name="three.onumprop" 
d="M573 479q123 0 213 82t89 223q-1 140 -93 216t-238 77q-146 0 -231 -83q-84 -83 -94 -222h-86q8 175 123 277t295 102q181 0 296 -98q116 -98 116 -275q0 -129 -72 -215t-189 -119q204 -34 274 -216q23 -62 23 -152q0 -184 -127 -291t-320 -107q-194 0 -308 104t-125 290
h86q8 -147 104 -235q97 -87 249 -87t254 88q101 88 100 246t-96 241t-245 83h-17l-62 -5v80q20 -4 81 -4z" />
    <glyph glyph-name="four.onumprop" 
d="M748 72v944l-588 -944h588zM831 0v-301h-83v301h-668v90l653 1040h98v-1058h226v-72h-226z" />
    <glyph glyph-name="five.onumprop" 
d="M270 444q101 187 316 187t319 -128q103 -128 103 -343t-118 -349q-118 -133 -321 -133q-282 0 -373 193q-32 68 -36 162h92q4 -137 90 -210t243 -74t247 116t90 295q0 275 -179 367q-61 32 -133 32q-194 0 -295 -152q-31 -48 -45 -110h-86l33 833h731v-73h-649z" />
    <glyph glyph-name="six.onumprop" 
d="M926 459q0 270 -183 367q-63 34 -149 34q-165 0 -263 -120t-96 -284q1 -163 93 -283t253 -120t253 118t92 288zM129 670q0 348 84 540q51 119 142 195t260 76q169 1 271 -97t105 -262h-90q-12 135 -87 210t-216 75q-231 0 -322 -262q-63 -182 -63 -502q43 145 149 216
t224 71q215 0 321 -133q105 -133 105 -336q0 -202 -116 -342q-116 -141 -306 -139q-314 0 -414 299q-47 136 -47 391z" />
    <glyph glyph-name="seven.onumprop" horiz-adv-x="1081" 
d="M106 1053v77h859v-90l-553 -1341h-99l572 1354h-779z" />
    <glyph glyph-name="eight.onumprop" 
d="M922 389q0 83 -29 145q-59 127 -194 169q-67 22 -141 22q-153 0 -256 -91t-102 -247t102 -247t254 -91q154 0 260 90q106 91 106 250zM563 1409q-229 0 -314 -177q-28 -58 -28 -136q0 -145 97 -222t240 -77t243 80t100 224q1 144 -95 226t-243 82zM1008 412
q0 -214 -129 -324q-129 -111 -320 -111q-192 0 -320 107t-126 299q0 145 77 244q78 98 218 133q-125 28 -200 114t-75 200q0 202 123 305q123 102 304 102q182 0 304 -100q123 -100 123 -279q0 -135 -74 -223t-200 -117q137 -36 216 -132t79 -218z" />
    <glyph glyph-name="nine.onumprop" 
d="M887 694q0 260 -185 352q-63 32 -148 32q-161 -1 -253 -114q-92 -112 -90 -274q0 -260 178 -350q61 -31 145 -31t150 31q132 62 180 206q24 72 23 148zM948 854q41 -118 41 -351t-20 -345t-50 -196q-63 -175 -209 -247q-77 -37 -184 -37q-172 0 -278 88t-117 273h92
q6 -141 85 -214t212 -73t209 66t116 174t51 244q11 137 13 282q-49 -141 -148 -213t-215 -72q-212 0 -318 131q-107 131 -106 325t117 328t312 134q307 0 397 -297z" />
    <glyph glyph-name="zero.numerator" horiz-adv-x="720" 
d="M590 1049q0 261 -128 352q-42 29 -100 29q-111 0 -171 -103t-60 -276q0 -264 129 -351q43 -28 99 -28q110 1 171 103q60 102 60 274zM659 1054q0 -310 -165 -408q-56 -34 -136 -34t-136 34q-158 96 -159 402q-2 306 165 407q56 34 135 34q150 0 223 -118t73 -317z" />
    <glyph glyph-name="one.numerator" horiz-adv-x="720" 
d="M422 1481v-860h-70v784q-78 -68 -198 -125v66q110 52 200 135h68z" />
    <glyph glyph-name="two.numerator" horiz-adv-x="720" 
d="M92 621v65l230 225q127 121 167 180q40 60 51 96t11 75q0 76 -50 122t-137 46q-88 0 -142 -52t-54 -137h-72q2 115 76 181t189 67q115 0 189 -57q74 -56 73 -160t-61 -190t-179 -199l-203 -201h451v-61h-539z" />
    <glyph glyph-name="three.numerator" horiz-adv-x="720" 
d="M465 1067q174 -35 174 -223q0 -104 -80 -168t-205 -64q-126 0 -200 64t-80 174h69q7 -90 67 -134t152 -44t150 50q57 50 57 138t-56 132t-148 44q-36 0 -50 -4v66q7 -2 25 -2h27q80 0 133 43t53 127t-56 124q-55 40 -145 40t-141 -48t-57 -125h-70q4 109 81 170t193 61
t190 -55q75 -56 75 -171q0 -82 -44 -130t-114 -65z" />
    <glyph glyph-name="four.numerator" horiz-adv-x="720" 
d="M477 879v510l-352 -510h352zM545 821v-200h-70v200h-424v60l418 600h76v-602h133v-58h-133z" />
    <glyph glyph-name="five.numerator" horiz-adv-x="720" 
d="M383 1194q129 0 199 -80t69 -208q0 -128 -76 -211t-196 -83q-121 0 -195 52t-84 163h74q6 -77 59 -117t119 -40q116 0 172 65t57 168q1 102 -51 167t-138 65q-170 0 -210 -148h-65l20 494h471v-62h-403l-21 -338q23 47 75 80t124 33z" />
    <glyph glyph-name="six.numerator" horiz-adv-x="720" 
d="M573 895q0 154 -109 204q-38 17 -89 17q-102 0 -159 -66q-56 -67 -56 -159q0 -144 118 -200q40 -19 92 -19q101 0 152 62q51 63 51 161zM379 1174q133 0 199 -81t65 -200q0 -119 -74 -200t-189 -81q-116 0 -177 47q-123 95 -123 332t55 347q74 151 244 151q117 0 183 -57
t71 -156h-72q-21 154 -182 154q-187 0 -221 -251q-10 -73 -11 -153q65 148 232 148z" />
    <glyph glyph-name="seven.numerator" horiz-adv-x="720" 
d="M88 1417v64h555v-66l-362 -794h-76l373 796h-490z" />
    <glyph glyph-name="eight.numerator" horiz-adv-x="720" 
d="M584 854q0 90 -67 136t-159 46t-156 -48t-65 -137q0 -89 66 -135t133 -46q174 0 229 104q19 35 19 80zM573 1260q1 168 -233 170q-66 0 -129 -42t-64 -133q0 -116 134 -150q39 -9 103 -9t127 40q62 41 62 124zM641 1262q0 -149 -170 -195q86 -21 134 -77t48 -126
q0 -124 -84 -187t-207 -64q-124 -1 -210 60t-84 177q0 82 48 137t134 78q-78 17 -124 67t-46 115q0 121 82 181q82 61 200 61q186 0 255 -129q24 -43 24 -98z" />
    <glyph glyph-name="nine.numerator" horiz-adv-x="720" 
d="M561 1214q0 146 -115 199q-39 19 -90 19q-97 1 -152 -64q-55 -64 -56 -153q0 -89 48 -153t148 -65q100 1 158 63t59 154zM374 1489q167 0 235 -171q32 -81 32 -201q0 -251 -57 -363q-71 -142 -238 -142q-112 0 -182 56t-80 163h72q6 -75 55 -117t128 -42q140 0 191 120
q40 90 45 295q-63 -147 -231 -147q-126 0 -196 76t-70 195t76 199q75 79 220 79z" />
    <glyph glyph-name="zero.denominator" horiz-adv-x="720" 
d="M590 428q0 261 -128 352q-42 29 -100 29t-102 -29q-129 -87 -129 -350t129 -350q43 -29 99 -29q109 0 170 103t61 274zM499 835q160 -97 160 -404t-165 -405q-56 -34 -136 -34q-150 0 -223 118q-72 118 -74 326q0 295 167 399q56 33 135 33t136 -33z" />
    <glyph glyph-name="one.denominator" horiz-adv-x="720" 
d="M422 860v-860h-70v784q-73 -63 -198 -125v66q110 52 200 135h68z" />
    <glyph glyph-name="two.denominator" horiz-adv-x="720" 
d="M92 0v66l230 225q128 123 168 181q39 58 50 94t11 75q0 76 -50 122t-137 46q-88 0 -142 -51t-54 -137h-72q2 115 76 181t189 66t189 -57t73 -161t-61 -189q-60 -86 -179 -199l-203 -201h451v-61h-539z" />
    <glyph glyph-name="three.denominator" horiz-adv-x="720" 
d="M465 446q174 -36 174 -222q0 -104 -80 -168t-205 -64q-126 0 -200 63t-80 174h69q7 -90 67 -134t152 -44t150 50q57 51 57 139t-56 132t-148 44q-36 0 -50 -4v65q7 -2 25 -2h27q80 0 133 43t53 127t-56 124q-55 40 -145 40t-141 -47t-57 -125h-70q4 109 81 170t193 61
t190 -56q75 -56 75 -171q0 -82 -44 -130t-114 -65z" />
    <glyph glyph-name="four.denominator" horiz-adv-x="720" 
d="M477 258v510l-352 -510h352zM545 201v-201h-70v201h-424v59l418 600h76v-602h133v-57h-133z" />
    <glyph glyph-name="five.denominator" horiz-adv-x="720" 
d="M651 286q0 -128 -76 -211t-196 -83q-260 0 -279 215h74q6 -78 59 -118t119 -40q115 0 171 66t58 168q1 102 -51 167q-52 64 -138 64q-170 -1 -210 -147h-65l20 493h471v-61h-403l-21 -338q23 47 75 80t124 32q129 0 199 -79q69 -80 69 -208z" />
    <glyph glyph-name="six.denominator" horiz-adv-x="720" 
d="M573 274q0 45 -11 85q-37 134 -187 137q-103 0 -159 -67t-56 -159q0 -143 118 -199q40 -19 92 -19q99 -1 151 62t52 160zM379 553q133 0 199 -81q66 -82 65 -200q0 -118 -75 -200t-189 -81q-115 1 -176 48t-92 129t-31 198t11 200q23 181 135 260q58 42 164 42t172 -57
t71 -156h-72q-21 154 -182 154q-187 0 -221 -251q-10 -73 -11 -152q65 147 232 147z" />
    <glyph glyph-name="seven.denominator" horiz-adv-x="720" 
d="M88 797v63h555v-65l-362 -795h-76l373 797h-490z" />
    <glyph glyph-name="eight.denominator" horiz-adv-x="720" 
d="M584 233q0 91 -67 137t-159 46t-156 -48t-65 -138q0 -90 66 -135q66 -46 133 -46q175 0 229 105q19 34 19 79zM573 639q0 43 -17 76q-48 94 -194 94q-88 0 -151 -42t-64 -132q0 -117 134 -151q39 -9 103 -9t127 40q62 41 62 124zM641 641q0 -149 -170 -195
q86 -20 134 -76t48 -126q0 -125 -84 -188q-84 -64 -209 -64q-124 0 -209 60t-83 177q0 81 48 137t134 78q-78 18 -124 68t-46 114q0 175 174 227q51 15 107 15q187 0 256 -129q24 -43 24 -98z" />
    <glyph glyph-name="nine.denominator" horiz-adv-x="720" 
d="M561 594q0 143 -115 199q-39 18 -90 18q-99 0 -153 -64t-55 -152q0 -89 48 -154t148 -65t159 63q58 63 58 155zM344 319q-126 0 -196 76t-70 195t77 200q77 80 190 79t173 -46t82 -103q40 -100 41 -222q0 -123 -12 -211q-40 -295 -283 -295q-112 0 -182 55t-80 164h72
q6 -74 55 -117t128 -43q140 0 191 120q40 90 45 296q-64 -148 -231 -148z" />
    <glyph glyph-name="onehalf.alt01" 
d="M133 725v53h856v-53h-856zM365 0v51l155 142q97 88 127.5 128t30.5 85t-33 71.5t-86 26.5t-88 -31t-37 -88h-63q0 80 53 125t133 45t132 -39t52 -104t-42 -116.5t-109 -113.5l-146 -131h306v-51h-385zM537 936v475q-36 -29 -140 -74v58q88 35 146 86h57v-545h-63z" />
    <glyph glyph-name="onethird.alt01" 
d="M539 936v475q-31 -24 -140 -72v56q88 35 146 86h57v-545h-63zM133 725v53h856v-53h-856zM418 147q20 -108 150 -108q60 0 99.5 29.5t39.5 83.5q0 106 -138 106h-19q-20 0 -26 -2v51h45q59 0 90 27.5t31 73.5t-36 72t-95 26q-123 0 -133 -103h-64q4 78 60.5 115t137.5 37
t137.5 -35.5t56.5 -119.5t-99 -115q115 -25 115 -143q0 -68 -58.5 -110t-150.5 -42t-145.5 42t-63.5 115h66z" />
    <glyph glyph-name="onequarter.alt01" 
d="M133 725v53h856v-53h-856zM598 174v293l-225 -293h225zM657 125v-125h-61v125h-287v49l285 371h63v-369h95v-51h-95zM539 936v475q-31 -24 -140 -72v56q88 35 146 86h57v-545h-63z" />
    <glyph glyph-name="oneeighth.alt01" 
d="M709 144q0 56 -43.5 85t-103.5 29t-104 -29t-44 -85t44 -80.5t102 -24.5t103.5 24.5t45.5 80.5zM698 405.5q0 53.5 -41 77t-96 23.5t-96 -23t-41 -77t42 -77.5t95 -23.5t95 23.5t42 77zM760 401q0 -84 -103 -118q53 -16 84 -51.5t31 -81.5q0 -83 -78 -132t-185 -26.5
t-133 66.5t-26 90t33 82t86 53q-47 10 -77 42.5t-30 80.5q0 78 59.5 113.5t139.5 35.5t139.5 -35t59.5 -119zM133 725v53h856v-53h-856zM539 936v475q-31 -24 -140 -72v56q88 35 146 86h57v-545h-63z" />
    <glyph glyph-name="twothirds.alt01" 
d="M133 725v53h856v-53h-856zM367 936v51l155 141q84 76 121 119t37 91t-33 75t-86 27t-88 -31t-37 -88h-63q0 80 53 125t133 45t132 -38.5t52 -104.5t-40.5 -118t-110.5 -112l-146 -131h306v-51h-385zM418 147q20 -108 150 -108q60 0 99.5 29.5t39.5 83.5q0 106 -138 106
h-19q-20 0 -26 -2v51h45q59 0 90 27.5t31 73.5t-36 72t-95 26q-123 0 -133 -103h-64q4 78 60.5 115t137.5 37t137.5 -35.5t56.5 -119.5t-99 -115q115 -25 115 -143q0 -68 -58.5 -110t-150.5 -42t-145.5 42t-63.5 115h66z" />
    <glyph glyph-name="threequarters.alt01" 
d="M598 174v293l-225 -293h225zM133 725v53h856v-53h-856zM418 1083q20 -108 150 -108q60 0 99.5 29.5t39.5 82.5q0 106 -138 107h-19q-20 0 -26 -2v51h45q59 0 90 27.5t31 73.5t-36 72t-95 26q-123 0 -133 -103h-64q4 78 60.5 115t137.5 37t137.5 -36t56.5 -120t-99 -114
q115 -23 115 -143q0 -68 -58.5 -110t-150.5 -42t-145.5 42t-63.5 115h66zM657 125v-125h-61v125h-287v49l285 371h63v-369h95v-51h-95z" />
    <glyph glyph-name="threeeighths.alt01" 
d="M698 405.5q0 53.5 -41 77t-96 23.5t-96 -23t-41 -77t42 -77.5t95 -23.5t95 23.5t42 77zM133 725v53h856v-53h-856zM709 144q0 56 -43.5 85t-103.5 29t-104 -29t-44 -85t44 -80.5t102 -24.5t103.5 24.5t45.5 80.5zM418 1083q20 -108 150 -108q60 0 99.5 29.5t39.5 82.5
q0 106 -138 107h-19q-20 0 -26 -2v51h45q59 0 90 27.5t31 73.5t-36 72t-95 26q-123 0 -133 -103h-64q4 78 60.5 115t137.5 37t137.5 -36t56.5 -120t-99 -114q115 -23 115 -143q0 -68 -58.5 -110t-150.5 -42t-145.5 42t-63.5 115h66zM760 401q0 -84 -103 -118
q53 -16 84 -51.5t31 -81.5q0 -83 -78 -132t-185 -26.5t-133 66.5t-26 90t33 82t86 53q-47 10 -77 42.5t-30 80.5q0 78 59.5 113.5t139.5 35.5t139.5 -35t59.5 -119z" />
    <glyph glyph-name="fiveeighths.alt01" 
d="M133 725v53h856v-53h-856zM709 144q0 56 -43.5 85t-103.5 29t-104 -29t-44 -85t44 -80.5t102 -24.5t103.5 24.5t45.5 80.5zM698 405.5q0 53.5 -41 77t-96 23.5t-96 -23t-41 -77t42 -77.5t95 -23.5t95 23.5t42 77zM760 401q0 -84 -103 -118q53 -16 84 -51.5t31 -81.5
q0 -83 -78 -132t-185 -26.5t-133 66.5t-26 90t33 82t86 53q-47 10 -77 42.5t-30 80.5q0 78 59.5 113.5t139.5 35.5t139.5 -35t59.5 -119zM571 1249q-96 0 -127 -86h-59l14 318h338v-51h-280l-11 -197q14 23 48 44t86 21q94 0 139 -52t45 -134t-50 -134t-138 -52
q-193 0 -201 145h61q12 -96 129 -96q72 0 104.5 40t32.5 137t-131 97z" />
    <glyph glyph-name="seveneighths.alt01" 
d="M133 725v53h856v-53h-856zM709 144q0 56 -43.5 85t-103.5 29t-104 -29t-44 -85t44 -80.5t102 -24.5t103.5 24.5t45.5 80.5zM698 405.5q0 53.5 -41 77t-96 23.5t-96 -23t-41 -77t42 -77.5t95 -23.5t95 23.5t42 77zM760 401q0 -84 -103 -118q53 -16 84 -51.5t31 -81.5
q0 -83 -78 -132t-185 -26.5t-133 66.5t-26 90t33 82t86 53q-47 10 -77 42.5t-30 80.5q0 78 59.5 113.5t139.5 35.5t139.5 -35t59.5 -119zM389 1430v51h393v-47l-239 -498h-72l244 494h-326z" />
    </font>
</defs>
</svg>
